<svg width="38" height="35" viewBox="0 0 38 35" fill="none" xmlns="http://www.w3.org/2000/svg">
<path d="M2.25084 0.4067C0.264174 1.37337 -0.562487 3.76538 0.40418 5.75338L12.4229 30.4587C13.5989 32.8094 15.9655 34.2694 18.6002 34.2694C21.2348 34.2694 23.6029 32.8094 24.7962 30.4187L36.7962 5.75338C37.7642 3.76538 36.9375 1.37337 34.9495 0.4067C32.9655 -0.562633 30.5695 0.265409 29.6042 2.25208L18.6015 24.8707L7.59752 2.25208C6.90552 0.829409 5.48285 4.19617e-05 4.00019 4.19617e-05C3.41219 4.19617e-05 2.81617 0.1307 2.25084 0.4067Z" fill="url(#paint0_linear_4084_32735)"/>
<defs>
<linearGradient id="paint0_linear_4084_32735" x1="-1.53539e-05" y1="17.1348" x2="37.2013" y2="17.1348" gradientUnits="userSpaceOnUse">
<stop stop-color="#0D8CFC"/>
<stop offset="1" stop-color="#299BF6"/>
</linearGradient>
</defs>
</svg>
