<svg width="36" height="36" viewBox="0 0 36 36" fill="none" xmlns="http://www.w3.org/2000/svg">
<path d="M17.0284 0.0440903C12.2831 0.0534236 7.93643 1.79343 4.7311 4.99876C1.66576 8.17343 -0.0115606 12.4534 0.00843943 17.0481L0.00575388 17.2174C-0.142246 23.7481 2.59378 27.8854 4.87644 30.1667C8.90978 34.3161 14.0511 35.2801 17.4204 35.2801C18.6898 35.2801 19.7071 35.1441 20.3191 34.9894C22.4604 34.4507 23.7591 32.276 23.2204 30.1334C22.6924 28.0334 20.5898 26.74 18.4924 27.2027C18.1604 27.2507 13.7311 27.8001 10.5711 24.5481C8.80044 22.7787 7.93641 20.3734 8.00441 17.4L8.00844 17.0147C7.99644 14.4787 8.85508 12.2454 10.4364 10.6068C12.5498 8.49342 15.1978 8.04409 17.1564 8.04409C17.3378 8.04276 17.4871 8.04003 17.6484 8.0187C17.6511 8.0187 17.6978 8.01606 17.7818 8.01072C18.3831 7.98006 20.9124 7.94943 23.4604 9.55076C26.0524 11.2014 27.1084 14.5294 27.2124 15.4574C27.2098 15.5188 27.2084 15.5814 27.2084 15.6441V30.8547C27.2084 33.0654 28.9991 34.8561 31.2084 34.8561C33.4178 34.8561 35.2084 33.0654 35.2084 30.8547V15.7628C35.3404 12.7294 33.0924 6.19872 27.7378 2.79206C23.9258 0.390724 20.1658 6.48499e-05 18.1418 6.48499e-05C17.6685 6.48499e-05 17.2898 0.0214236 17.0284 0.0440903Z" fill="url(#paint0_linear_4084_32736)"/>
<defs>
<linearGradient id="paint0_linear_4084_32736" x1="35" y1="15" x2="-1.70045e-07" y2="15" gradientUnits="userSpaceOnUse">
<stop stop-color="#43ACEC"/>
<stop offset="1" stop-color="#2A9CF5"/>
</linearGradient>
</defs>
</svg>
