<svg viewBox="0 0 19 20" fill="none" xmlns="http://www.w3.org/2000/svg">
<path d="M14.625 0.976562C12.7422 0.976562 11.2266 2.49375 11.2266 4.375C11.2266 6.25781 12.7422 7.77344 14.625 7.77344C16.5078 7.77344 18.0234 6.25781 18.0234 4.375C18.0234 2.49375 16.5078 0.976562 14.625 0.976562ZM16.207 2.30508L16.793 2.69492L14.0547 6.80078L11.875 4.625L12.375 4.125L13.9453 5.69922L16.207 2.30508ZM10.9023 6.09766L6.28125 9.29688H0.25V10.7031H6.28125L10.9023 13.9023C11.1016 13.4727 11.375 13.082 11.7031 12.75L7.73438 10L11.7031 7.25C11.375 6.91797 11.1016 6.52734 10.9023 6.09766ZM14.625 12.2266C12.7422 12.2266 11.2266 13.7422 11.2266 15.625C11.2266 17.5078 12.7422 19.0234 14.625 19.0234C16.5078 19.0234 18.0234 17.5078 18.0234 15.625C18.0234 13.7422 16.5078 12.2266 14.625 12.2266ZM13 13.5L14.625 15.125L16.25 13.5L16.75 14L15.125 15.625L16.75 17.25L16.25 17.75L14.625 16.125L13 17.75L12.5 17.25L14.125 15.625L12.5 14L13 13.5Z" fill="currentColor"/>
</svg>
