<svg viewBox="0 0 11 15" fill="none" xmlns="http://www.w3.org/2000/svg">
<path d="M5.3164 0.0288223C5.43732 -0.00960744 5.56804 -0.00960744 5.68896 0.0288223L8.63639 0.966302C8.75385 1.00363 8.85601 1.0753 8.92838 1.17115C9.00076 1.267 9.03967 1.38216 9.0396 1.50029V5.25021C9.03967 5.36834 9.00076 5.4835 8.92838 5.57935C8.85601 5.6752 8.75385 5.74687 8.63639 5.7842L6.09216 6.59268V8.25014H7.46763C7.93666 8.25014 8.38647 8.42793 8.71812 8.74439C9.04977 9.06085 9.23609 9.49007 9.23609 9.93761V10.5713C9.79075 10.7093 10.2738 11.0352 10.595 11.4882C10.9161 11.9412 11.0534 12.4903 10.9812 13.0329C10.909 13.5755 10.6322 14.0744 10.2025 14.4364C9.77288 14.7984 9.21978 14.9988 8.6466 15C8.07256 15.0002 7.51815 14.8005 7.08736 14.4385C6.65657 14.0765 6.37898 13.5769 6.30665 13.0335C6.23432 12.4901 6.37222 11.9402 6.69449 11.4869C7.01675 11.0336 7.50125 10.7081 8.05712 10.5713V9.93761C8.05712 9.78843 7.99501 9.64536 7.88446 9.53987C7.77391 9.43438 7.62397 9.37512 7.46763 9.37512H3.53772C3.38138 9.37512 3.23144 9.43438 3.12089 9.53987C3.01034 9.64536 2.94824 9.78843 2.94824 9.93761V10.5713C3.50289 10.7093 3.98594 11.0352 4.3071 11.4882C4.62826 11.9412 4.76556 12.4903 4.69334 13.0329C4.62112 13.5755 4.34432 14.0744 3.91468 14.4364C3.48503 14.7984 2.93193 14.9988 2.35875 15C1.7847 15.0002 1.2303 14.8005 0.799508 14.4385C0.368716 14.0765 0.091127 13.5769 0.0187976 13.0335C-0.0535318 12.4901 0.0843665 11.9402 0.406632 11.4869C0.728898 11.0336 1.21339 10.7081 1.76926 10.5713V9.93761C1.76926 9.49007 1.95558 9.06085 2.28723 8.74439C2.61889 8.42793 3.0687 8.25014 3.53772 8.25014H4.91319V6.59268L2.36897 5.78495C2.25138 5.74758 2.14913 5.67579 2.07674 5.57979C2.00436 5.4838 1.96552 5.36847 1.96576 5.25021V1.50029C1.96569 1.38216 2.0046 1.267 2.07697 1.17115C2.14935 1.0753 2.25151 1.00363 2.36897 0.966302L5.3164 0.0288223ZM3.76409 2.63502C3.73958 2.70514 3.7298 2.77918 3.7353 2.85291C3.74081 2.92665 3.76148 2.99862 3.79616 3.06472C3.83083 3.13082 3.87882 3.18975 3.93738 3.23815C3.99593 3.28654 4.06391 3.32344 4.13743 3.34675L4.91319 3.5935V4.31273C4.91319 4.46191 4.9753 4.60498 5.08585 4.71047C5.1964 4.81596 5.34634 4.87522 5.50268 4.87522C5.65902 4.87522 5.80896 4.81596 5.91951 4.71047C6.03006 4.60498 6.09216 4.46191 6.09216 4.31273V3.59275L6.86793 3.34675C7.01635 3.29961 7.13906 3.19814 7.20908 3.06466C7.27909 2.93119 7.29067 2.77664 7.24127 2.63502C7.19187 2.49339 7.08553 2.3763 6.94564 2.30949C6.80576 2.24268 6.64379 2.23163 6.49537 2.27877L5.50268 2.59527L4.50998 2.28027C4.43655 2.25687 4.35899 2.24751 4.28176 2.25271C4.20453 2.25791 4.12913 2.27758 4.05986 2.31059C3.9906 2.3436 3.92883 2.38931 3.87808 2.4451C3.82733 2.5009 3.78859 2.56494 3.76409 2.63502Z" fill="currentColor"/>
</svg>
