<svg viewBox="0 0 20 20" fill="none" xmlns="http://www.w3.org/2000/svg">
<path d="M16.6666 4.99996C16.6666 3.19329 13.6141 1.66663 9.99992 1.66663C6.38575 1.66663 3.33325 3.19329 3.33325 4.99996V6.66663C3.33325 8.47329 6.38575 9.99996 9.99992 9.99996C13.6141 9.99996 16.6666 8.47329 16.6666 6.66663V4.99996ZM9.99992 15.8333C6.38575 15.8333 3.33325 14.3066 3.33325 12.5V15C3.33325 16.8066 6.38575 18.3333 9.99992 18.3333C13.6141 18.3333 16.6666 16.8066 16.6666 15V12.5C16.6666 14.3066 13.6141 15.8333 9.99992 15.8333Z" fill="currentColor"/>
<path d="M16.6666 8.33337C16.6666 10.14 13.6141 11.6667 9.99992 11.6667C6.38575 11.6667 3.33325 10.14 3.33325 8.33337V10.8334C3.33325 12.64 6.38575 14.1667 9.99992 14.1667C13.6141 14.1667 16.6666 12.64 16.6666 10.8334V8.33337Z" fill="currentColor"/>
</svg>
