<svg viewBox="0 0 8 14" fill="none" xmlns="http://www.w3.org/2000/svg">
<path d="M0.25 9.375C0.25 8.4375 0.546875 7.62229 1.14062 6.92938C1.73437 6.23646 2.47917 5.81729 3.375 5.67188V1.25C3.375 1.07292 3.435 0.924377 3.555 0.804377C3.675 0.684377 3.82333 0.624585 4 0.625002C4.17708 0.625002 4.32563 0.685002 4.44563 0.805002C4.56563 0.925002 4.62542 1.07334 4.625 1.25V5.67188C5.52083 5.81771 6.26562 6.23709 6.85937 6.93C7.45312 7.62292 7.75 8.43792 7.75 9.375C7.75 10.4167 7.38542 11.3021 6.65625 12.0313C5.92708 12.7604 5.04167 13.125 4 13.125C2.95833 13.125 2.07292 12.7604 1.34375 12.0313C0.614583 11.3021 0.25 10.4167 0.25 9.375Z" fill="currentColor"/>
</svg>
