<svg viewBox="0 0 18 18" fill="none" xmlns="http://www.w3.org/2000/svg">
<path d="M16.5001 14.2501V3.75008C17.0001 3.50008 17.3334 2.91675 17.3334 2.33341C17.3334 1.41675 16.5834 0.666748 15.6667 0.666748C15.0834 0.666748 14.5001 1.00008 14.2501 1.50008H3.75008C3.50008 1.00008 2.91675 0.666748 2.33341 0.666748C1.41675 0.666748 0.666748 1.41675 0.666748 2.33341C0.666748 2.91675 1.00008 3.50008 1.50008 3.75008V14.2501C1.00008 14.5001 0.666748 15.0834 0.666748 15.6667C0.666748 16.5834 1.41675 17.3334 2.33341 17.3334C2.91675 17.3334 3.50008 17.0001 3.75008 16.5001H14.2501C14.5001 17.0001 15.0834 17.3334 15.6667 17.3334C16.5834 17.3334 17.3334 16.5834 17.3334 15.6667C17.3334 15.0834 17.0001 14.5001 16.5001 14.2501ZM14.8334 14.2501C14.5834 14.4167 14.4167 14.5834 14.2501 14.8334H3.75008C3.58341 14.5834 3.41675 14.4167 3.16675 14.2501V3.75008C3.41675 3.58341 3.58341 3.41675 3.75008 3.16675H14.2501C14.4167 3.41675 14.5834 3.58341 14.8334 3.75008V14.2501ZM10.6667 6.50008V5.66675C10.6667 5.16675 10.3334 4.83341 9.83341 4.83341H5.66675C5.16675 4.83341 4.83341 5.16675 4.83341 5.66675V9.83341C4.83341 10.3334 5.16675 10.6667 5.66675 10.6667H6.50008V8.16675C6.50008 7.25008 7.25008 6.50008 8.16675 6.50008H10.6667ZM12.3334 7.33341H8.16675C7.66675 7.33341 7.33341 7.66675 7.33341 8.16675V12.3334C7.33341 12.8334 7.66675 13.1667 8.16675 13.1667H12.3334C12.8334 13.1667 13.1667 12.8334 13.1667 12.3334V8.16675C13.1667 7.66675 12.8334 7.33341 12.3334 7.33341Z" fill="currentColor"/>
</svg>
