<svg viewBox="0 0 18 18" fill="none" xmlns="http://www.w3.org/2000/svg">
    <path d="M8.03161 4.28161L8.38516 4.63516C8.21017 4.81016 7.98719 4.92931 7.74445 4.97753C7.50171 5.02575 7.25013 5.00087 7.02153 4.90605C6.79294 4.81123 6.59761 4.65073 6.46027 4.44485C6.32302 4.23911 6.24985 3.99731 6.25 3.75C6.25 3.74983 6.25 3.74967 6.25 3.7495L6.75 3.75C6.75 3.33675 7.086 3 7.5 3L8.03161 4.28161ZM8.03161 4.28161L8.38516 4.63516C8.56016 4.46017 8.67931 4.23719 8.72753 3.99445C8.77575 3.75172 8.75087 3.50013 8.65605 3.27153C8.56123 3.04294 8.40073 2.84761 8.19485 2.71027C7.98904 2.57297 7.74713 2.4998 7.49973 2.5L8.03161 4.28161ZM14.25 5.5C14.4973 5.49985 14.7391 5.57302 14.9449 5.71027C15.1507 5.84761 15.3112 6.04293 15.4061 6.27153C15.5009 6.50013 15.5257 6.75171 15.4775 6.99445C15.4293 7.23719 15.3102 7.46017 15.1352 7.63516C14.9602 7.81016 14.7372 7.92931 14.4945 7.97753C14.2517 8.02575 14.0001 8.00087 13.7715 7.90605C13.5429 7.81123 13.3476 7.65073 13.2103 7.44485C13.0729 7.23897 12.9998 6.99698 13 6.7495M14.25 5.5C13.5597 5.5 13.0003 6.06066 13 6.7495M14.25 5.5V6M14.25 5.5V6M14.25 5.5C14.2498 5.5 14.2497 5.5 14.2495 5.5L14.25 6M14.25 5.5V6M13 6.7495L13.5 6.75H13C13 6.74983 13 6.74967 13 6.7495ZM3.7495 10.25C3.99698 10.2502 4.23898 10.1771 4.44485 10.0397C4.65073 9.90239 4.81123 9.70706 4.90605 9.47847C5.00087 9.24987 5.02575 8.99829 4.97753 8.75555C4.92931 8.51281 4.81016 8.28983 4.63516 8.11484L4.28161 8.46839L4.63516 8.11484C4.46017 7.93984 4.23719 7.82069 3.99445 7.77247C3.75172 7.72425 3.50013 7.74913 3.27153 7.84395C3.04294 7.93877 2.84761 8.09927 2.71027 8.30515C2.57297 8.51096 2.4998 8.75287 2.5 9.00027C2.50014 9.68904 3.05935 10.2497 3.7495 10.25ZM3.7495 10.25L3.75 9.75V10.25C3.74983 10.25 3.74967 10.25 3.7495 10.25ZM14.5 10.6388V10.9927L14.8339 11.1104C15.1739 11.2301 15.4685 11.4522 15.6773 11.746C15.8859 12.0397 15.9986 12.3906 16 12.7508C15.9996 13.7147 15.2143 14.4998 14.2503 14.5C14.0129 14.4995 13.778 14.4505 13.5603 14.3559C13.3423 14.2612 13.1461 14.1229 12.9837 13.9494L12.7935 13.7464L12.5207 13.801L9.54924 14.3949L9.25241 14.4543L9.16738 14.7448C9.06167 15.106 8.84204 15.4234 8.54125 15.6496C8.24067 15.8756 7.87514 15.9985 7.49908 16C6.53514 15.9995 5.75 15.2141 5.75 14.25C5.75 13.945 5.83606 13.6574 5.98461 13.3962L6.14673 13.1112L5.94994 12.8489L4.49869 10.9147L4.31806 10.6739L4.02077 10.7209C3.90495 10.7392 3.82521 10.75 3.75 10.75C2.78564 10.75 2 9.96436 2 9C2 8.03599 2.78507 7.25057 3.74895 7.25C3.96614 7.25103 4.1812 7.29289 4.38293 7.37339L4.73845 7.51526L4.96819 7.20909L6.22369 5.53584L6.46864 5.20937L6.19784 4.90401C5.91913 4.58971 5.75 4.18863 5.75 3.75C5.75 2.78564 6.53564 2 7.5 2C8.46436 2 9.25 2.78564 9.25 3.75C9.25 3.75814 9.24918 3.77241 9.24514 3.80433C9.2445 3.80939 9.24353 3.81662 9.24236 3.82536C9.23855 3.85368 9.23263 3.89775 9.22909 3.93418L9.19285 4.30746L9.54105 4.44674L12.4773 5.62124L12.7835 5.7437L13.0166 5.51051C13.1785 5.34856 13.3708 5.22011 13.5824 5.13251C13.794 5.04491 14.0207 4.99988 14.2497 5H14.25C15.2141 5 15.9995 5.78516 16 6.74912C15.9986 7.10943 15.8858 7.46052 15.6772 7.75429C15.4684 8.0483 15.1737 8.27052 14.8337 8.39048L14.5 8.50818V8.862V10.6388ZM9.1107 13.5668L9.27003 13.9411L9.66889 13.8613L12.1116 13.3723L12.5344 13.2876L12.5129 12.857C12.5115 12.8292 12.5089 12.805 12.5066 12.7868C12.5045 12.7704 12.5019 12.7523 12.501 12.7458C12.5006 12.7432 12.5003 12.741 12.5001 12.7393C12.5037 12.3829 12.6163 12.0361 12.8228 11.7454C13.0316 11.4515 13.3262 11.2294 13.6662 11.1096L14 10.9919V10.638V8.86125V8.50871L13.6679 8.3903C12.9859 8.14709 12.5 7.50427 12.5 6.75C12.5 6.74186 12.5008 6.72759 12.5049 6.69567C12.5055 6.69061 12.5065 6.68338 12.5076 6.67464C12.5115 6.64632 12.5174 6.60225 12.5209 6.56582L12.5572 6.19254L12.2089 6.05326L9.2727 4.87876L8.96654 4.7563L8.7334 4.98949C8.57149 5.15144 8.37924 5.27989 8.16764 5.36749C7.95605 5.45509 7.72926 5.50011 7.50025 5.5H7.5C7.42492 5.5 7.34614 5.48921 7.22998 5.47087L6.93262 5.42392L6.752 5.66475L5.30075 7.59975L5.10422 7.86179L5.26595 8.14663C5.41388 8.40715 5.5 8.69489 5.5 9C5.5 9.43856 5.33091 9.83982 5.05185 10.1551L4.78159 10.4604L5.02631 10.7866L6.28182 12.4598L6.51077 12.765L6.86555 12.6247C7.0673 12.545 7.27939 12.5001 7.49943 12.5C7.84296 12.5005 8.17879 12.6018 8.46523 12.7915C8.75169 12.9811 8.97613 13.2507 9.1107 13.5668ZM6.61612 15.1339C6.85054 15.3683 7.16848 15.5 7.5 15.5C7.83152 15.5 8.14946 15.3683 8.38388 15.1339C8.6183 14.8995 8.75 14.5815 8.75 14.25C8.75 13.9185 8.6183 13.6005 8.38388 13.3661C8.14946 13.1317 7.83152 13 7.5 13C7.16848 13 6.85054 13.1317 6.61612 13.3661C6.3817 13.6005 6.25 13.9185 6.25 14.25C6.25 14.5815 6.3817 14.8995 6.61612 15.1339ZM13.3661 13.6339C13.6005 13.8683 13.9185 14 14.25 14C14.5815 14 14.8995 13.8683 15.1339 13.6339C15.3683 13.3995 15.5 13.0815 15.5 12.75C15.5 12.4185 15.3683 12.1005 15.1339 11.8661C14.8995 11.6317 14.5815 11.5 14.25 11.5C13.9185 11.5 13.6005 11.6317 13.3661 11.8661C13.1317 12.1005 13 12.4185 13 12.75C13 13.0815 13.1317 13.3995 13.3661 13.6339Z" fill="currentColor" stroke="currentColor"/>
</svg>
