<svg viewBox="0 0 19 8" fill="none" xmlns="http://www.w3.org/2000/svg">
    <path d="M0.5 6.2499C0.5 6.99521 1.10469 7.5999 1.85 7.5999H17.15C17.8953 7.5999 18.5 6.99521 18.5 6.2499V1.7499C18.5 1.00459 17.8953 0.399902 17.15 0.399902H15.35V2.6499C15.35 2.8974 15.1475 3.0999 14.9 3.0999C14.6525 3.0999 14.45 2.8974 14.45 2.6499V0.399902H12.65V2.6499C12.65 2.8974 12.4475 3.0999 12.2 3.0999C11.9525 3.0999 11.75 2.8974 11.75 2.6499V0.399902H9.95V2.6499C9.95 2.8974 9.7475 3.0999 9.5 3.0999C9.2525 3.0999 9.05 2.8974 9.05 2.6499V0.399902H7.25V2.6499C7.25 2.8974 7.0475 3.0999 6.8 3.0999C6.5525 3.0999 6.35 2.8974 6.35 2.6499V0.399902H4.55V2.6499C4.55 2.8974 4.3475 3.0999 4.1 3.0999C3.8525 3.0999 3.65 2.8974 3.65 2.6499V0.399902H1.85C1.10469 0.399902 0.5 1.00459 0.5 1.7499V6.2499Z" fill="currentColor"/>
</svg>
