<svg viewBox="0 0 18 18" fill="none" xmlns="http://www.w3.org/2000/svg">
<mask id="mask0_1_18444" style="mask-type:luminance" maskUnits="userSpaceOnUse" x="0" y="0" width="18" height="18">
<path d="M1.08325 9H16.9166" stroke="white" stroke-linecap="round" stroke-linejoin="round"/>
<path d="M10.6667 0.666748H7.33333C7.11232 0.666748 6.90036 0.754545 6.74408 0.910826C6.5878 1.06711 6.5 1.27907 6.5 1.50008V4.83341C6.5 5.05443 6.5878 5.26639 6.74408 5.42267C6.90036 5.57895 7.11232 5.66675 7.33333 5.66675H10.6667C10.8877 5.66675 11.0996 5.57895 11.2559 5.42267C11.4122 5.26639 11.5 5.05443 11.5 4.83341V1.50008C11.5 1.27907 11.4122 1.06711 11.2559 0.910826C11.0996 0.754545 10.8877 0.666748 10.6667 0.666748ZM5.66667 12.3334H2.33333C2.11232 12.3334 1.90036 12.4212 1.74408 12.5775C1.5878 12.7338 1.5 12.9457 1.5 13.1667V16.5001C1.5 16.7211 1.5878 16.9331 1.74408 17.0893C1.90036 17.2456 2.11232 17.3334 2.33333 17.3334H5.66667C5.88768 17.3334 6.09964 17.2456 6.25592 17.0893C6.4122 16.9331 6.5 16.7211 6.5 16.5001V13.1667C6.5 12.9457 6.4122 12.7338 6.25592 12.5775C6.09964 12.4212 5.88768 12.3334 5.66667 12.3334ZM15.6667 12.3334H12.3333C12.1123 12.3334 11.9004 12.4212 11.7441 12.5775C11.5878 12.7338 11.5 12.9457 11.5 13.1667V16.5001C11.5 16.7211 11.5878 16.9331 11.7441 17.0893C11.9004 17.2456 12.1123 17.3334 12.3333 17.3334H15.6667C15.8877 17.3334 16.0996 17.2456 16.2559 17.0893C16.4122 16.9331 16.5 16.7211 16.5 16.5001V13.1667C16.5 12.9457 16.4122 12.7338 16.2559 12.5775C16.0996 12.4212 15.8877 12.3334 15.6667 12.3334Z" fill="white" stroke="white" stroke-linejoin="round"/>
<path d="M9 9.00008V5.66675M14 12.3334V9.00008M4 12.3334V9.00008" stroke="white" stroke-linecap="round" stroke-linejoin="round"/>
</mask>
<g mask="url(#mask0_1_18444)">
<path d="M-1 -1H19V19H-1V-1Z" fill="currentColor"/>
</g>
</svg>

