<svg width="145" height="114" viewBox="0 0 145 114" fill="none" xmlns="http://www.w3.org/2000/svg">
<path d="M102.919 81.4994C102.919 99.4244 88.4059 114 70.4189 114C52.494 114 37.9804 99.4244 37.9804 81.4994C37.9804 63.5745 52.494 49.0609 70.4189 49.0609C88.4059 49.0609 102.919 63.5745 102.919 81.4994Z" fill="#0085FF"/>
<path d="M86.4211 67.7922C86.8553 68.1644 80.7769 76.2895 72.8999 86.0272C71.2252 88.074 69.6126 90.0588 68.124 91.8575L67.4418 92.6018L66.7595 91.9195C60.5571 85.5311 56.3395 80.8172 56.6496 80.5071C56.9597 80.259 61.6736 84.4146 68.062 90.617L66.6975 90.679C68.124 88.8803 69.7367 86.8956 71.3493 84.7868C79.2884 75.111 86.049 67.4821 86.4211 67.7922Z" fill="white"/>
<path d="M116.565 68.4124C115.634 65.0011 111.169 65.3733 111.169 65.3733L111.293 67.7302C113.836 67.296 115.448 70.2732 115.448 70.2732L116.565 68.4124Z" fill="#0085FF"/>
<path d="M22.4744 75.6072C21.5441 72.1959 17.0783 72.506 17.0783 72.506L17.2024 74.8629C19.8074 74.4287 21.358 77.4059 21.358 77.4059L22.4744 75.6072Z" fill="#EAEDF3"/>
<path d="M74.3264 28.407C79.4744 29.9576 82.6377 24.0033 82.6377 24.0033L79.5365 22.2046C77.9859 25.864 72.8379 25.4298 72.8379 25.4298L74.3264 28.407Z" fill="#EAEDF3"/>
<path d="M45.7954 34.7954C43.3765 35.0435 43.0664 38.0207 43.0664 38.0207L44.679 38.2067C44.679 36.4701 46.9119 35.7258 46.9119 35.7258L45.7954 34.7954Z" fill="#0085FF"/>
<path d="M144.413 56.7519C144.786 54.395 141.933 53.3406 141.933 53.3406L141.374 54.8291C143.049 55.2633 143.235 57.5582 143.235 57.5582L144.413 56.7519Z" fill="#EAEDF3"/>
<path d="M59.7508 3.41132C60.0609 1.05441 57.2698 0 57.2698 0L56.6496 1.5506C58.3863 1.98477 58.5103 4.27965 58.5103 4.27965L59.7508 3.41132Z" fill="#0085FF"/>
<path d="M0.579956 41.8662C0.145788 45.5876 5.10772 46.4559 5.10772 46.4559L5.97605 44.037C3.06092 43.7889 2.62676 40.2535 2.62676 40.2535L0.579956 41.8662Z" fill="#0085FF"/>
<path d="M110.672 28.2829C113.091 28.469 113.898 25.5539 113.898 25.5539L112.347 25.0577C112.037 26.7943 109.742 27.1665 109.742 27.1665L110.672 28.2829Z" fill="#0085FF"/>
<path d="M123.822 38.0827C123.822 38.2067 122.953 38.2688 121.837 38.2688C120.72 38.2688 119.852 38.2067 119.852 38.0827C119.852 38.0207 120.72 37.8966 121.837 37.8966C122.953 37.8966 123.822 38.0207 123.822 38.0827Z" fill="#EAEDF3"/>
<path d="M125.93 32.6866C126.054 32.6866 126.116 33.617 126.116 34.7334C126.116 35.8498 126.054 36.7181 125.93 36.7181C125.806 36.7181 125.744 35.8498 125.744 34.7334C125.744 33.617 125.806 32.6866 125.93 32.6866Z" fill="#EAEDF3"/>
<path d="M128.163 37.9586C128.163 37.8966 129.094 37.7725 130.148 37.7725C131.264 37.7725 132.133 37.8966 132.133 37.9586C132.133 38.0826 131.264 38.1447 130.148 38.1447C129.094 38.1447 128.163 38.0826 128.163 37.9586Z" fill="#EAEDF3"/>
<path d="M126.054 43.3547C125.992 43.3547 125.868 42.4863 125.868 41.3699C125.868 40.2535 125.992 39.3231 126.054 39.3231C126.178 39.3231 126.24 40.2535 126.24 41.3699C126.24 42.4863 126.178 43.3547 126.054 43.3547Z" fill="#EAEDF3"/>
<path d="M129.28 41.0598C129.218 41.1218 128.845 40.8117 128.411 40.3155C128.039 39.8814 127.791 39.4472 127.853 39.3852C127.977 39.3231 128.349 39.6332 128.721 40.0674C129.094 40.5636 129.342 40.9978 129.28 41.0598Z" fill="#EAEDF3"/>
<path d="M129.094 34.9195C129.156 35.0435 128.907 35.4157 128.473 35.7878C128.101 36.222 127.729 36.4701 127.605 36.408C127.543 36.346 127.791 35.9739 128.225 35.5397C128.659 35.1055 129.032 34.8574 129.094 34.9195Z" fill="#EAEDF3"/>
<path d="M124.566 36.47C124.504 36.5941 124.132 36.408 123.698 36.0359C123.325 35.7257 123.077 35.4156 123.139 35.3536C123.201 35.2296 123.573 35.4776 123.946 35.7878C124.38 36.0979 124.628 36.408 124.566 36.47Z" fill="#EAEDF3"/>
<path d="M124.38 39.1991C124.442 39.2612 124.194 39.6333 123.822 40.0675C123.511 40.4396 123.139 40.7497 123.015 40.6257C122.953 40.5637 123.201 40.1915 123.573 39.8194C123.946 39.3852 124.318 39.1371 124.38 39.1991Z" fill="#EAEDF3"/>
<path d="M15.7758 27.0424C15.7758 27.1664 14.9075 27.2285 13.7911 27.2285C12.6746 27.2285 11.8063 27.1664 11.8063 27.0424C11.8063 26.9183 12.6746 26.8563 13.7911 26.8563C14.9075 26.8563 15.7758 26.9183 15.7758 27.0424Z" fill="#0085FF"/>
<path d="M17.8846 21.6464C18.0087 21.6464 18.0707 22.5767 18.0707 23.6931C18.0707 24.7476 18.0087 25.6779 17.8846 25.6779C17.7606 25.6779 17.6986 24.7476 17.6986 23.6931C17.6986 22.5767 17.7606 21.6464 17.8846 21.6464Z" fill="#0085FF"/>
<path d="M20.1175 26.9184C20.1175 26.7943 20.9858 26.7323 22.1023 26.7323C23.2187 26.7323 24.087 26.7943 24.087 26.9184C24.087 27.0424 23.2187 27.1044 22.1023 27.1044C20.9858 27.1044 20.1175 27.0424 20.1175 26.9184Z" fill="#0085FF"/>
<path d="M18.0087 32.3145C17.8846 32.3145 17.8226 31.3841 17.8226 30.3297C17.8226 29.2133 17.8846 28.2829 18.0087 28.2829C18.1327 28.2829 18.1947 29.2133 18.1947 30.3297C18.1947 31.3841 18.1327 32.3145 18.0087 32.3145Z" fill="#0085FF"/>
<path d="M21.2339 30.0196C21.1099 30.0816 20.7377 29.7715 20.3656 29.2753C19.9934 28.8411 19.7453 28.407 19.8074 28.2829C19.8694 28.2209 20.2415 28.593 20.6757 29.0272C21.0478 29.5234 21.296 29.9576 21.2339 30.0196Z" fill="#0085FF"/>
<path d="M21.0479 23.8792C21.1099 23.9412 20.8618 24.3754 20.4276 24.7475C20.0555 25.1817 19.6213 25.4298 19.5593 25.3678C19.4973 25.3057 19.7454 24.8716 20.1795 24.4994C20.5517 24.0653 20.9858 23.8172 21.0479 23.8792Z" fill="#0085FF"/>
<path d="M16.4581 25.4299C16.3961 25.4919 16.0239 25.3058 15.6518 24.9957C15.2796 24.6856 15.0315 24.3754 15.0935 24.2514C15.1556 24.1894 15.5277 24.3754 15.8999 24.6856C16.272 25.0577 16.5821 25.3678 16.4581 25.4299Z" fill="#0085FF"/>
<path d="M16.334 28.1589C16.396 28.2209 16.148 28.593 15.7758 29.0272C15.4037 29.3994 15.0315 29.6475 14.9695 29.5854C14.9075 29.5234 15.1556 29.1513 15.5277 28.7171C15.8378 28.345 16.21 28.0348 16.334 28.1589Z" fill="#0085FF"/>
</svg>
