<svg viewBox="0 0 13 13" fill="none" xmlns="http://www.w3.org/2000/svg">
<path d="M5.6875 4.4375L7.3125 6.0625C7.4375 6.1875 7.5 6.33333 7.5 6.5C7.5 6.66666 7.4375 6.8125 7.3125 6.9375L5.6875 8.5625C5.57291 8.67708 5.42958 8.73687 5.2575 8.74187C5.08541 8.74687 4.93708 8.68708 4.8125 8.5625C4.69791 8.44791 4.64062 8.30208 4.64062 8.125C4.64062 7.94791 4.69791 7.80208 4.8125 7.6875L5.35937 7.125L1.5 7.125C1.32291 7.125 1.17437 7.065 1.05437 6.945C0.934373 6.825 0.874582 6.67666 0.874999 6.5C0.874999 6.32291 0.934998 6.17437 1.055 6.05437C1.175 5.93437 1.32333 5.87458 1.5 5.875L5.35937 5.875L4.79687 5.3125C4.68229 5.19791 4.625 5.05458 4.625 4.8825C4.625 4.71041 4.6875 4.56208 4.8125 4.4375C4.92708 4.32291 5.07291 4.26562 5.25 4.26562C5.42708 4.26562 5.57291 4.32291 5.6875 4.4375ZM11.5 0.874998C11.6771 0.874998 11.8256 0.934998 11.9456 1.055C12.0656 1.175 12.1254 1.32333 12.125 1.5L12.125 11.5C12.125 11.6771 12.065 11.8256 11.945 11.9456C11.825 12.0656 11.6767 12.1254 11.5 12.125C11.3229 12.125 11.1744 12.065 11.0544 11.945C10.9344 11.825 10.8746 11.6767 10.875 11.5L10.875 1.5C10.875 1.32291 10.935 1.17437 11.055 1.05437C11.175 0.934373 11.3233 0.874581 11.5 0.874998ZM9.625 0.874998L9.625 2.125L8.375 2.125L8.375 0.874998L9.625 0.874998ZM9.625 10.875L9.625 12.125L8.375 12.125L8.375 10.875L9.625 10.875ZM7.125 0.874998L7.125 2.125L5.875 2.125L5.875 0.874998L7.125 0.874998ZM7.125 10.875L7.125 12.125L5.875 12.125L5.875 10.875L7.125 10.875ZM4.625 0.874997L4.625 2.125L3.375 2.125L3.375 0.874997L4.625 0.874997ZM4.625 10.875L4.625 12.125L3.375 12.125L3.375 10.875L4.625 10.875ZM2.125 10.875L2.125 12.125C1.78125 12.125 1.48687 12.0025 1.24187 11.7575C0.996873 11.5125 0.874581 11.2183 0.874998 10.875L2.125 10.875ZM2.125 0.874997L2.125 2.125L0.874999 2.125C0.874999 1.78125 0.997498 1.48687 1.2425 1.24187C1.4875 0.996872 1.78166 0.87458 2.125 0.874997Z" fill="currentColor"/>
</svg>
