<svg viewBox="0 0 18 16" fill="none" xmlns="http://www.w3.org/2000/svg">
<path d="M3.05918 1.33325C2.03036 3.4048 1.49662 5.68696 1.50002 7.99992C1.50002 10.3949 2.06085 12.6583 3.05918 14.6666M14.8342 14.6666C15.8627 12.595 16.3962 10.3128 16.3925 7.99992C16.3925 5.60492 15.8317 3.34159 14.8342 1.33325M6.50002 5.49992H7.53835C7.71934 5.5 7.89538 5.559 8.03986 5.668C8.18434 5.777 8.28941 5.93008 8.33918 6.10409L9.66085 10.7291C9.71062 10.9031 9.81569 11.0562 9.96017 11.1652C10.1047 11.2742 10.2807 11.3332 10.4617 11.3333H11.5M12.3333 5.49992H12.2667C12.0262 5.49982 11.7886 5.55175 11.5701 5.65215C11.3516 5.75256 11.1574 5.89905 11.0008 6.08159L7.00002 10.7516C6.84338 10.9342 6.64906 11.0808 6.43041 11.1812C6.21176 11.2816 5.97395 11.3335 5.73335 11.3333H5.66668" stroke="currentColor" stroke-width="2" stroke-linecap="round" stroke-linejoin="round"/>
</svg>
