<svg width="30" height="30" viewBox="0 0 30 30" fill="none" xmlns="http://www.w3.org/2000/svg">
<circle cx="15" cy="15" r="15" fill="#278AFF"/>
<path fill-rule="evenodd" clip-rule="evenodd" d="M12.5684 22.8505C12.7469 22.4299 12.5505 21.9443 12.1299 21.7659C10.1661 20.9329 8.63543 19.2661 7.99747 17.219C7.86155 16.7828 7.39776 16.5394 6.96158 16.6753C6.52541 16.8112 6.282 17.275 6.41793 17.7112C7.20284 20.2299 9.07981 22.2693 11.4839 23.289C11.9045 23.4674 12.39 23.2711 12.5684 22.8505Z" fill="white"/>
<path fill-rule="evenodd" clip-rule="evenodd" d="M7.15877 12.5324C7.57769 12.7147 8.06507 12.5229 8.24735 12.104C9.09698 10.1513 10.7498 8.63556 12.7973 7.99748C13.2335 7.86156 13.4769 7.39778 13.341 6.9616C13.205 6.52542 12.7413 6.28202 12.3051 6.41794C9.78672 7.20274 7.76671 9.0619 6.73028 11.4439C6.548 11.8628 6.73984 12.3502 7.15877 12.5324Z" fill="white"/>
<path d="M14.9998 13.7592C15.6851 13.7592 16.2408 14.3149 16.2408 15.0001C16.2408 15.6854 15.6851 16.2408 14.9998 16.2408C14.3146 16.2408 13.7589 15.6854 13.7589 15.0001C13.7589 14.3149 14.3146 13.7592 14.9998 13.7592Z" fill="white"/>
<path fill-rule="evenodd" clip-rule="evenodd" d="M15.0535 19.1195C15.2821 19.1193 15.5177 19.0984 15.7409 19.0539C16.189 18.9644 16.4797 18.5287 16.3902 18.0807C16.3008 17.6327 15.8651 17.342 15.417 17.4314C15.311 17.4526 15.1835 17.465 15.0495 17.465L15.0416 17.4651C13.7462 17.4775 12.6254 16.4315 12.5502 15.1368C12.4769 13.7098 13.6036 12.535 15.0165 12.535C15.9063 12.535 16.6113 12.9095 17.1108 13.7012C17.1119 13.703 17.1125 13.704 17.1136 13.7058C17.3779 14.1268 17.4486 14.4897 17.4486 14.9337V18.011C17.4486 18.4679 17.8189 18.8383 18.2758 18.8383C18.7327 18.8383 19.103 18.4679 19.103 18.011V14.9337C19.103 14.2209 18.921 13.4679 18.5124 12.8223C17.791 11.6693 16.5083 10.8805 15.0165 10.8805C12.658 10.8805 10.7741 12.8481 10.8981 15.2251L10.8984 15.2292C11.0228 17.4064 12.877 19.1383 15.0535 19.1195Z" fill="white"/>
<path fill-rule="evenodd" clip-rule="evenodd" d="M16.6603 23.0603C16.7991 23.4955 17.2645 23.7359 17.6998 23.5971C20.2135 22.7954 22.2327 20.9386 23.2693 18.5561C23.4516 18.1372 23.2598 17.6498 22.8409 17.4676C22.4219 17.2853 21.9346 17.4771 21.7523 17.896C20.9029 19.8482 19.2492 21.3663 17.1971 22.0208C16.7618 22.1596 16.5215 22.625 16.6603 23.0603Z" fill="white"/>
<path fill-rule="evenodd" clip-rule="evenodd" d="M23.0383 13.3411C23.4745 13.2051 23.7179 12.7414 23.582 12.3052C22.7982 9.79014 20.9404 7.74951 18.5511 6.72826C18.131 6.5487 17.6449 6.74369 17.4653 7.16379C17.2858 7.58389 17.4808 8.07001 17.9009 8.24958C19.8462 9.08108 21.3633 10.7466 22.0024 12.7974C22.1384 13.2336 22.6021 13.477 23.0383 13.3411Z" fill="white"/>
<path d="M14.9998 5.99999C15.4568 5.99999 15.8269 6.37042 15.8269 6.82707C15.8269 7.28402 15.4568 7.65445 14.9998 7.65445C14.5429 7.65445 14.1727 7.28402 14.1727 6.82707C14.1727 6.37042 14.5429 5.99999 14.9998 5.99999Z" fill="white"/>
<path d="M6.82708 14.1728C7.28403 14.1728 7.65416 14.5432 7.65416 14.9999C7.65416 15.4568 7.28403 15.8272 6.82708 15.8272C6.37014 15.8272 6 15.4568 6 14.9999C6 14.5432 6.37014 14.1728 6.82708 14.1728Z" fill="white"/>
<path d="M23.1727 14.1728C23.6296 14.1728 23.9997 14.5432 23.9997 14.9999C23.9997 15.4568 23.6296 15.8272 23.1727 15.8272C22.7157 15.8272 22.3456 15.4568 22.3456 14.9999C22.3456 14.5432 22.7157 14.1728 23.1727 14.1728Z" fill="white"/>
<path d="M14.9998 22.3456C15.4568 22.3456 15.8269 22.716 15.8269 23.1727C15.8269 23.6296 15.4568 24 14.9998 24C14.5429 24 14.1727 23.6296 14.1727 23.1727C14.1727 22.716 14.5429 22.3456 14.9998 22.3456Z" fill="white"/>
</svg>
