<svg viewBox="0 0 131 131" fill="none" xmlns="http://www.w3.org/2000/svg">
<g clip-path="url(#clip0_6681_51809)">
<path fill-rule="evenodd" clip-rule="evenodd" d="M3.61764 9.05924C3.61764 6.0528 6.05484 3.6156 9.06129 3.6156H35.7351C38.7416 3.6156 41.1788 6.0528 41.1788 9.05924V35.7331C41.1788 38.7395 38.7416 41.1767 35.7351 41.1767H9.06129C6.05484 41.1767 3.61764 38.7395 3.61764 35.7331V9.05924ZM46.6219 9.05927C46.6219 6.05283 49.0591 3.61563 52.0655 3.61563H78.7394C81.7458 3.61563 84.183 6.05283 84.183 9.05927V35.7331C84.183 38.7396 81.7458 41.1768 78.7394 41.1768H52.0655C49.0591 41.1768 46.6219 38.7396 46.6219 35.7331V9.05927ZM95.0708 3.61563C92.0643 3.61563 89.6271 6.05283 89.6271 9.05927V35.7331C89.6271 38.7396 92.0643 41.1768 95.0708 41.1768H121.745C124.751 41.1768 127.188 38.7396 127.188 35.7331V9.05927C127.188 6.05283 124.751 3.61563 121.745 3.61563H95.0708ZM46.6219 52.064C46.6219 49.0576 49.0591 46.6204 52.0655 46.6204H78.7394C81.7458 46.6204 84.183 49.0576 84.183 52.064V78.7379C84.183 81.7443 81.7458 84.1815 78.7394 84.1815H52.0655C49.0591 84.1815 46.6219 81.7443 46.6219 78.7379V52.064ZM95.0708 46.6204C92.0643 46.6204 89.6271 49.0576 89.6271 52.064V78.7379C89.6271 81.7443 92.0643 84.1815 95.0708 84.1815H121.745C124.751 84.1815 127.188 81.7443 127.188 78.7379V52.064C127.188 49.0576 124.751 46.6204 121.745 46.6204H95.0708ZM3.61761 95.0689C3.61761 92.0625 6.05482 89.6253 9.06126 89.6253H35.7351C38.7416 89.6253 41.1788 92.0625 41.1788 95.0689V121.743C41.1788 124.749 38.7416 127.186 35.7351 127.186H9.06126C6.05482 127.186 3.61761 124.749 3.61761 121.743V95.0689ZM52.0655 89.6253C49.0591 89.6253 46.6219 92.0625 46.6219 95.0689V121.743C46.6219 124.749 49.0591 127.186 52.0655 127.186H78.7394C81.7458 127.186 84.183 124.749 84.183 121.743V95.0689C84.183 92.0625 81.7458 89.6253 78.7394 89.6253H52.0655Z" fill="url(#paint0_linear_6681_51809)"/>
<path fill-rule="evenodd" clip-rule="evenodd" d="M0.907242 11.7698C0.907242 8.76331 3.34444 6.32611 6.35089 6.32611H33.0247C36.0312 6.32611 38.4684 8.76331 38.4684 11.7698V38.4436C38.4684 41.4501 36.0312 43.8873 33.0247 43.8873H6.35088C3.34444 43.8873 0.907242 41.4501 0.907242 38.4436V11.7698ZM43.9115 11.7698C43.9115 8.76333 46.3487 6.32613 49.3552 6.32613H76.029C79.0355 6.32613 81.4727 8.76333 81.4727 11.7698V38.4436C81.4727 41.4501 79.0355 43.8873 76.029 43.8873H49.3552C46.3487 43.8873 43.9115 41.4501 43.9115 38.4436V11.7698ZM92.3604 6.32613C89.354 6.32613 86.9168 8.76333 86.9168 11.7698V38.4436C86.9168 41.4501 89.354 43.8873 92.3604 43.8873H119.034C122.041 43.8873 124.478 41.4501 124.478 38.4436V11.7698C124.478 8.76333 122.041 6.32613 119.034 6.32613H92.3604ZM43.9115 54.7745C43.9115 51.7681 46.3487 49.3309 49.3552 49.3309H76.029C79.0355 49.3309 81.4727 51.7681 81.4727 54.7745V81.4484C81.4727 84.4548 79.0355 86.892 76.029 86.892H49.3552C46.3487 86.892 43.9115 84.4548 43.9115 81.4484V54.7745ZM92.3604 49.3309C89.354 49.3309 86.9168 51.7681 86.9168 54.7745V81.4484C86.9168 84.4548 89.354 86.892 92.3604 86.892H119.034C122.041 86.892 124.478 84.4548 124.478 81.4484V54.7745C124.478 51.7681 122.041 49.3309 119.034 49.3309H92.3604ZM0.907289 97.7794C0.907289 94.773 3.34449 92.3358 6.35093 92.3358H33.0248C36.0312 92.3358 38.4684 94.773 38.4684 97.7794V124.453C38.4684 127.46 36.0312 129.897 33.0248 129.897H6.35093C3.34449 129.897 0.907289 127.46 0.907289 124.453V97.7794ZM49.3552 92.3358C46.3487 92.3358 43.9115 94.773 43.9115 97.7794V124.453C43.9115 127.46 46.3487 129.897 49.3552 129.897H76.029C79.0355 129.897 81.4727 127.46 81.4727 124.453V97.7794C81.4727 94.773 79.0355 92.3358 76.029 92.3358H49.3552Z" fill="url(#paint1_linear_6681_51809)"/>
</g>
<defs>
<linearGradient id="paint0_linear_6681_51809" x1="-4.61639" y1="-16.5911" x2="84.8295" y2="144.005" gradientUnits="userSpaceOnUse">
<stop stop-color="#3261FF"/>
<stop offset="1" stop-color="#3261FF" stop-opacity="0"/>
</linearGradient>
<linearGradient id="paint1_linear_6681_51809" x1="21.1333" y1="5.77041" x2="107.191" y2="130.453" gradientUnits="userSpaceOnUse">
<stop stop-color="#3261FF"/>
<stop offset="1" stop-color="#7A99FF"/>
</linearGradient>
<clipPath id="clip0_6681_51809">
<rect width="130" height="130" fill="white" transform="translate(0.351044 0.349487)"/>
</clipPath>
</defs>
</svg>
