<svg viewBox="0 0 371 328" fill="none" xmlns="http://www.w3.org/2000/svg">
<g filter="url(#filter0_diii_6681_51662)">
<circle cx="269.323" cy="66.5823" r="17" fill="#3261FF"/>
<circle cx="269.323" cy="66.5823" r="17" fill="url(#paint0_radial_6681_51662)"/>
</g>
<g opacity="0.8" filter="url(#filter1_diii_6681_51662)">
<circle cx="202.207" cy="143.5" r="108.082" fill="#3261FF"/>
<circle cx="202.207" cy="143.5" r="108.082" fill="url(#paint1_radial_6681_51662)"/>
</g>
<g filter="url(#filter2_diii_6681_51662)">
<circle cx="127.247" cy="223.082" r="28.5" fill="#3261FF"/>
<circle cx="127.247" cy="223.082" r="28.5" fill="url(#paint2_radial_6681_51662)"/>
</g>
<g filter="url(#filter3_diii_6681_51662)">
<circle cx="95.2002" cy="194.082" r="25.5" fill="#3261FF"/>
<circle cx="95.2002" cy="194.082" r="25.5" fill="url(#paint3_radial_6681_51662)"/>
</g>
<g filter="url(#filter4_diii_6681_51662)">
<circle cx="128.454" cy="156.582" r="17" fill="#3261FF"/>
<circle cx="128.454" cy="156.582" r="17" fill="url(#paint4_radial_6681_51662)"/>
</g>
<g filter="url(#filter5_diii_6681_51662)">
<circle cx="72.9058" cy="96.0823" r="12.5" fill="#3261FF"/>
<circle cx="72.9058" cy="96.0823" r="12.5" fill="url(#paint5_radial_6681_51662)"/>
</g>
<g filter="url(#filter6_diii_6681_51662)">
<circle cx="103.7" cy="58.5823" r="8" fill="#3261FF"/>
<circle cx="103.7" cy="58.5823" r="8" fill="url(#paint6_radial_6681_51662)"/>
</g>
<g filter="url(#filter7_diii_6681_51662)">
<circle cx="284.594" cy="121.582" r="8" fill="#3261FF"/>
<circle cx="284.594" cy="121.582" r="8" fill="url(#paint7_radial_6681_51662)"/>
</g>
<g filter="url(#filter8_diii_6681_51662)">
<circle cx="305.594" cy="91.5823" r="5" fill="#3261FF"/>
<circle cx="305.594" cy="91.5823" r="5" fill="url(#paint8_radial_6681_51662)"/>
</g>
<g filter="url(#filter9_diii_6681_51662)">
<circle cx="284.454" cy="211.082" r="25.5" fill="#3261FF"/>
<circle cx="284.454" cy="211.082" r="25.5" fill="url(#paint9_radial_6681_51662)"/>
</g>
<path fill-rule="evenodd" clip-rule="evenodd" d="M190.018 118.814L189.754 118.551C188.668 117.465 188.8 115.654 190.018 114.667C196.206 109.663 203.546 107.063 211.183 107.063C218.787 107.063 226.127 109.4 232.315 114.568C233.566 115.588 233.698 117.498 232.546 118.65C231.525 119.67 229.88 119.835 228.793 118.913C223.724 114.733 217.338 112.659 211.183 112.659C205.028 112.659 198.609 114.765 193.573 118.913C192.519 119.769 191.005 119.802 190.018 118.814ZM209.031 130.135C214.528 128.687 219.498 132.802 219.498 138.068C219.498 140.57 218.379 142.742 216.634 144.257L226.378 173.454C226.52 173.846 226.582 174.262 226.56 174.679C226.539 175.095 226.434 175.503 226.253 175.879C226.071 176.254 225.816 176.589 225.503 176.864C225.189 177.14 224.824 177.349 224.429 177.481C224.033 177.613 223.615 177.664 223.199 177.632C222.783 177.6 222.378 177.485 222.008 177.293C221.637 177.102 221.309 176.839 221.042 176.518C220.775 176.198 220.574 175.828 220.453 175.429L218.972 170.985H203.599L202.118 175.429C201.69 176.712 200.505 177.568 199.156 177.568C197.016 177.568 195.502 175.495 196.193 173.454L205.937 144.257C203.632 142.282 202.382 139.056 203.435 135.567C204.225 132.933 206.397 130.827 209.031 130.135ZM211.269 147.943L205.772 164.402H216.766L211.269 147.943ZM224.58 126.583C225.765 125.398 225.634 123.456 224.284 122.435C220.4 119.473 215.791 117.926 211.183 117.926C206.542 118.189 201.868 119.605 197.984 122.534C197.682 122.758 197.433 123.045 197.252 123.374C197.071 123.703 196.963 124.067 196.935 124.442C196.907 124.816 196.959 125.192 197.089 125.545C197.219 125.897 197.423 126.217 197.687 126.484L197.951 126.747C198.839 127.636 200.288 127.801 201.275 127.011C204.304 124.707 207.859 123.522 211.183 123.522C214.705 123.522 218.194 124.641 220.992 126.846C222.046 127.702 223.593 127.57 224.58 126.583ZM177.165 156.36C178.957 154.577 181.386 153.574 183.919 153.571C186.453 153.574 188.882 154.577 190.674 156.36C192.465 158.144 193.473 160.561 193.476 163.083C193.476 171.221 184.788 177.371 184.419 177.631C184.271 177.729 184.097 177.781 183.919 177.781C183.742 177.781 183.568 177.729 183.42 177.631C183.051 177.371 174.363 171.221 174.363 163.083C174.366 160.561 175.374 158.144 177.165 156.36ZM185.85 160.207C185.279 159.827 184.607 159.624 183.919 159.624C182.998 159.624 182.114 159.988 181.462 160.637C180.811 161.286 180.444 162.165 180.444 163.083C180.444 163.767 180.648 164.436 181.03 165.004C181.412 165.573 181.955 166.016 182.59 166.278C183.225 166.54 183.923 166.608 184.597 166.475C185.272 166.342 185.891 166.012 186.377 165.528C186.863 165.045 187.194 164.428 187.328 163.758C187.462 163.087 187.393 162.391 187.13 161.759C186.867 161.127 186.422 160.587 185.85 160.207Z" fill="url(#paint10_linear_6681_51662)"/>
<path fill-rule="evenodd" clip-rule="evenodd" d="M188.372 121.283L188.109 121.02C187.022 119.933 187.154 118.123 188.372 117.135C194.56 112.132 201.901 109.532 209.537 109.532C217.141 109.532 224.482 111.869 230.67 117.037C231.921 118.057 232.052 119.966 230.9 121.118C229.88 122.139 228.234 122.303 227.148 121.382C222.079 117.201 215.693 115.128 209.537 115.128C203.382 115.128 196.963 117.234 191.927 121.382C190.874 122.238 189.359 122.27 188.372 121.283ZM207.385 132.604C212.882 131.156 217.853 135.27 217.853 140.537C217.853 143.039 216.733 145.211 214.989 146.725L224.732 175.922C224.874 176.315 224.936 176.731 224.915 177.148C224.893 177.564 224.789 177.972 224.607 178.347C224.425 178.723 224.17 179.058 223.857 179.333C223.544 179.608 223.179 179.818 222.783 179.95C222.387 180.082 221.969 180.133 221.554 180.101C221.138 180.069 220.733 179.954 220.362 179.762C219.992 179.571 219.663 179.307 219.396 178.987C219.129 178.667 218.929 178.296 218.807 177.897L217.326 173.454H201.954L200.473 177.897C200.045 179.181 198.86 180.037 197.51 180.037C195.37 180.037 193.856 177.963 194.548 175.922L204.291 146.725C201.987 144.75 200.736 141.525 201.789 138.035C202.579 135.402 204.752 133.295 207.385 132.604ZM209.623 150.412L204.126 166.87H215.12L209.623 150.412ZM222.935 129.052C224.12 127.867 223.988 125.925 222.638 124.904C218.754 121.942 214.146 120.395 209.538 120.395C204.896 120.658 200.222 122.073 196.338 125.003C196.037 125.227 195.787 125.514 195.606 125.843C195.426 126.172 195.317 126.536 195.289 126.91C195.261 127.285 195.314 127.661 195.444 128.013C195.573 128.366 195.777 128.686 196.042 128.953L196.305 129.216C197.194 130.105 198.642 130.27 199.63 129.48C202.658 127.175 206.213 125.99 209.538 125.99C213.06 125.99 216.549 127.11 219.347 129.315C220.4 130.171 221.947 130.039 222.935 129.052ZM175.52 158.829C177.311 157.046 179.74 156.043 182.274 156.04C184.807 156.043 187.236 157.046 189.028 158.829C190.82 160.612 191.827 163.03 191.83 165.552C191.83 173.69 183.143 179.84 182.773 180.1C182.625 180.198 182.452 180.25 182.274 180.25C182.096 180.25 181.922 180.198 181.774 180.1C181.405 179.84 172.717 173.69 172.717 165.552C172.72 163.03 173.728 160.612 175.52 158.829ZM184.204 162.676C183.633 162.296 182.961 162.093 182.274 162.093C181.352 162.093 180.468 162.457 179.817 163.106C179.165 163.755 178.799 164.634 178.799 165.552C178.799 166.236 179.003 166.904 179.384 167.473C179.766 168.042 180.309 168.485 180.944 168.747C181.579 169.009 182.278 169.077 182.952 168.944C183.626 168.81 184.245 168.481 184.731 167.997C185.217 167.513 185.548 166.897 185.682 166.226C185.816 165.555 185.747 164.86 185.484 164.228C185.221 163.596 184.776 163.056 184.204 162.676Z" fill="url(#paint11_linear_6681_51662)"/>
<defs>
<filter id="filter0_diii_6681_51662" x="192.323" y="-27.6193" width="154" height="186.642" filterUnits="userSpaceOnUse" color-interpolation-filters="sRGB">
<feFlood flood-opacity="0" result="BackgroundImageFix"/>
<feColorMatrix in="SourceAlpha" type="matrix" values="0 0 0 0 0 0 0 0 0 0 0 0 0 0 0 0 0 0 127 0" result="hardAlpha"/>
<feOffset dy="15.4403"/>
<feGaussianBlur stdDeviation="30"/>
<feColorMatrix type="matrix" values="0 0 0 0 0.196078 0 0 0 0 0.380392 0 0 0 0 1 0 0 0 0.2 0"/>
<feBlend mode="normal" in2="BackgroundImageFix" result="effect1_dropShadow_6681_51662"/>
<feBlend mode="normal" in="SourceGraphic" in2="effect1_dropShadow_6681_51662" result="shape"/>
<feColorMatrix in="SourceAlpha" type="matrix" values="0 0 0 0 0 0 0 0 0 0 0 0 0 0 0 0 0 0 127 0" result="hardAlpha"/>
<feOffset dx="7.72016" dy="57.9012"/>
<feGaussianBlur stdDeviation="57.9012"/>
<feComposite in2="hardAlpha" operator="arithmetic" k2="-1" k3="1"/>
<feColorMatrix type="matrix" values="0 0 0 0 0.196078 0 0 0 0 0.380392 0 0 0 0 1 0 0 0 1 0"/>
<feBlend mode="normal" in2="shape" result="effect2_innerShadow_6681_51662"/>
<feColorMatrix in="SourceAlpha" type="matrix" values="0 0 0 0 0 0 0 0 0 0 0 0 0 0 0 0 0 0 127 0" result="hardAlpha"/>
<feOffset dy="-77.2016"/>
<feGaussianBlur stdDeviation="96.502"/>
<feComposite in2="hardAlpha" operator="arithmetic" k2="-1" k3="1"/>
<feColorMatrix type="matrix" values="0 0 0 0 1 0 0 0 0 1 0 0 0 0 1 0 0 0 0.53 0"/>
<feBlend mode="normal" in2="effect2_innerShadow_6681_51662" result="effect3_innerShadow_6681_51662"/>
<feColorMatrix in="SourceAlpha" type="matrix" values="0 0 0 0 0 0 0 0 0 0 0 0 0 0 0 0 0 0 127 0" result="hardAlpha"/>
<feOffset dy="7.72016"/>
<feGaussianBlur stdDeviation="19.3004"/>
<feComposite in2="hardAlpha" operator="arithmetic" k2="-1" k3="1"/>
<feColorMatrix type="matrix" values="0 0 0 0 1 0 0 0 0 1 0 0 0 0 1 0 0 0 0.58 0"/>
<feBlend mode="normal" in2="effect3_innerShadow_6681_51662" result="effect4_innerShadow_6681_51662"/>
</filter>
<filter id="filter1_diii_6681_51662" x="44.125" y="-41.7839" width="316.165" height="358.806" filterUnits="userSpaceOnUse" color-interpolation-filters="sRGB">
<feFlood flood-opacity="0" result="BackgroundImageFix"/>
<feColorMatrix in="SourceAlpha" type="matrix" values="0 0 0 0 0 0 0 0 0 0 0 0 0 0 0 0 0 0 127 0" result="hardAlpha"/>
<feOffset dy="15.4403"/>
<feGaussianBlur stdDeviation="25"/>
<feColorMatrix type="matrix" values="0 0 0 0 0.196078 0 0 0 0 0.380392 0 0 0 0 1 0 0 0 0.3 0"/>
<feBlend mode="normal" in2="BackgroundImageFix" result="effect1_dropShadow_6681_51662"/>
<feBlend mode="normal" in="SourceGraphic" in2="effect1_dropShadow_6681_51662" result="shape"/>
<feColorMatrix in="SourceAlpha" type="matrix" values="0 0 0 0 0 0 0 0 0 0 0 0 0 0 0 0 0 0 127 0" result="hardAlpha"/>
<feOffset dx="7.72016" dy="57.9012"/>
<feGaussianBlur stdDeviation="57.9012"/>
<feComposite in2="hardAlpha" operator="arithmetic" k2="-1" k3="1"/>
<feColorMatrix type="matrix" values="0 0 0 0 0.196078 0 0 0 0 0.380392 0 0 0 0 1 0 0 0 1 0"/>
<feBlend mode="normal" in2="shape" result="effect2_innerShadow_6681_51662"/>
<feColorMatrix in="SourceAlpha" type="matrix" values="0 0 0 0 0 0 0 0 0 0 0 0 0 0 0 0 0 0 127 0" result="hardAlpha"/>
<feOffset dy="-77.2016"/>
<feGaussianBlur stdDeviation="96.502"/>
<feComposite in2="hardAlpha" operator="arithmetic" k2="-1" k3="1"/>
<feColorMatrix type="matrix" values="0 0 0 0 1 0 0 0 0 1 0 0 0 0 1 0 0 0 0.53 0"/>
<feBlend mode="normal" in2="effect2_innerShadow_6681_51662" result="effect3_innerShadow_6681_51662"/>
<feColorMatrix in="SourceAlpha" type="matrix" values="0 0 0 0 0 0 0 0 0 0 0 0 0 0 0 0 0 0 127 0" result="hardAlpha"/>
<feOffset dy="7.72016"/>
<feGaussianBlur stdDeviation="19.3004"/>
<feComposite in2="hardAlpha" operator="arithmetic" k2="-1" k3="1"/>
<feColorMatrix type="matrix" values="0 0 0 0 1 0 0 0 0 1 0 0 0 0 1 0 0 0 0.58 0"/>
<feBlend mode="normal" in2="effect3_innerShadow_6681_51662" result="effect4_innerShadow_6681_51662"/>
</filter>
<filter id="filter2_diii_6681_51662" x="38.7466" y="117.381" width="177" height="209.642" filterUnits="userSpaceOnUse" color-interpolation-filters="sRGB">
<feFlood flood-opacity="0" result="BackgroundImageFix"/>
<feColorMatrix in="SourceAlpha" type="matrix" values="0 0 0 0 0 0 0 0 0 0 0 0 0 0 0 0 0 0 127 0" result="hardAlpha"/>
<feOffset dy="15.4403"/>
<feGaussianBlur stdDeviation="30"/>
<feColorMatrix type="matrix" values="0 0 0 0 0.196078 0 0 0 0 0.380392 0 0 0 0 1 0 0 0 0.2 0"/>
<feBlend mode="normal" in2="BackgroundImageFix" result="effect1_dropShadow_6681_51662"/>
<feBlend mode="normal" in="SourceGraphic" in2="effect1_dropShadow_6681_51662" result="shape"/>
<feColorMatrix in="SourceAlpha" type="matrix" values="0 0 0 0 0 0 0 0 0 0 0 0 0 0 0 0 0 0 127 0" result="hardAlpha"/>
<feOffset dx="7.72016" dy="57.9012"/>
<feGaussianBlur stdDeviation="57.9012"/>
<feComposite in2="hardAlpha" operator="arithmetic" k2="-1" k3="1"/>
<feColorMatrix type="matrix" values="0 0 0 0 0.196078 0 0 0 0 0.380392 0 0 0 0 1 0 0 0 1 0"/>
<feBlend mode="normal" in2="shape" result="effect2_innerShadow_6681_51662"/>
<feColorMatrix in="SourceAlpha" type="matrix" values="0 0 0 0 0 0 0 0 0 0 0 0 0 0 0 0 0 0 127 0" result="hardAlpha"/>
<feOffset dy="-77.2016"/>
<feGaussianBlur stdDeviation="96.502"/>
<feComposite in2="hardAlpha" operator="arithmetic" k2="-1" k3="1"/>
<feColorMatrix type="matrix" values="0 0 0 0 1 0 0 0 0 1 0 0 0 0 1 0 0 0 0.53 0"/>
<feBlend mode="normal" in2="effect2_innerShadow_6681_51662" result="effect3_innerShadow_6681_51662"/>
<feColorMatrix in="SourceAlpha" type="matrix" values="0 0 0 0 0 0 0 0 0 0 0 0 0 0 0 0 0 0 127 0" result="hardAlpha"/>
<feOffset dy="7.72016"/>
<feGaussianBlur stdDeviation="19.3004"/>
<feComposite in2="hardAlpha" operator="arithmetic" k2="-1" k3="1"/>
<feColorMatrix type="matrix" values="0 0 0 0 1 0 0 0 0 1 0 0 0 0 1 0 0 0 0.58 0"/>
<feBlend mode="normal" in2="effect3_innerShadow_6681_51662" result="effect4_innerShadow_6681_51662"/>
</filter>
<filter id="filter3_diii_6681_51662" x="9.7002" y="91.3807" width="171" height="203.642" filterUnits="userSpaceOnUse" color-interpolation-filters="sRGB">
<feFlood flood-opacity="0" result="BackgroundImageFix"/>
<feColorMatrix in="SourceAlpha" type="matrix" values="0 0 0 0 0 0 0 0 0 0 0 0 0 0 0 0 0 0 127 0" result="hardAlpha"/>
<feOffset dy="15.4403"/>
<feGaussianBlur stdDeviation="30"/>
<feColorMatrix type="matrix" values="0 0 0 0 0.196078 0 0 0 0 0.380392 0 0 0 0 1 0 0 0 0.2 0"/>
<feBlend mode="normal" in2="BackgroundImageFix" result="effect1_dropShadow_6681_51662"/>
<feBlend mode="normal" in="SourceGraphic" in2="effect1_dropShadow_6681_51662" result="shape"/>
<feColorMatrix in="SourceAlpha" type="matrix" values="0 0 0 0 0 0 0 0 0 0 0 0 0 0 0 0 0 0 127 0" result="hardAlpha"/>
<feOffset dx="7.72016" dy="57.9012"/>
<feGaussianBlur stdDeviation="57.9012"/>
<feComposite in2="hardAlpha" operator="arithmetic" k2="-1" k3="1"/>
<feColorMatrix type="matrix" values="0 0 0 0 0.196078 0 0 0 0 0.380392 0 0 0 0 1 0 0 0 1 0"/>
<feBlend mode="normal" in2="shape" result="effect2_innerShadow_6681_51662"/>
<feColorMatrix in="SourceAlpha" type="matrix" values="0 0 0 0 0 0 0 0 0 0 0 0 0 0 0 0 0 0 127 0" result="hardAlpha"/>
<feOffset dy="-77.2016"/>
<feGaussianBlur stdDeviation="96.502"/>
<feComposite in2="hardAlpha" operator="arithmetic" k2="-1" k3="1"/>
<feColorMatrix type="matrix" values="0 0 0 0 1 0 0 0 0 1 0 0 0 0 1 0 0 0 0.53 0"/>
<feBlend mode="normal" in2="effect2_innerShadow_6681_51662" result="effect3_innerShadow_6681_51662"/>
<feColorMatrix in="SourceAlpha" type="matrix" values="0 0 0 0 0 0 0 0 0 0 0 0 0 0 0 0 0 0 127 0" result="hardAlpha"/>
<feOffset dy="7.72016"/>
<feGaussianBlur stdDeviation="19.3004"/>
<feComposite in2="hardAlpha" operator="arithmetic" k2="-1" k3="1"/>
<feColorMatrix type="matrix" values="0 0 0 0 1 0 0 0 0 1 0 0 0 0 1 0 0 0 0.58 0"/>
<feBlend mode="normal" in2="effect3_innerShadow_6681_51662" result="effect4_innerShadow_6681_51662"/>
</filter>
<filter id="filter4_diii_6681_51662" x="51.4541" y="62.3807" width="154" height="186.642" filterUnits="userSpaceOnUse" color-interpolation-filters="sRGB">
<feFlood flood-opacity="0" result="BackgroundImageFix"/>
<feColorMatrix in="SourceAlpha" type="matrix" values="0 0 0 0 0 0 0 0 0 0 0 0 0 0 0 0 0 0 127 0" result="hardAlpha"/>
<feOffset dy="15.4403"/>
<feGaussianBlur stdDeviation="30"/>
<feColorMatrix type="matrix" values="0 0 0 0 0.196078 0 0 0 0 0.380392 0 0 0 0 1 0 0 0 0.2 0"/>
<feBlend mode="normal" in2="BackgroundImageFix" result="effect1_dropShadow_6681_51662"/>
<feBlend mode="normal" in="SourceGraphic" in2="effect1_dropShadow_6681_51662" result="shape"/>
<feColorMatrix in="SourceAlpha" type="matrix" values="0 0 0 0 0 0 0 0 0 0 0 0 0 0 0 0 0 0 127 0" result="hardAlpha"/>
<feOffset dx="7.72016" dy="57.9012"/>
<feGaussianBlur stdDeviation="57.9012"/>
<feComposite in2="hardAlpha" operator="arithmetic" k2="-1" k3="1"/>
<feColorMatrix type="matrix" values="0 0 0 0 0.196078 0 0 0 0 0.380392 0 0 0 0 1 0 0 0 1 0"/>
<feBlend mode="normal" in2="shape" result="effect2_innerShadow_6681_51662"/>
<feColorMatrix in="SourceAlpha" type="matrix" values="0 0 0 0 0 0 0 0 0 0 0 0 0 0 0 0 0 0 127 0" result="hardAlpha"/>
<feOffset dy="-77.2016"/>
<feGaussianBlur stdDeviation="96.502"/>
<feComposite in2="hardAlpha" operator="arithmetic" k2="-1" k3="1"/>
<feColorMatrix type="matrix" values="0 0 0 0 1 0 0 0 0 1 0 0 0 0 1 0 0 0 0.53 0"/>
<feBlend mode="normal" in2="effect2_innerShadow_6681_51662" result="effect3_innerShadow_6681_51662"/>
<feColorMatrix in="SourceAlpha" type="matrix" values="0 0 0 0 0 0 0 0 0 0 0 0 0 0 0 0 0 0 127 0" result="hardAlpha"/>
<feOffset dy="7.72016"/>
<feGaussianBlur stdDeviation="19.3004"/>
<feComposite in2="hardAlpha" operator="arithmetic" k2="-1" k3="1"/>
<feColorMatrix type="matrix" values="0 0 0 0 1 0 0 0 0 1 0 0 0 0 1 0 0 0 0.58 0"/>
<feBlend mode="normal" in2="effect3_innerShadow_6681_51662" result="effect4_innerShadow_6681_51662"/>
</filter>
<filter id="filter5_diii_6681_51662" x="0.405762" y="6.38065" width="145" height="177.642" filterUnits="userSpaceOnUse" color-interpolation-filters="sRGB">
<feFlood flood-opacity="0" result="BackgroundImageFix"/>
<feColorMatrix in="SourceAlpha" type="matrix" values="0 0 0 0 0 0 0 0 0 0 0 0 0 0 0 0 0 0 127 0" result="hardAlpha"/>
<feOffset dy="15.4403"/>
<feGaussianBlur stdDeviation="30"/>
<feColorMatrix type="matrix" values="0 0 0 0 0.196078 0 0 0 0 0.380392 0 0 0 0 1 0 0 0 0.2 0"/>
<feBlend mode="normal" in2="BackgroundImageFix" result="effect1_dropShadow_6681_51662"/>
<feBlend mode="normal" in="SourceGraphic" in2="effect1_dropShadow_6681_51662" result="shape"/>
<feColorMatrix in="SourceAlpha" type="matrix" values="0 0 0 0 0 0 0 0 0 0 0 0 0 0 0 0 0 0 127 0" result="hardAlpha"/>
<feOffset dx="7.72016" dy="57.9012"/>
<feGaussianBlur stdDeviation="57.9012"/>
<feComposite in2="hardAlpha" operator="arithmetic" k2="-1" k3="1"/>
<feColorMatrix type="matrix" values="0 0 0 0 0.196078 0 0 0 0 0.380392 0 0 0 0 1 0 0 0 1 0"/>
<feBlend mode="normal" in2="shape" result="effect2_innerShadow_6681_51662"/>
<feColorMatrix in="SourceAlpha" type="matrix" values="0 0 0 0 0 0 0 0 0 0 0 0 0 0 0 0 0 0 127 0" result="hardAlpha"/>
<feOffset dy="-77.2016"/>
<feGaussianBlur stdDeviation="96.502"/>
<feComposite in2="hardAlpha" operator="arithmetic" k2="-1" k3="1"/>
<feColorMatrix type="matrix" values="0 0 0 0 1 0 0 0 0 1 0 0 0 0 1 0 0 0 0.53 0"/>
<feBlend mode="normal" in2="effect2_innerShadow_6681_51662" result="effect3_innerShadow_6681_51662"/>
<feColorMatrix in="SourceAlpha" type="matrix" values="0 0 0 0 0 0 0 0 0 0 0 0 0 0 0 0 0 0 127 0" result="hardAlpha"/>
<feOffset dy="7.72016"/>
<feGaussianBlur stdDeviation="19.3004"/>
<feComposite in2="hardAlpha" operator="arithmetic" k2="-1" k3="1"/>
<feColorMatrix type="matrix" values="0 0 0 0 1 0 0 0 0 1 0 0 0 0 1 0 0 0 0.58 0"/>
<feBlend mode="normal" in2="effect3_innerShadow_6681_51662" result="effect4_innerShadow_6681_51662"/>
</filter>
<filter id="filter6_diii_6681_51662" x="35.7002" y="-26.6193" width="136" height="168.642" filterUnits="userSpaceOnUse" color-interpolation-filters="sRGB">
<feFlood flood-opacity="0" result="BackgroundImageFix"/>
<feColorMatrix in="SourceAlpha" type="matrix" values="0 0 0 0 0 0 0 0 0 0 0 0 0 0 0 0 0 0 127 0" result="hardAlpha"/>
<feOffset dy="15.4403"/>
<feGaussianBlur stdDeviation="30"/>
<feColorMatrix type="matrix" values="0 0 0 0 0.196078 0 0 0 0 0.380392 0 0 0 0 1 0 0 0 0.2 0"/>
<feBlend mode="normal" in2="BackgroundImageFix" result="effect1_dropShadow_6681_51662"/>
<feBlend mode="normal" in="SourceGraphic" in2="effect1_dropShadow_6681_51662" result="shape"/>
<feColorMatrix in="SourceAlpha" type="matrix" values="0 0 0 0 0 0 0 0 0 0 0 0 0 0 0 0 0 0 127 0" result="hardAlpha"/>
<feOffset dx="7.72016" dy="57.9012"/>
<feGaussianBlur stdDeviation="57.9012"/>
<feComposite in2="hardAlpha" operator="arithmetic" k2="-1" k3="1"/>
<feColorMatrix type="matrix" values="0 0 0 0 0.196078 0 0 0 0 0.380392 0 0 0 0 1 0 0 0 1 0"/>
<feBlend mode="normal" in2="shape" result="effect2_innerShadow_6681_51662"/>
<feColorMatrix in="SourceAlpha" type="matrix" values="0 0 0 0 0 0 0 0 0 0 0 0 0 0 0 0 0 0 127 0" result="hardAlpha"/>
<feOffset dy="-77.2016"/>
<feGaussianBlur stdDeviation="96.502"/>
<feComposite in2="hardAlpha" operator="arithmetic" k2="-1" k3="1"/>
<feColorMatrix type="matrix" values="0 0 0 0 1 0 0 0 0 1 0 0 0 0 1 0 0 0 0.53 0"/>
<feBlend mode="normal" in2="effect2_innerShadow_6681_51662" result="effect3_innerShadow_6681_51662"/>
<feColorMatrix in="SourceAlpha" type="matrix" values="0 0 0 0 0 0 0 0 0 0 0 0 0 0 0 0 0 0 127 0" result="hardAlpha"/>
<feOffset dy="7.72016"/>
<feGaussianBlur stdDeviation="19.3004"/>
<feComposite in2="hardAlpha" operator="arithmetic" k2="-1" k3="1"/>
<feColorMatrix type="matrix" values="0 0 0 0 1 0 0 0 0 1 0 0 0 0 1 0 0 0 0.58 0"/>
<feBlend mode="normal" in2="effect3_innerShadow_6681_51662" result="effect4_innerShadow_6681_51662"/>
</filter>
<filter id="filter7_diii_6681_51662" x="216.594" y="36.3807" width="136" height="168.642" filterUnits="userSpaceOnUse" color-interpolation-filters="sRGB">
<feFlood flood-opacity="0" result="BackgroundImageFix"/>
<feColorMatrix in="SourceAlpha" type="matrix" values="0 0 0 0 0 0 0 0 0 0 0 0 0 0 0 0 0 0 127 0" result="hardAlpha"/>
<feOffset dy="15.4403"/>
<feGaussianBlur stdDeviation="30"/>
<feColorMatrix type="matrix" values="0 0 0 0 0.196078 0 0 0 0 0.380392 0 0 0 0 1 0 0 0 0.2 0"/>
<feBlend mode="normal" in2="BackgroundImageFix" result="effect1_dropShadow_6681_51662"/>
<feBlend mode="normal" in="SourceGraphic" in2="effect1_dropShadow_6681_51662" result="shape"/>
<feColorMatrix in="SourceAlpha" type="matrix" values="0 0 0 0 0 0 0 0 0 0 0 0 0 0 0 0 0 0 127 0" result="hardAlpha"/>
<feOffset dx="7.72016" dy="57.9012"/>
<feGaussianBlur stdDeviation="57.9012"/>
<feComposite in2="hardAlpha" operator="arithmetic" k2="-1" k3="1"/>
<feColorMatrix type="matrix" values="0 0 0 0 0.196078 0 0 0 0 0.380392 0 0 0 0 1 0 0 0 1 0"/>
<feBlend mode="normal" in2="shape" result="effect2_innerShadow_6681_51662"/>
<feColorMatrix in="SourceAlpha" type="matrix" values="0 0 0 0 0 0 0 0 0 0 0 0 0 0 0 0 0 0 127 0" result="hardAlpha"/>
<feOffset dy="-77.2016"/>
<feGaussianBlur stdDeviation="96.502"/>
<feComposite in2="hardAlpha" operator="arithmetic" k2="-1" k3="1"/>
<feColorMatrix type="matrix" values="0 0 0 0 1 0 0 0 0 1 0 0 0 0 1 0 0 0 0.53 0"/>
<feBlend mode="normal" in2="effect2_innerShadow_6681_51662" result="effect3_innerShadow_6681_51662"/>
<feColorMatrix in="SourceAlpha" type="matrix" values="0 0 0 0 0 0 0 0 0 0 0 0 0 0 0 0 0 0 127 0" result="hardAlpha"/>
<feOffset dy="7.72016"/>
<feGaussianBlur stdDeviation="19.3004"/>
<feComposite in2="hardAlpha" operator="arithmetic" k2="-1" k3="1"/>
<feColorMatrix type="matrix" values="0 0 0 0 1 0 0 0 0 1 0 0 0 0 1 0 0 0 0.58 0"/>
<feBlend mode="normal" in2="effect3_innerShadow_6681_51662" result="effect4_innerShadow_6681_51662"/>
</filter>
<filter id="filter8_diii_6681_51662" x="240.594" y="9.38065" width="130" height="162.642" filterUnits="userSpaceOnUse" color-interpolation-filters="sRGB">
<feFlood flood-opacity="0" result="BackgroundImageFix"/>
<feColorMatrix in="SourceAlpha" type="matrix" values="0 0 0 0 0 0 0 0 0 0 0 0 0 0 0 0 0 0 127 0" result="hardAlpha"/>
<feOffset dy="15.4403"/>
<feGaussianBlur stdDeviation="30"/>
<feColorMatrix type="matrix" values="0 0 0 0 0.196078 0 0 0 0 0.380392 0 0 0 0 1 0 0 0 0.2 0"/>
<feBlend mode="normal" in2="BackgroundImageFix" result="effect1_dropShadow_6681_51662"/>
<feBlend mode="normal" in="SourceGraphic" in2="effect1_dropShadow_6681_51662" result="shape"/>
<feColorMatrix in="SourceAlpha" type="matrix" values="0 0 0 0 0 0 0 0 0 0 0 0 0 0 0 0 0 0 127 0" result="hardAlpha"/>
<feOffset dx="7.72016" dy="57.9012"/>
<feGaussianBlur stdDeviation="57.9012"/>
<feComposite in2="hardAlpha" operator="arithmetic" k2="-1" k3="1"/>
<feColorMatrix type="matrix" values="0 0 0 0 0.196078 0 0 0 0 0.380392 0 0 0 0 1 0 0 0 1 0"/>
<feBlend mode="normal" in2="shape" result="effect2_innerShadow_6681_51662"/>
<feColorMatrix in="SourceAlpha" type="matrix" values="0 0 0 0 0 0 0 0 0 0 0 0 0 0 0 0 0 0 127 0" result="hardAlpha"/>
<feOffset dy="-77.2016"/>
<feGaussianBlur stdDeviation="96.502"/>
<feComposite in2="hardAlpha" operator="arithmetic" k2="-1" k3="1"/>
<feColorMatrix type="matrix" values="0 0 0 0 1 0 0 0 0 1 0 0 0 0 1 0 0 0 0.53 0"/>
<feBlend mode="normal" in2="effect2_innerShadow_6681_51662" result="effect3_innerShadow_6681_51662"/>
<feColorMatrix in="SourceAlpha" type="matrix" values="0 0 0 0 0 0 0 0 0 0 0 0 0 0 0 0 0 0 127 0" result="hardAlpha"/>
<feOffset dy="7.72016"/>
<feGaussianBlur stdDeviation="19.3004"/>
<feComposite in2="hardAlpha" operator="arithmetic" k2="-1" k3="1"/>
<feColorMatrix type="matrix" values="0 0 0 0 1 0 0 0 0 1 0 0 0 0 1 0 0 0 0.58 0"/>
<feBlend mode="normal" in2="effect3_innerShadow_6681_51662" result="effect4_innerShadow_6681_51662"/>
</filter>
<filter id="filter9_diii_6681_51662" x="198.954" y="108.381" width="171" height="203.642" filterUnits="userSpaceOnUse" color-interpolation-filters="sRGB">
<feFlood flood-opacity="0" result="BackgroundImageFix"/>
<feColorMatrix in="SourceAlpha" type="matrix" values="0 0 0 0 0 0 0 0 0 0 0 0 0 0 0 0 0 0 127 0" result="hardAlpha"/>
<feOffset dy="15.4403"/>
<feGaussianBlur stdDeviation="30"/>
<feColorMatrix type="matrix" values="0 0 0 0 0.196078 0 0 0 0 0.380392 0 0 0 0 1 0 0 0 0.2 0"/>
<feBlend mode="normal" in2="BackgroundImageFix" result="effect1_dropShadow_6681_51662"/>
<feBlend mode="normal" in="SourceGraphic" in2="effect1_dropShadow_6681_51662" result="shape"/>
<feColorMatrix in="SourceAlpha" type="matrix" values="0 0 0 0 0 0 0 0 0 0 0 0 0 0 0 0 0 0 127 0" result="hardAlpha"/>
<feOffset dx="7.72016" dy="57.9012"/>
<feGaussianBlur stdDeviation="57.9012"/>
<feComposite in2="hardAlpha" operator="arithmetic" k2="-1" k3="1"/>
<feColorMatrix type="matrix" values="0 0 0 0 0.196078 0 0 0 0 0.380392 0 0 0 0 1 0 0 0 1 0"/>
<feBlend mode="normal" in2="shape" result="effect2_innerShadow_6681_51662"/>
<feColorMatrix in="SourceAlpha" type="matrix" values="0 0 0 0 0 0 0 0 0 0 0 0 0 0 0 0 0 0 127 0" result="hardAlpha"/>
<feOffset dy="-77.2016"/>
<feGaussianBlur stdDeviation="96.502"/>
<feComposite in2="hardAlpha" operator="arithmetic" k2="-1" k3="1"/>
<feColorMatrix type="matrix" values="0 0 0 0 1 0 0 0 0 1 0 0 0 0 1 0 0 0 0.53 0"/>
<feBlend mode="normal" in2="effect2_innerShadow_6681_51662" result="effect3_innerShadow_6681_51662"/>
<feColorMatrix in="SourceAlpha" type="matrix" values="0 0 0 0 0 0 0 0 0 0 0 0 0 0 0 0 0 0 127 0" result="hardAlpha"/>
<feOffset dy="7.72016"/>
<feGaussianBlur stdDeviation="19.3004"/>
<feComposite in2="hardAlpha" operator="arithmetic" k2="-1" k3="1"/>
<feColorMatrix type="matrix" values="0 0 0 0 1 0 0 0 0 1 0 0 0 0 1 0 0 0 0.58 0"/>
<feBlend mode="normal" in2="effect3_innerShadow_6681_51662" result="effect4_innerShadow_6681_51662"/>
</filter>
<radialGradient id="paint0_radial_6681_51662" cx="0" cy="0" r="1" gradientUnits="userSpaceOnUse" gradientTransform="translate(276.259 60.1903) rotate(110.973) scale(34.956)">
<stop stop-color="#3261FF"/>
<stop offset="1" stop-color="#A7A8AD" stop-opacity="0"/>
</radialGradient>
<radialGradient id="paint1_radial_6681_51662" cx="0" cy="0" r="1" gradientUnits="userSpaceOnUse" gradientTransform="translate(246.305 102.861) rotate(110.973) scale(222.242)">
<stop stop-color="#3261FF"/>
<stop offset="1" stop-color="#A7A8AD" stop-opacity="0"/>
</radialGradient>
<radialGradient id="paint2_radial_6681_51662" cx="0" cy="0" r="1" gradientUnits="userSpaceOnUse" gradientTransform="translate(138.875 212.366) rotate(110.973) scale(58.6027)">
<stop stop-color="#3261FF"/>
<stop offset="1" stop-color="#A7A8AD" stop-opacity="0"/>
</radialGradient>
<radialGradient id="paint3_radial_6681_51662" cx="0" cy="0" r="1" gradientUnits="userSpaceOnUse" gradientTransform="translate(105.604 184.494) rotate(110.973) scale(52.434)">
<stop stop-color="#3261FF"/>
<stop offset="1" stop-color="#A7A8AD" stop-opacity="0"/>
</radialGradient>
<radialGradient id="paint4_radial_6681_51662" cx="0" cy="0" r="1" gradientUnits="userSpaceOnUse" gradientTransform="translate(135.39 150.19) rotate(110.973) scale(34.956)">
<stop stop-color="#3261FF"/>
<stop offset="1" stop-color="#A7A8AD" stop-opacity="0"/>
</radialGradient>
<radialGradient id="paint5_radial_6681_51662" cx="0" cy="0" r="1" gradientUnits="userSpaceOnUse" gradientTransform="translate(78.0058 91.3823) rotate(110.973) scale(25.7029)">
<stop stop-color="#3261FF"/>
<stop offset="1" stop-color="#A7A8AD" stop-opacity="0"/>
</radialGradient>
<radialGradient id="paint6_radial_6681_51662" cx="0" cy="0" r="1" gradientUnits="userSpaceOnUse" gradientTransform="translate(106.964 55.5743) rotate(110.973) scale(16.4499)">
<stop stop-color="#3261FF"/>
<stop offset="1" stop-color="#A7A8AD" stop-opacity="0"/>
</radialGradient>
<radialGradient id="paint7_radial_6681_51662" cx="0" cy="0" r="1" gradientUnits="userSpaceOnUse" gradientTransform="translate(287.858 118.574) rotate(110.973) scale(16.4499)">
<stop stop-color="#3261FF"/>
<stop offset="1" stop-color="#A7A8AD" stop-opacity="0"/>
</radialGradient>
<radialGradient id="paint8_radial_6681_51662" cx="0" cy="0" r="1" gradientUnits="userSpaceOnUse" gradientTransform="translate(307.634 89.7023) rotate(110.973) scale(10.2812)">
<stop stop-color="#3261FF"/>
<stop offset="1" stop-color="#A7A8AD" stop-opacity="0"/>
</radialGradient>
<radialGradient id="paint9_radial_6681_51662" cx="0" cy="0" r="1" gradientUnits="userSpaceOnUse" gradientTransform="translate(294.858 201.494) rotate(110.973) scale(52.434)">
<stop stop-color="#3261FF"/>
<stop offset="1" stop-color="#A7A8AD" stop-opacity="0"/>
</radialGradient>
<linearGradient id="paint10_linear_6681_51662" x1="183.731" y1="87.7463" x2="236.398" y2="190.199" gradientUnits="userSpaceOnUse">
<stop stop-color="#3261FF"/>
<stop offset="1" stop-color="#3261FF" stop-opacity="0"/>
</linearGradient>
<linearGradient id="paint11_linear_6681_51662" x1="188.257" y1="117.783" x2="231.076" y2="195.165" gradientUnits="userSpaceOnUse">
<stop stop-color="#3261FF"/>
<stop offset="1" stop-color="#7A99FF"/>
</linearGradient>
</defs>
</svg>
