<svg viewBox="0 0 80 80" fill="none" xmlns="http://www.w3.org/2000/svg">
<path fill-rule="evenodd" clip-rule="evenodd" d="M28.0175 14.8142L27.7542 14.5509C26.6679 13.4647 26.7996 11.6542 28.0175 10.6667C34.2059 5.6634 41.5463 3.06299 49.1829 3.06299C56.7867 3.06299 64.1271 5.40008 70.3154 10.568C71.5663 11.5884 71.6979 13.4976 70.5459 14.6497C69.5254 15.6701 67.8796 15.8347 66.7934 14.913C61.7242 10.7326 55.3384 8.65883 49.1829 8.65883C43.0275 8.65883 36.6088 10.7655 31.5725 14.913C30.5192 15.7688 29.005 15.8017 28.0175 14.8142ZM47.0307 26.1354C52.5278 24.687 57.4982 28.8016 57.4982 34.0683C57.4982 36.5699 56.3791 38.7424 54.6345 40.2566L64.3778 69.4537C64.5199 69.8458 64.582 70.2623 64.5605 70.6788C64.539 71.0952 64.4343 71.5032 64.2526 71.8785C64.071 72.2539 63.816 72.5891 63.5027 72.8644C63.1895 73.1396 62.8243 73.3494 62.4287 73.4812C62.033 73.6131 61.615 73.6644 61.1993 73.6322C60.7835 73.5999 60.3784 73.4848 60.0079 73.2935C59.6373 73.1022 59.3088 72.8386 59.0417 72.5183C58.7747 72.1981 58.5744 71.8276 58.4528 71.4287L56.9716 66.9849H41.5995L40.1182 71.4287C39.6903 72.7124 38.5053 73.5683 37.1557 73.5683C35.0161 73.5683 33.502 71.4945 34.1932 69.4537L43.9366 40.2566C41.6324 38.2816 40.3816 35.0558 41.4349 31.5666C42.2249 28.9333 44.3974 26.8266 47.0307 26.1354ZM49.2691 43.9433L43.772 60.4016H54.7661L49.2691 43.9433ZM62.5802 22.5829C63.7652 21.3979 63.6335 19.4558 62.284 18.4354C58.3998 15.4729 53.7915 13.9258 49.1831 13.9258C44.5419 14.1891 39.8677 15.6045 35.9835 18.5341C35.6824 18.7585 35.433 19.0449 35.2521 19.374C35.0712 19.703 34.963 20.0671 34.9349 20.4416C34.9069 20.816 34.9595 21.1922 35.0893 21.5446C35.2191 21.8969 35.423 22.2173 35.6873 22.4841L35.9506 22.7474C36.8394 23.6362 38.2877 23.8008 39.2752 23.0108C42.3035 20.7066 45.8585 19.5216 49.1831 19.5216C52.7052 19.5216 56.1944 20.6408 58.9923 22.8462C60.0456 23.702 61.5927 23.5704 62.5802 22.5829ZM15.1652 52.3604C16.9568 50.5773 19.3858 49.5743 21.9195 49.5714C24.4531 49.5743 26.8822 50.5773 28.6737 52.3604C30.4653 54.1435 31.4731 56.5611 31.4759 59.0828C31.4759 67.2214 22.7883 73.3713 22.419 73.6307C22.2711 73.7288 22.0973 73.7811 21.9195 73.7811C21.7417 73.7811 21.5679 73.7288 21.4199 73.6307C21.0507 73.3713 12.363 67.2214 12.363 59.0828C12.3659 56.5611 13.3737 54.1435 15.1652 52.3604ZM23.8501 56.207C23.2787 55.8269 22.6068 55.6241 21.9195 55.6241C20.9978 55.6241 20.1139 55.9885 19.4622 56.6371C18.8105 57.2857 18.4444 58.1655 18.4444 59.0828C18.4444 59.7668 18.6482 60.4355 19.0301 61.0043C19.4119 61.5731 19.9547 62.0164 20.5896 62.2781C21.2246 62.5399 21.9233 62.6084 22.5974 62.475C23.2715 62.3415 23.8907 62.0121 24.3767 61.5284C24.8627 61.0447 25.1937 60.4284 25.3278 59.7575C25.4619 59.0866 25.3931 58.3912 25.13 57.7592C24.867 57.1272 24.4216 56.587 23.8501 56.207Z" fill="url(#paint0_linear_6681_51673)"/>
<path fill-rule="evenodd" clip-rule="evenodd" d="M26.3719 17.283L26.1086 17.0197C25.0223 15.9334 25.154 14.123 26.3719 13.1355C32.5603 8.13215 39.9007 5.53174 47.5373 5.53174C55.1411 5.53174 62.4815 7.86883 68.6698 13.0367C69.9207 14.0572 70.0523 15.9663 68.9003 17.1184C67.8798 18.1388 66.234 18.3034 65.1478 17.3817C60.0786 13.2013 53.6928 11.1276 47.5373 11.1276C41.3819 11.1276 34.9632 13.2342 29.9269 17.3817C28.8736 18.2376 27.3594 18.2705 26.3719 17.283ZM45.385 28.6041C50.8821 27.1558 55.8525 31.2704 55.8525 36.537C55.8525 39.0387 54.7334 41.2112 52.9888 42.7254L62.7321 71.9225C62.8742 72.3145 62.9363 72.7311 62.9148 73.1475C62.8933 73.564 62.7886 73.9719 62.607 74.3473C62.4253 74.7227 62.1703 75.0579 61.857 75.3331C61.5438 75.6084 61.1786 75.8181 60.783 75.95C60.3874 76.0819 59.9693 76.1332 59.5536 76.1009C59.1378 76.0687 58.7327 75.9535 58.3622 75.7622C57.9916 75.5709 57.6631 75.3074 57.396 74.9871C57.129 74.6668 56.9287 74.2963 56.8071 73.8975L55.3259 69.4537H39.9538L38.4725 73.8975C38.0446 75.1812 36.8596 76.037 35.51 76.037C33.3704 76.037 31.8563 73.9633 32.5475 71.9225L42.2909 42.7254C39.9867 40.7504 38.7359 37.5245 39.7892 34.0354C40.5792 31.402 42.7517 29.2954 45.385 28.6041ZM47.6234 46.412L42.1263 62.8704H53.1204L47.6234 46.412ZM60.9346 25.0516C62.1196 23.8666 61.9879 21.9245 60.6384 20.9041C56.7542 17.9416 52.1459 16.3945 47.5375 16.3945C42.8963 16.6579 38.2221 18.0733 34.3379 21.0029C34.0368 21.2272 33.7874 21.5136 33.6065 21.8427C33.4256 22.1718 33.3174 22.5359 33.2893 22.9103C33.2613 23.2848 33.3139 23.6609 33.4437 24.0133C33.5735 24.3657 33.7774 24.6861 34.0417 24.9529L34.305 25.2162C35.1938 26.1049 36.6421 26.2695 37.6296 25.4795C40.6579 23.1754 44.2129 21.9904 47.5375 21.9904C51.0596 21.9904 54.5488 23.1095 57.3467 25.3149C58.4 26.1708 59.9471 26.0391 60.9346 25.0516ZM13.5195 54.8292C15.3111 53.0461 17.7402 52.0431 20.2738 52.0402C22.8074 52.0431 25.2365 53.0461 27.0281 54.8292C28.8196 56.6123 29.8274 59.0298 29.8303 61.5515C29.8303 69.6902 21.1426 75.8401 20.7733 76.0995C20.6254 76.1976 20.4516 76.2499 20.2738 76.2499C20.096 76.2499 19.9222 76.1976 19.7743 76.0995C19.405 75.8401 10.7173 69.6902 10.7173 61.5515C10.7202 59.0298 11.728 56.6123 13.5195 54.8292ZM22.2044 58.6758C21.633 58.2957 20.9611 58.0929 20.2738 58.0929C19.3522 58.0929 18.4683 58.4573 17.8166 59.1059C17.1648 59.7545 16.7987 60.6342 16.7987 61.5515C16.7987 62.2356 17.0025 62.9043 17.3844 63.4731C17.7662 64.0418 18.309 64.4851 18.9439 64.7469C19.5789 65.0087 20.2777 65.0772 20.9518 64.9437C21.6259 64.8103 22.245 64.4809 22.731 63.9972C23.217 63.5135 23.548 62.8972 23.6821 62.2263C23.8162 61.5554 23.7474 60.8599 23.4843 60.228C23.2213 59.596 22.7759 59.0558 22.2044 58.6758Z" fill="url(#paint1_linear_6681_51673)"/>
<defs>
<linearGradient id="paint0_linear_6681_51673" x1="21.7309" y1="-16.2537" x2="74.3976" y2="86.1992" gradientUnits="userSpaceOnUse">
<stop stop-color="#3261FF"/>
<stop offset="1" stop-color="#3261FF" stop-opacity="0"/>
</linearGradient>
<linearGradient id="paint1_linear_6681_51673" x1="26.2571" y1="13.7827" x2="69.0764" y2="91.1654" gradientUnits="userSpaceOnUse">
<stop stop-color="#3261FF"/>
<stop offset="1" stop-color="#7A99FF"/>
</linearGradient>
</defs>
</svg>
