<svg viewBox="0 0 361 327" fill="none" xmlns="http://www.w3.org/2000/svg">
<g filter="url(#filter0_diii_6681_51700)">
<circle cx="117.599" cy="222.459" r="28.5" fill="#3261FF"/>
<circle cx="117.599" cy="222.459" r="28.5" fill="url(#paint0_radial_6681_51700)"/>
</g>
<g opacity="0.8" filter="url(#filter1_diii_6681_51700)">
<circle cx="179.083" cy="142.959" r="108.082" fill="#3261FF"/>
<circle cx="179.083" cy="142.959" r="108.082" fill="url(#paint1_radial_6681_51700)"/>
</g>
<g filter="url(#filter2_diii_6681_51700)">
<circle cx="85.553" cy="193.459" r="25.5" fill="#3261FF"/>
<circle cx="85.553" cy="193.459" r="25.5" fill="url(#paint2_radial_6681_51700)"/>
</g>
<g filter="url(#filter3_diii_6681_51700)">
<circle cx="94.053" cy="57.959" r="8" fill="#3261FF"/>
<circle cx="94.053" cy="57.959" r="8" fill="url(#paint3_radial_6681_51700)"/>
</g>
<g filter="url(#filter4_diii_6681_51700)">
<circle cx="274.947" cy="120.959" r="8" fill="#3261FF"/>
<circle cx="274.947" cy="120.959" r="8" fill="url(#paint4_radial_6681_51700)"/>
</g>
<g filter="url(#filter5_diii_6681_51700)">
<circle cx="295.947" cy="90.959" r="5" fill="#3261FF"/>
<circle cx="295.947" cy="90.959" r="5" fill="url(#paint5_radial_6681_51700)"/>
</g>
<g filter="url(#filter6_diii_6681_51700)">
<circle cx="274.807" cy="210.459" r="25.5" fill="#3261FF"/>
<circle cx="274.807" cy="210.459" r="25.5" fill="url(#paint6_radial_6681_51700)"/>
</g>
<g clip-path="url(#clip0_6681_51700)">
<path fill-rule="evenodd" clip-rule="evenodd" d="M143.141 115.435C141.813 115.435 140.737 116.511 140.737 117.839C140.737 119.166 141.813 120.242 143.141 120.242H159.225C160.553 120.242 161.629 119.166 161.629 117.839C161.629 116.511 160.553 115.435 159.225 115.435H143.141ZM140.737 127.454C140.737 126.127 141.813 125.05 143.141 125.05H159.226C160.553 125.05 161.63 126.127 161.63 127.454C161.63 128.782 160.553 129.858 159.226 129.858H143.141C141.813 129.858 140.737 128.782 140.737 127.454ZM143.141 134.808C141.813 134.808 140.737 135.885 140.737 137.212C140.737 138.54 141.813 139.616 143.141 139.616H159.226C160.553 139.616 161.63 138.54 161.63 137.212C161.63 135.885 160.553 134.808 159.226 134.808H143.141ZM140.737 147.006C140.737 145.679 141.813 144.603 143.141 144.603H159.226C160.553 144.603 161.63 145.679 161.63 147.006C161.63 148.334 160.553 149.41 159.226 149.41H143.141C141.813 149.41 140.737 148.334 140.737 147.006ZM143.141 154.218C141.813 154.218 140.737 155.295 140.737 156.622C140.737 157.95 141.813 159.026 143.141 159.026H159.226C160.553 159.026 161.63 157.95 161.63 156.622C161.63 155.295 160.553 154.218 159.226 154.218H143.141ZM164.763 156.805C164.763 155.478 165.84 154.401 167.167 154.401H183.252C184.579 154.401 185.656 155.478 185.656 156.805C185.656 158.133 184.579 159.209 183.252 159.209H167.167C165.84 159.209 164.763 158.133 164.763 156.805ZM140.737 166.705C140.737 165.378 141.813 164.301 143.141 164.301H159.226C160.553 164.301 161.63 165.378 161.63 166.705C161.63 168.033 160.553 169.109 159.226 169.109H143.141C141.813 169.109 140.737 168.033 140.737 166.705ZM164.763 166.705C164.763 165.378 165.84 164.301 167.167 164.301H183.252C184.579 164.301 185.656 165.378 185.656 166.705C185.656 168.033 184.579 169.109 183.252 169.109H167.167C165.84 169.109 164.763 168.033 164.763 166.705ZM195.928 122.564H192.358C190.395 122.564 188.789 124.17 188.789 126.133V165.394C188.789 167.357 190.395 168.963 192.358 168.963H213.773C215.736 168.963 217.342 167.357 217.342 165.394V126.133C217.342 124.17 215.736 122.564 213.773 122.564H210.204V117.21H195.928V122.564ZM195.928 140.41V129.702H210.204V140.41H195.928Z" fill="url(#paint7_linear_6681_51700)"/>
<path fill-rule="evenodd" clip-rule="evenodd" d="M141.57 117.006C140.242 117.006 139.166 118.082 139.166 119.41C139.166 120.737 140.242 121.814 141.57 121.814H157.654C158.982 121.814 160.058 120.737 160.058 119.41C160.058 118.082 158.982 117.006 157.654 117.006H141.57ZM139.166 129.025C139.166 127.698 140.242 126.621 141.57 126.621H157.655C158.982 126.621 160.059 127.698 160.059 129.025C160.059 130.353 158.982 131.429 157.655 131.429H141.57C140.242 131.429 139.166 130.353 139.166 129.025ZM141.57 136.379C140.242 136.379 139.166 137.456 139.166 138.783C139.166 140.111 140.242 141.187 141.57 141.187H157.655C158.982 141.187 160.059 140.111 160.059 138.783C160.059 137.456 158.982 136.379 157.655 136.379H141.57ZM139.166 148.578C139.166 147.25 140.242 146.174 141.57 146.174H157.655C158.982 146.174 160.059 147.25 160.059 148.578C160.059 149.905 158.982 150.982 157.655 150.982H141.57C140.242 150.982 139.166 149.905 139.166 148.578ZM141.57 155.789C140.242 155.789 139.166 156.866 139.166 158.193C139.166 159.521 140.242 160.597 141.57 160.597H157.655C158.982 160.597 160.059 159.521 160.059 158.193C160.059 156.866 158.982 155.789 157.655 155.789H141.57ZM163.193 158.376C163.193 157.049 164.269 155.972 165.597 155.972H181.681C183.009 155.972 184.085 157.049 184.085 158.376C184.085 159.704 183.009 160.78 181.681 160.78H165.597C164.269 160.78 163.193 159.704 163.193 158.376ZM139.166 168.276C139.166 166.949 140.242 165.872 141.57 165.872H157.655C158.982 165.872 160.059 166.949 160.059 168.276C160.059 169.604 158.982 170.68 157.655 170.68H141.57C140.242 170.68 139.166 169.604 139.166 168.276ZM163.193 168.276C163.193 166.949 164.269 165.872 165.597 165.872H181.681C183.009 165.872 184.085 166.949 184.085 168.276C184.085 169.604 183.009 170.68 181.681 170.68H165.597C164.269 170.68 163.193 169.604 163.193 168.276ZM194.357 124.135H190.788C188.825 124.135 187.218 125.741 187.218 127.704V166.965C187.218 168.928 188.825 170.534 190.788 170.534H212.202C214.165 170.534 215.772 168.928 215.772 166.965V127.704C215.772 125.741 214.165 124.135 212.202 124.135H208.633V118.781H194.357V124.135ZM194.357 141.981V131.273H208.633V141.981H194.357Z" fill="url(#paint8_linear_6681_51700)"/>
</g>
<defs>
<filter id="filter0_diii_6681_51700" x="29.0994" y="116.757" width="177" height="209.642" filterUnits="userSpaceOnUse" color-interpolation-filters="sRGB">
<feFlood flood-opacity="0" result="BackgroundImageFix"/>
<feColorMatrix in="SourceAlpha" type="matrix" values="0 0 0 0 0 0 0 0 0 0 0 0 0 0 0 0 0 0 127 0" result="hardAlpha"/>
<feOffset dy="15.4403"/>
<feGaussianBlur stdDeviation="30"/>
<feColorMatrix type="matrix" values="0 0 0 0 0.196078 0 0 0 0 0.380392 0 0 0 0 1 0 0 0 0.2 0"/>
<feBlend mode="normal" in2="BackgroundImageFix" result="effect1_dropShadow_6681_51700"/>
<feBlend mode="normal" in="SourceGraphic" in2="effect1_dropShadow_6681_51700" result="shape"/>
<feColorMatrix in="SourceAlpha" type="matrix" values="0 0 0 0 0 0 0 0 0 0 0 0 0 0 0 0 0 0 127 0" result="hardAlpha"/>
<feOffset dx="7.72016" dy="57.9012"/>
<feGaussianBlur stdDeviation="57.9012"/>
<feComposite in2="hardAlpha" operator="arithmetic" k2="-1" k3="1"/>
<feColorMatrix type="matrix" values="0 0 0 0 0.196078 0 0 0 0 0.380392 0 0 0 0 1 0 0 0 1 0"/>
<feBlend mode="normal" in2="shape" result="effect2_innerShadow_6681_51700"/>
<feColorMatrix in="SourceAlpha" type="matrix" values="0 0 0 0 0 0 0 0 0 0 0 0 0 0 0 0 0 0 127 0" result="hardAlpha"/>
<feOffset dy="-77.2016"/>
<feGaussianBlur stdDeviation="96.502"/>
<feComposite in2="hardAlpha" operator="arithmetic" k2="-1" k3="1"/>
<feColorMatrix type="matrix" values="0 0 0 0 1 0 0 0 0 1 0 0 0 0 1 0 0 0 0.53 0"/>
<feBlend mode="normal" in2="effect2_innerShadow_6681_51700" result="effect3_innerShadow_6681_51700"/>
<feColorMatrix in="SourceAlpha" type="matrix" values="0 0 0 0 0 0 0 0 0 0 0 0 0 0 0 0 0 0 127 0" result="hardAlpha"/>
<feOffset dy="7.72016"/>
<feGaussianBlur stdDeviation="19.3004"/>
<feComposite in2="hardAlpha" operator="arithmetic" k2="-1" k3="1"/>
<feColorMatrix type="matrix" values="0 0 0 0 1 0 0 0 0 1 0 0 0 0 1 0 0 0 0.58 0"/>
<feBlend mode="normal" in2="effect3_innerShadow_6681_51700" result="effect4_innerShadow_6681_51700"/>
</filter>
<filter id="filter1_diii_6681_51700" x="21.0002" y="-42.3249" width="316.165" height="358.806" filterUnits="userSpaceOnUse" color-interpolation-filters="sRGB">
<feFlood flood-opacity="0" result="BackgroundImageFix"/>
<feColorMatrix in="SourceAlpha" type="matrix" values="0 0 0 0 0 0 0 0 0 0 0 0 0 0 0 0 0 0 127 0" result="hardAlpha"/>
<feOffset dy="15.4403"/>
<feGaussianBlur stdDeviation="25"/>
<feColorMatrix type="matrix" values="0 0 0 0 0.196078 0 0 0 0 0.380392 0 0 0 0 1 0 0 0 0.3 0"/>
<feBlend mode="normal" in2="BackgroundImageFix" result="effect1_dropShadow_6681_51700"/>
<feBlend mode="normal" in="SourceGraphic" in2="effect1_dropShadow_6681_51700" result="shape"/>
<feColorMatrix in="SourceAlpha" type="matrix" values="0 0 0 0 0 0 0 0 0 0 0 0 0 0 0 0 0 0 127 0" result="hardAlpha"/>
<feOffset dx="7.72016" dy="57.9012"/>
<feGaussianBlur stdDeviation="57.9012"/>
<feComposite in2="hardAlpha" operator="arithmetic" k2="-1" k3="1"/>
<feColorMatrix type="matrix" values="0 0 0 0 0.196078 0 0 0 0 0.380392 0 0 0 0 1 0 0 0 1 0"/>
<feBlend mode="normal" in2="shape" result="effect2_innerShadow_6681_51700"/>
<feColorMatrix in="SourceAlpha" type="matrix" values="0 0 0 0 0 0 0 0 0 0 0 0 0 0 0 0 0 0 127 0" result="hardAlpha"/>
<feOffset dy="-77.2016"/>
<feGaussianBlur stdDeviation="96.502"/>
<feComposite in2="hardAlpha" operator="arithmetic" k2="-1" k3="1"/>
<feColorMatrix type="matrix" values="0 0 0 0 1 0 0 0 0 1 0 0 0 0 1 0 0 0 0.53 0"/>
<feBlend mode="normal" in2="effect2_innerShadow_6681_51700" result="effect3_innerShadow_6681_51700"/>
<feColorMatrix in="SourceAlpha" type="matrix" values="0 0 0 0 0 0 0 0 0 0 0 0 0 0 0 0 0 0 127 0" result="hardAlpha"/>
<feOffset dy="7.72016"/>
<feGaussianBlur stdDeviation="19.3004"/>
<feComposite in2="hardAlpha" operator="arithmetic" k2="-1" k3="1"/>
<feColorMatrix type="matrix" values="0 0 0 0 1 0 0 0 0 1 0 0 0 0 1 0 0 0 0.58 0"/>
<feBlend mode="normal" in2="effect3_innerShadow_6681_51700" result="effect4_innerShadow_6681_51700"/>
</filter>
<filter id="filter2_diii_6681_51700" x="0.0529785" y="90.7574" width="171" height="203.642" filterUnits="userSpaceOnUse" color-interpolation-filters="sRGB">
<feFlood flood-opacity="0" result="BackgroundImageFix"/>
<feColorMatrix in="SourceAlpha" type="matrix" values="0 0 0 0 0 0 0 0 0 0 0 0 0 0 0 0 0 0 127 0" result="hardAlpha"/>
<feOffset dy="15.4403"/>
<feGaussianBlur stdDeviation="30"/>
<feColorMatrix type="matrix" values="0 0 0 0 0.196078 0 0 0 0 0.380392 0 0 0 0 1 0 0 0 0.2 0"/>
<feBlend mode="normal" in2="BackgroundImageFix" result="effect1_dropShadow_6681_51700"/>
<feBlend mode="normal" in="SourceGraphic" in2="effect1_dropShadow_6681_51700" result="shape"/>
<feColorMatrix in="SourceAlpha" type="matrix" values="0 0 0 0 0 0 0 0 0 0 0 0 0 0 0 0 0 0 127 0" result="hardAlpha"/>
<feOffset dx="7.72016" dy="57.9012"/>
<feGaussianBlur stdDeviation="57.9012"/>
<feComposite in2="hardAlpha" operator="arithmetic" k2="-1" k3="1"/>
<feColorMatrix type="matrix" values="0 0 0 0 0.196078 0 0 0 0 0.380392 0 0 0 0 1 0 0 0 1 0"/>
<feBlend mode="normal" in2="shape" result="effect2_innerShadow_6681_51700"/>
<feColorMatrix in="SourceAlpha" type="matrix" values="0 0 0 0 0 0 0 0 0 0 0 0 0 0 0 0 0 0 127 0" result="hardAlpha"/>
<feOffset dy="-77.2016"/>
<feGaussianBlur stdDeviation="96.502"/>
<feComposite in2="hardAlpha" operator="arithmetic" k2="-1" k3="1"/>
<feColorMatrix type="matrix" values="0 0 0 0 1 0 0 0 0 1 0 0 0 0 1 0 0 0 0.53 0"/>
<feBlend mode="normal" in2="effect2_innerShadow_6681_51700" result="effect3_innerShadow_6681_51700"/>
<feColorMatrix in="SourceAlpha" type="matrix" values="0 0 0 0 0 0 0 0 0 0 0 0 0 0 0 0 0 0 127 0" result="hardAlpha"/>
<feOffset dy="7.72016"/>
<feGaussianBlur stdDeviation="19.3004"/>
<feComposite in2="hardAlpha" operator="arithmetic" k2="-1" k3="1"/>
<feColorMatrix type="matrix" values="0 0 0 0 1 0 0 0 0 1 0 0 0 0 1 0 0 0 0.58 0"/>
<feBlend mode="normal" in2="effect3_innerShadow_6681_51700" result="effect4_innerShadow_6681_51700"/>
</filter>
<filter id="filter3_diii_6681_51700" x="26.053" y="-27.2426" width="136" height="168.642" filterUnits="userSpaceOnUse" color-interpolation-filters="sRGB">
<feFlood flood-opacity="0" result="BackgroundImageFix"/>
<feColorMatrix in="SourceAlpha" type="matrix" values="0 0 0 0 0 0 0 0 0 0 0 0 0 0 0 0 0 0 127 0" result="hardAlpha"/>
<feOffset dy="15.4403"/>
<feGaussianBlur stdDeviation="30"/>
<feColorMatrix type="matrix" values="0 0 0 0 0.196078 0 0 0 0 0.380392 0 0 0 0 1 0 0 0 0.2 0"/>
<feBlend mode="normal" in2="BackgroundImageFix" result="effect1_dropShadow_6681_51700"/>
<feBlend mode="normal" in="SourceGraphic" in2="effect1_dropShadow_6681_51700" result="shape"/>
<feColorMatrix in="SourceAlpha" type="matrix" values="0 0 0 0 0 0 0 0 0 0 0 0 0 0 0 0 0 0 127 0" result="hardAlpha"/>
<feOffset dx="7.72016" dy="57.9012"/>
<feGaussianBlur stdDeviation="57.9012"/>
<feComposite in2="hardAlpha" operator="arithmetic" k2="-1" k3="1"/>
<feColorMatrix type="matrix" values="0 0 0 0 0.196078 0 0 0 0 0.380392 0 0 0 0 1 0 0 0 1 0"/>
<feBlend mode="normal" in2="shape" result="effect2_innerShadow_6681_51700"/>
<feColorMatrix in="SourceAlpha" type="matrix" values="0 0 0 0 0 0 0 0 0 0 0 0 0 0 0 0 0 0 127 0" result="hardAlpha"/>
<feOffset dy="-77.2016"/>
<feGaussianBlur stdDeviation="96.502"/>
<feComposite in2="hardAlpha" operator="arithmetic" k2="-1" k3="1"/>
<feColorMatrix type="matrix" values="0 0 0 0 1 0 0 0 0 1 0 0 0 0 1 0 0 0 0.53 0"/>
<feBlend mode="normal" in2="effect2_innerShadow_6681_51700" result="effect3_innerShadow_6681_51700"/>
<feColorMatrix in="SourceAlpha" type="matrix" values="0 0 0 0 0 0 0 0 0 0 0 0 0 0 0 0 0 0 127 0" result="hardAlpha"/>
<feOffset dy="7.72016"/>
<feGaussianBlur stdDeviation="19.3004"/>
<feComposite in2="hardAlpha" operator="arithmetic" k2="-1" k3="1"/>
<feColorMatrix type="matrix" values="0 0 0 0 1 0 0 0 0 1 0 0 0 0 1 0 0 0 0.58 0"/>
<feBlend mode="normal" in2="effect3_innerShadow_6681_51700" result="effect4_innerShadow_6681_51700"/>
</filter>
<filter id="filter4_diii_6681_51700" x="206.947" y="35.7574" width="136" height="168.642" filterUnits="userSpaceOnUse" color-interpolation-filters="sRGB">
<feFlood flood-opacity="0" result="BackgroundImageFix"/>
<feColorMatrix in="SourceAlpha" type="matrix" values="0 0 0 0 0 0 0 0 0 0 0 0 0 0 0 0 0 0 127 0" result="hardAlpha"/>
<feOffset dy="15.4403"/>
<feGaussianBlur stdDeviation="30"/>
<feColorMatrix type="matrix" values="0 0 0 0 0.196078 0 0 0 0 0.380392 0 0 0 0 1 0 0 0 0.2 0"/>
<feBlend mode="normal" in2="BackgroundImageFix" result="effect1_dropShadow_6681_51700"/>
<feBlend mode="normal" in="SourceGraphic" in2="effect1_dropShadow_6681_51700" result="shape"/>
<feColorMatrix in="SourceAlpha" type="matrix" values="0 0 0 0 0 0 0 0 0 0 0 0 0 0 0 0 0 0 127 0" result="hardAlpha"/>
<feOffset dx="7.72016" dy="57.9012"/>
<feGaussianBlur stdDeviation="57.9012"/>
<feComposite in2="hardAlpha" operator="arithmetic" k2="-1" k3="1"/>
<feColorMatrix type="matrix" values="0 0 0 0 0.196078 0 0 0 0 0.380392 0 0 0 0 1 0 0 0 1 0"/>
<feBlend mode="normal" in2="shape" result="effect2_innerShadow_6681_51700"/>
<feColorMatrix in="SourceAlpha" type="matrix" values="0 0 0 0 0 0 0 0 0 0 0 0 0 0 0 0 0 0 127 0" result="hardAlpha"/>
<feOffset dy="-77.2016"/>
<feGaussianBlur stdDeviation="96.502"/>
<feComposite in2="hardAlpha" operator="arithmetic" k2="-1" k3="1"/>
<feColorMatrix type="matrix" values="0 0 0 0 1 0 0 0 0 1 0 0 0 0 1 0 0 0 0.53 0"/>
<feBlend mode="normal" in2="effect2_innerShadow_6681_51700" result="effect3_innerShadow_6681_51700"/>
<feColorMatrix in="SourceAlpha" type="matrix" values="0 0 0 0 0 0 0 0 0 0 0 0 0 0 0 0 0 0 127 0" result="hardAlpha"/>
<feOffset dy="7.72016"/>
<feGaussianBlur stdDeviation="19.3004"/>
<feComposite in2="hardAlpha" operator="arithmetic" k2="-1" k3="1"/>
<feColorMatrix type="matrix" values="0 0 0 0 1 0 0 0 0 1 0 0 0 0 1 0 0 0 0.58 0"/>
<feBlend mode="normal" in2="effect3_innerShadow_6681_51700" result="effect4_innerShadow_6681_51700"/>
</filter>
<filter id="filter5_diii_6681_51700" x="230.947" y="8.75736" width="130" height="162.642" filterUnits="userSpaceOnUse" color-interpolation-filters="sRGB">
<feFlood flood-opacity="0" result="BackgroundImageFix"/>
<feColorMatrix in="SourceAlpha" type="matrix" values="0 0 0 0 0 0 0 0 0 0 0 0 0 0 0 0 0 0 127 0" result="hardAlpha"/>
<feOffset dy="15.4403"/>
<feGaussianBlur stdDeviation="30"/>
<feColorMatrix type="matrix" values="0 0 0 0 0.196078 0 0 0 0 0.380392 0 0 0 0 1 0 0 0 0.2 0"/>
<feBlend mode="normal" in2="BackgroundImageFix" result="effect1_dropShadow_6681_51700"/>
<feBlend mode="normal" in="SourceGraphic" in2="effect1_dropShadow_6681_51700" result="shape"/>
<feColorMatrix in="SourceAlpha" type="matrix" values="0 0 0 0 0 0 0 0 0 0 0 0 0 0 0 0 0 0 127 0" result="hardAlpha"/>
<feOffset dx="7.72016" dy="57.9012"/>
<feGaussianBlur stdDeviation="57.9012"/>
<feComposite in2="hardAlpha" operator="arithmetic" k2="-1" k3="1"/>
<feColorMatrix type="matrix" values="0 0 0 0 0.196078 0 0 0 0 0.380392 0 0 0 0 1 0 0 0 1 0"/>
<feBlend mode="normal" in2="shape" result="effect2_innerShadow_6681_51700"/>
<feColorMatrix in="SourceAlpha" type="matrix" values="0 0 0 0 0 0 0 0 0 0 0 0 0 0 0 0 0 0 127 0" result="hardAlpha"/>
<feOffset dy="-77.2016"/>
<feGaussianBlur stdDeviation="96.502"/>
<feComposite in2="hardAlpha" operator="arithmetic" k2="-1" k3="1"/>
<feColorMatrix type="matrix" values="0 0 0 0 1 0 0 0 0 1 0 0 0 0 1 0 0 0 0.53 0"/>
<feBlend mode="normal" in2="effect2_innerShadow_6681_51700" result="effect3_innerShadow_6681_51700"/>
<feColorMatrix in="SourceAlpha" type="matrix" values="0 0 0 0 0 0 0 0 0 0 0 0 0 0 0 0 0 0 127 0" result="hardAlpha"/>
<feOffset dy="7.72016"/>
<feGaussianBlur stdDeviation="19.3004"/>
<feComposite in2="hardAlpha" operator="arithmetic" k2="-1" k3="1"/>
<feColorMatrix type="matrix" values="0 0 0 0 1 0 0 0 0 1 0 0 0 0 1 0 0 0 0.58 0"/>
<feBlend mode="normal" in2="effect3_innerShadow_6681_51700" result="effect4_innerShadow_6681_51700"/>
</filter>
<filter id="filter6_diii_6681_51700" x="189.307" y="107.757" width="171" height="203.642" filterUnits="userSpaceOnUse" color-interpolation-filters="sRGB">
<feFlood flood-opacity="0" result="BackgroundImageFix"/>
<feColorMatrix in="SourceAlpha" type="matrix" values="0 0 0 0 0 0 0 0 0 0 0 0 0 0 0 0 0 0 127 0" result="hardAlpha"/>
<feOffset dy="15.4403"/>
<feGaussianBlur stdDeviation="30"/>
<feColorMatrix type="matrix" values="0 0 0 0 0.196078 0 0 0 0 0.380392 0 0 0 0 1 0 0 0 0.2 0"/>
<feBlend mode="normal" in2="BackgroundImageFix" result="effect1_dropShadow_6681_51700"/>
<feBlend mode="normal" in="SourceGraphic" in2="effect1_dropShadow_6681_51700" result="shape"/>
<feColorMatrix in="SourceAlpha" type="matrix" values="0 0 0 0 0 0 0 0 0 0 0 0 0 0 0 0 0 0 127 0" result="hardAlpha"/>
<feOffset dx="7.72016" dy="57.9012"/>
<feGaussianBlur stdDeviation="57.9012"/>
<feComposite in2="hardAlpha" operator="arithmetic" k2="-1" k3="1"/>
<feColorMatrix type="matrix" values="0 0 0 0 0.196078 0 0 0 0 0.380392 0 0 0 0 1 0 0 0 1 0"/>
<feBlend mode="normal" in2="shape" result="effect2_innerShadow_6681_51700"/>
<feColorMatrix in="SourceAlpha" type="matrix" values="0 0 0 0 0 0 0 0 0 0 0 0 0 0 0 0 0 0 127 0" result="hardAlpha"/>
<feOffset dy="-77.2016"/>
<feGaussianBlur stdDeviation="96.502"/>
<feComposite in2="hardAlpha" operator="arithmetic" k2="-1" k3="1"/>
<feColorMatrix type="matrix" values="0 0 0 0 1 0 0 0 0 1 0 0 0 0 1 0 0 0 0.53 0"/>
<feBlend mode="normal" in2="effect2_innerShadow_6681_51700" result="effect3_innerShadow_6681_51700"/>
<feColorMatrix in="SourceAlpha" type="matrix" values="0 0 0 0 0 0 0 0 0 0 0 0 0 0 0 0 0 0 127 0" result="hardAlpha"/>
<feOffset dy="7.72016"/>
<feGaussianBlur stdDeviation="19.3004"/>
<feComposite in2="hardAlpha" operator="arithmetic" k2="-1" k3="1"/>
<feColorMatrix type="matrix" values="0 0 0 0 1 0 0 0 0 1 0 0 0 0 1 0 0 0 0.58 0"/>
<feBlend mode="normal" in2="effect3_innerShadow_6681_51700" result="effect4_innerShadow_6681_51700"/>
</filter>
<radialGradient id="paint0_radial_6681_51700" cx="0" cy="0" r="1" gradientUnits="userSpaceOnUse" gradientTransform="translate(129.227 211.743) rotate(110.973) scale(58.6027)">
<stop stop-color="#3261FF"/>
<stop offset="1" stop-color="#A7A8AD" stop-opacity="0"/>
</radialGradient>
<radialGradient id="paint1_radial_6681_51700" cx="0" cy="0" r="1" gradientUnits="userSpaceOnUse" gradientTransform="translate(223.18 102.32) rotate(110.973) scale(222.242)">
<stop stop-color="#3261FF"/>
<stop offset="1" stop-color="#A7A8AD" stop-opacity="0"/>
</radialGradient>
<radialGradient id="paint2_radial_6681_51700" cx="0" cy="0" r="1" gradientUnits="userSpaceOnUse" gradientTransform="translate(95.957 183.871) rotate(110.973) scale(52.434)">
<stop stop-color="#3261FF"/>
<stop offset="1" stop-color="#A7A8AD" stop-opacity="0"/>
</radialGradient>
<radialGradient id="paint3_radial_6681_51700" cx="0" cy="0" r="1" gradientUnits="userSpaceOnUse" gradientTransform="translate(97.317 54.951) rotate(110.973) scale(16.4499)">
<stop stop-color="#3261FF"/>
<stop offset="1" stop-color="#A7A8AD" stop-opacity="0"/>
</radialGradient>
<radialGradient id="paint4_radial_6681_51700" cx="0" cy="0" r="1" gradientUnits="userSpaceOnUse" gradientTransform="translate(278.211 117.951) rotate(110.973) scale(16.4499)">
<stop stop-color="#3261FF"/>
<stop offset="1" stop-color="#A7A8AD" stop-opacity="0"/>
</radialGradient>
<radialGradient id="paint5_radial_6681_51700" cx="0" cy="0" r="1" gradientUnits="userSpaceOnUse" gradientTransform="translate(297.987 89.079) rotate(110.973) scale(10.2812)">
<stop stop-color="#3261FF"/>
<stop offset="1" stop-color="#A7A8AD" stop-opacity="0"/>
</radialGradient>
<radialGradient id="paint6_radial_6681_51700" cx="0" cy="0" r="1" gradientUnits="userSpaceOnUse" gradientTransform="translate(285.211 200.871) rotate(110.973) scale(52.434)">
<stop stop-color="#3261FF"/>
<stop offset="1" stop-color="#A7A8AD" stop-opacity="0"/>
</radialGradient>
<linearGradient id="paint7_linear_6681_51700" x1="150.872" y1="107.408" x2="209.125" y2="176.433" gradientUnits="userSpaceOnUse">
<stop stop-color="#3261FF"/>
<stop offset="1" stop-color="#3261FF" stop-opacity="0"/>
</linearGradient>
<linearGradient id="paint8_linear_6681_51700" x1="195.185" y1="118.555" x2="212.74" y2="170.423" gradientUnits="userSpaceOnUse">
<stop stop-color="#3261FF"/>
<stop offset="1" stop-color="#7A99FF"/>
</linearGradient>
<clipPath id="clip0_6681_51700">
<rect width="79" height="79" fill="white" transform="translate(139 103.877)"/>
</clipPath>
</defs>
</svg>
