<svg viewBox="0 0 79 80" fill="none" xmlns="http://www.w3.org/2000/svg">
<g clip-path="url(#clip0_6681_51708)">
<path fill-rule="evenodd" clip-rule="evenodd" d="M4.14083 12.4346C2.81317 12.4346 1.73688 13.5109 1.73688 14.8385C1.73688 16.1662 2.81316 17.2425 4.14083 17.2425H20.2255C21.5531 17.2425 22.6294 16.1662 22.6294 14.8385C22.6294 13.5109 21.5532 12.4346 20.2255 12.4346H4.14083ZM1.73711 24.4543C1.73711 23.1266 2.8134 22.0503 4.14107 22.0503H20.2257C21.5534 22.0503 22.6297 23.1266 22.6297 24.4543C22.6297 25.782 21.5534 26.8582 20.2257 26.8582H4.14107C2.8134 26.8582 1.73711 25.782 1.73711 24.4543ZM4.14107 31.8083C2.8134 31.8083 1.73711 32.8846 1.73711 34.2123C1.73711 35.5399 2.8134 36.6162 4.14107 36.6162H20.2257C21.5534 36.6162 22.6297 35.5399 22.6297 34.2123C22.6297 32.8846 21.5534 31.8083 20.2257 31.8083H4.14107ZM1.73711 44.0065C1.73711 42.6788 2.8134 41.6025 4.14107 41.6025H20.2257C21.5534 41.6025 22.6297 42.6788 22.6297 44.0065C22.6297 45.3342 21.5534 46.4105 20.2257 46.4105H4.14107C2.8134 46.4105 1.73711 45.3342 1.73711 44.0065ZM4.14107 51.2184C2.8134 51.2184 1.73711 52.2947 1.73711 53.6223C1.73711 54.95 2.8134 56.0263 4.14107 56.0263H20.2257C21.5534 56.0263 22.6297 54.95 22.6297 53.6223C22.6297 52.2947 21.5534 51.2184 20.2257 51.2184H4.14107ZM25.7632 53.8054C25.7632 52.4777 26.8395 51.4014 28.1672 51.4014H44.2518C45.5795 51.4014 46.6558 52.4777 46.6558 53.8054C46.6558 55.133 45.5795 56.2093 44.2518 56.2093H28.1672C26.8395 56.2093 25.7632 55.133 25.7632 53.8054ZM1.73711 63.7053C1.73711 62.3776 2.8134 61.3013 4.14107 61.3013H20.2257C21.5534 61.3013 22.6297 62.3776 22.6297 63.7053C22.6297 65.0329 21.5534 66.1092 20.2257 66.1092H4.14107C2.8134 66.1092 1.73711 65.0329 1.73711 63.7053ZM25.7632 63.7053C25.7632 62.3776 26.8395 61.3013 28.1672 61.3013H44.2518C45.5795 61.3013 46.6558 62.3776 46.6558 63.7053C46.6558 65.0329 45.5795 66.1092 44.2518 66.1092H28.1672C26.8395 66.1092 25.7632 65.0329 25.7632 63.7053ZM56.9276 19.5638H53.3585C51.3955 19.5638 49.7893 21.17 49.7893 23.133V62.3936C49.7893 64.3566 51.3955 65.9627 53.3585 65.9627H74.7734C76.7364 65.9627 78.3425 64.3566 78.3425 62.3936V23.133C78.3425 21.17 76.7364 19.5638 74.7734 19.5638H71.2042V14.2101H56.9276V19.5638ZM56.9276 37.4096V26.7021H71.2042V37.4096H56.9276Z" fill="url(#paint0_linear_6681_51708)"/>
<path fill-rule="evenodd" clip-rule="evenodd" d="M2.56973 14.0056C1.24206 14.0056 0.165771 15.0819 0.165771 16.4096C0.165771 17.7372 1.24206 18.8135 2.56972 18.8135H18.6544C19.982 18.8135 21.0583 17.7372 21.0583 16.4096C21.0583 15.0819 19.982 14.0056 18.6544 14.0056H2.56973ZM0.166201 26.0253C0.166201 24.6976 1.24249 23.6213 2.57016 23.6213H18.6548C19.9825 23.6213 21.0588 24.6976 21.0588 26.0253C21.0588 27.353 19.9825 28.4292 18.6548 28.4292H2.57015C1.24249 28.4292 0.166201 27.353 0.166201 26.0253ZM2.57016 33.3793C1.24249 33.3793 0.166201 34.4556 0.166201 35.7833C0.166201 37.1109 1.24249 38.1872 2.57015 38.1872H18.6548C19.9825 38.1872 21.0588 37.1109 21.0588 35.7833C21.0588 34.4556 19.9825 33.3793 18.6548 33.3793H2.57016ZM0.166201 45.5776C0.166201 44.2499 1.24249 43.1736 2.57016 43.1736H18.6548C19.9825 43.1736 21.0588 44.2499 21.0588 45.5776C21.0588 46.9053 19.9825 47.9815 18.6548 47.9815H2.57015C1.24249 47.9815 0.166201 46.9053 0.166201 45.5776ZM2.57016 52.7894C1.24249 52.7894 0.166201 53.8657 0.166201 55.1933C0.166201 56.521 1.24249 57.5973 2.57015 57.5973H18.6548C19.9825 57.5973 21.0588 56.521 21.0588 55.1933C21.0588 53.8657 19.9825 52.7894 18.6548 52.7894H2.57016ZM24.1927 55.3764C24.1927 54.0488 25.269 52.9725 26.5967 52.9725H42.6813C44.009 52.9725 45.0853 54.0488 45.0853 55.3764C45.0853 56.7041 44.009 57.7804 42.6813 57.7804H26.5967C25.269 57.7804 24.1927 56.7041 24.1927 55.3764ZM0.166201 65.2763C0.166201 63.9486 1.24249 62.8723 2.57016 62.8723H18.6548C19.9825 62.8723 21.0588 63.9486 21.0588 65.2763C21.0588 66.6039 19.9825 67.6802 18.6548 67.6802H2.57015C1.24249 67.6802 0.166201 66.6039 0.166201 65.2763ZM24.1927 65.2763C24.1927 63.9486 25.269 62.8723 26.5967 62.8723H42.6813C44.009 62.8723 45.0853 63.9486 45.0853 65.2763C45.0853 66.6039 44.009 67.6802 42.6813 67.6802H26.5967C25.269 67.6802 24.1927 66.6039 24.1927 65.2763ZM55.3567 21.1348H51.7876C49.8245 21.1348 48.2184 22.741 48.2184 24.704V63.9646C48.2184 65.9276 49.8245 67.5337 51.7876 67.5337H73.2024C75.1655 67.5337 76.7716 65.9276 76.7716 63.9646V24.704C76.7716 22.741 75.1655 21.1348 73.2024 21.1348H69.6333V15.7811H55.3567V21.1348ZM55.3567 38.9806V28.2731H69.6333V38.9806H55.3567Z" fill="url(#paint1_linear_6681_51708)"/>
</g>
<defs>
<linearGradient id="paint0_linear_6681_51708" x1="11.8721" y1="4.40801" x2="70.1247" y2="73.4329" gradientUnits="userSpaceOnUse">
<stop stop-color="#3261FF"/>
<stop offset="1" stop-color="#3261FF" stop-opacity="0"/>
</linearGradient>
<linearGradient id="paint1_linear_6681_51708" x1="56.1848" y1="15.5548" x2="73.7403" y2="67.4234" gradientUnits="userSpaceOnUse">
<stop stop-color="#3261FF"/>
<stop offset="1" stop-color="#7A99FF"/>
</linearGradient>
<clipPath id="clip0_6681_51708">
<rect width="79" height="79" fill="white" transform="translate(0.000244141 0.876709)"/>
</clipPath>
</defs>
</svg>
