<svg viewBox="0 0 487 488" fill="none" xmlns="http://www.w3.org/2000/svg">
<g opacity="0.6" filter="url(#filter0_diii_6681_51769)">
<circle cx="243.515" cy="222.04" r="156.536" fill="#3261FF"/>
<circle cx="243.515" cy="222.04" r="156.536" fill="url(#paint0_radial_6681_51769)"/>
</g>
<g filter="url(#filter1_diii_6681_51769)">
<circle cx="175.274" cy="133.702" r="8" transform="rotate(60 175.274 133.702)" fill="#3261FF"/>
<circle cx="175.274" cy="133.702" r="8" transform="rotate(60 175.274 133.702)" fill="url(#paint1_radial_6681_51769)"/>
</g>
<g filter="url(#filter2_diii_6681_51769)">
<circle cx="145.783" cy="328.184" r="39.9934" transform="rotate(60 145.783 328.184)" fill="#3261FF"/>
<circle cx="145.783" cy="328.184" r="39.9934" transform="rotate(60 145.783 328.184)" fill="url(#paint2_radial_6681_51769)"/>
</g>
<g filter="url(#filter3_diii_6681_51769)">
<circle cx="363.156" cy="238.135" r="17" transform="rotate(60 363.156 238.135)" fill="#3261FF"/>
<circle cx="363.156" cy="238.135" r="17" transform="rotate(60 363.156 238.135)" fill="url(#paint3_radial_6681_51769)"/>
</g>
<g filter="url(#filter4_diii_6681_51769)">
<circle cx="305.678" cy="291.09" r="25.5" transform="rotate(60 305.678 291.09)" fill="#3261FF"/>
<circle cx="305.678" cy="291.09" r="25.5" transform="rotate(60 305.678 291.09)" fill="url(#paint4_radial_6681_51769)"/>
</g>
<g filter="url(#filter5_diii_6681_51769)">
<circle cx="323.161" cy="278.861" r="8" transform="rotate(60 323.161 278.861)" fill="#3261FF"/>
<circle cx="323.161" cy="278.861" r="8" transform="rotate(60 323.161 278.861)" fill="url(#paint5_radial_6681_51769)"/>
</g>
<g filter="url(#filter6_diii_6681_51769)">
<circle cx="359.641" cy="282.047" r="5" transform="rotate(60 359.641 282.047)" fill="#3261FF"/>
<circle cx="359.641" cy="282.047" r="5" transform="rotate(60 359.641 282.047)" fill="url(#paint6_radial_6681_51769)"/>
</g>
<g clip-path="url(#clip0_6681_51769)">
<g opacity="0.5">
<path d="M190.89 195.558C190.148 194.816 189.797 193.929 189.838 192.898C189.88 191.867 190.292 191.063 191.076 190.485C193.344 188.753 195.871 187.402 198.656 186.432C201.439 185.463 204.377 184.979 207.47 184.979C210.605 184.979 213.565 185.474 216.35 186.464C219.133 187.454 221.659 188.835 223.927 190.609C224.711 191.186 225.113 191.981 225.135 192.992C225.155 194.002 224.793 194.878 224.051 195.62C223.35 196.321 222.494 196.683 221.485 196.704C220.473 196.724 219.535 196.445 218.668 195.868C217.06 194.754 215.318 193.899 213.442 193.301C211.564 192.702 209.574 192.403 207.47 192.403C205.367 192.403 203.377 192.712 201.502 193.331C199.624 193.95 197.902 194.795 196.334 195.868C195.427 196.486 194.468 196.765 193.459 196.704C192.448 196.641 191.591 196.259 190.89 195.558ZM180.373 185.103C179.672 184.402 179.321 183.545 179.321 182.534C179.321 181.524 179.692 180.689 180.435 180.03C184.105 176.936 188.23 174.513 192.808 172.759C197.386 171.007 202.274 170.131 207.47 170.131C212.667 170.131 217.555 171.007 222.133 172.759C226.711 174.513 230.836 176.936 234.506 180.03C235.249 180.689 235.631 181.514 235.652 182.504C235.672 183.494 235.311 184.36 234.568 185.103C233.867 185.804 233.012 186.175 232.002 186.216C230.991 186.258 230.073 185.948 229.248 185.288C226.237 182.855 222.886 180.958 219.195 179.597C215.503 178.235 211.595 177.555 207.47 177.555C203.346 177.555 199.438 178.235 195.748 179.597C192.056 180.958 188.704 182.855 185.693 185.288C184.868 185.948 183.951 186.258 182.941 186.216C181.93 186.175 181.074 185.804 180.373 185.103ZM207.47 209.726C206.068 209.726 204.893 209.251 203.944 208.303C202.995 207.354 202.521 206.179 202.521 204.776C202.521 203.374 202.995 202.199 203.944 201.25C204.893 200.301 206.068 199.827 207.47 199.827C208.873 199.827 210.048 200.301 210.997 201.25C211.946 202.199 212.42 203.374 212.42 204.776C212.42 206.179 211.946 207.354 210.997 208.303C210.048 209.251 208.873 209.726 207.47 209.726Z" fill="url(#paint7_linear_6681_51769)"/>
<path d="M262.918 195.558C262.176 194.816 261.825 193.929 261.866 192.898C261.907 191.867 262.32 191.063 263.104 190.485C265.372 188.753 267.899 187.402 270.684 186.432C273.467 185.463 276.405 184.979 279.498 184.979C282.633 184.979 285.593 185.474 288.377 186.464C291.161 187.454 293.686 188.835 295.955 190.609C296.739 191.186 297.141 191.981 297.163 192.992C297.182 194.002 296.821 194.878 296.079 195.62C295.378 196.321 294.522 196.683 293.512 196.704C292.501 196.724 291.562 196.445 290.696 195.868C289.088 194.754 287.346 193.899 285.47 193.301C283.592 192.702 281.602 192.403 279.498 192.403C277.395 192.403 275.405 192.712 273.529 193.331C271.652 193.95 269.93 194.795 268.362 195.868C267.455 196.486 266.496 196.765 265.487 196.704C264.475 196.641 263.619 196.259 262.918 195.558ZM252.401 185.103C251.699 184.402 251.349 183.545 251.349 182.534C251.349 181.524 251.72 180.689 252.462 180.03C256.133 176.936 260.258 174.513 264.836 172.759C269.414 171.007 274.302 170.131 279.498 170.131C284.695 170.131 289.583 171.007 294.161 172.759C298.739 174.513 302.863 176.936 306.534 180.03C307.277 180.689 307.659 181.514 307.68 182.504C307.7 183.494 307.338 184.36 306.596 185.103C305.895 185.804 305.039 186.175 304.03 186.216C303.019 186.258 302.1 185.948 301.276 185.288C298.265 182.855 294.914 180.958 291.223 179.597C287.531 178.235 283.623 177.555 279.498 177.555C275.374 177.555 271.466 178.235 267.776 179.597C264.084 180.958 260.732 182.855 257.721 185.288C256.896 185.948 255.979 186.258 254.969 186.216C253.958 186.175 253.102 185.804 252.401 185.103ZM279.498 209.726C278.096 209.726 276.921 209.251 275.972 208.303C275.023 207.354 274.549 206.179 274.549 204.776C274.549 203.374 275.023 202.199 275.972 201.25C276.921 200.301 278.096 199.827 279.498 199.827C280.901 199.827 282.076 200.301 283.025 201.25C283.973 202.199 284.448 203.374 284.448 204.776C284.448 206.179 283.973 207.354 283.025 208.303C282.076 209.251 280.901 209.726 279.498 209.726Z" fill="url(#paint8_linear_6681_51769)"/>
<path d="M180.301 232.261C180.301 225.282 185.959 219.625 192.938 219.625H294.031C301.01 219.625 306.668 225.282 306.668 232.261V273.962C306.668 280.941 301.01 286.599 294.031 286.599H192.938C185.959 286.599 180.301 280.941 180.301 273.962V232.261Z" fill="url(#paint9_linear_6681_51769)"/>
</g>
<path d="M186.862 198.376C186.12 197.633 185.769 196.747 185.81 195.715C185.852 194.684 186.264 193.88 187.048 193.303C189.316 191.57 191.843 190.219 194.628 189.249C197.411 188.281 200.349 187.796 203.442 187.796C206.577 187.796 209.537 188.291 212.322 189.281C215.105 190.271 217.631 191.653 219.899 193.426C220.683 194.004 221.085 194.798 221.107 195.809C221.126 196.819 220.765 197.695 220.023 198.438C219.322 199.139 218.466 199.5 217.456 199.521C216.445 199.541 215.506 199.262 214.64 198.685C213.032 197.571 211.29 196.716 209.414 196.119C207.536 195.52 205.546 195.22 203.442 195.22C201.339 195.22 199.349 195.53 197.473 196.148C195.596 196.767 193.874 197.613 192.306 198.685C191.399 199.304 190.44 199.583 189.431 199.521C188.419 199.459 187.563 199.077 186.862 198.376ZM176.345 187.92C175.643 187.219 175.293 186.363 175.293 185.351C175.293 184.342 175.664 183.507 176.406 182.847C180.077 179.754 184.202 177.33 188.78 175.576C193.358 173.824 198.246 172.948 203.442 172.948C208.639 172.948 213.527 173.824 218.105 175.576C222.683 177.33 226.807 179.754 230.478 182.847C231.221 183.507 231.603 184.332 231.624 185.322C231.644 186.312 231.283 187.178 230.54 187.92C229.839 188.621 228.984 188.993 227.974 189.034C226.963 189.075 226.044 188.766 225.22 188.106C222.209 185.672 218.858 183.775 215.167 182.414C211.475 181.053 207.567 180.372 203.442 180.372C199.318 180.372 195.41 181.053 191.72 182.414C188.028 183.775 184.676 185.672 181.665 188.106C180.84 188.766 179.923 189.075 178.913 189.034C177.902 188.993 177.046 188.621 176.345 187.92ZM203.442 212.543C202.04 212.543 200.865 212.069 199.916 211.12C198.967 210.172 198.493 208.996 198.493 207.594C198.493 206.192 198.967 205.016 199.916 204.067C200.865 203.119 202.04 202.645 203.442 202.645C204.845 202.645 206.02 203.119 206.969 204.067C207.917 205.016 208.392 206.192 208.392 207.594C208.392 208.996 207.917 210.172 206.969 211.12C206.02 212.069 204.845 212.543 203.442 212.543Z" fill="url(#paint10_linear_6681_51769)"/>
<path d="M258.89 198.376C258.148 197.633 257.797 196.747 257.839 195.715C257.88 194.684 258.292 193.88 259.076 193.303C261.344 191.57 263.871 190.219 266.656 189.249C269.439 188.281 272.377 187.796 275.471 187.796C278.605 187.796 281.565 188.291 284.35 189.281C287.133 190.271 289.659 191.653 291.927 193.426C292.711 194.004 293.113 194.798 293.135 195.809C293.155 196.819 292.793 197.695 292.051 198.438C291.35 199.139 290.494 199.5 289.485 199.521C288.473 199.541 287.535 199.262 286.669 198.685C285.06 197.571 283.318 196.716 281.442 196.119C279.565 195.52 277.574 195.22 275.471 195.22C273.367 195.22 271.378 195.53 269.502 196.148C267.624 196.767 265.902 197.613 264.335 198.685C263.427 199.304 262.469 199.583 261.459 199.521C260.448 199.459 259.591 199.077 258.89 198.376ZM248.373 187.92C247.672 187.219 247.321 186.363 247.321 185.351C247.321 184.342 247.692 183.507 248.435 182.847C252.106 179.754 256.23 177.33 260.808 175.576C265.386 173.824 270.274 172.948 275.471 172.948C280.667 172.948 285.555 173.824 290.133 175.576C294.711 177.33 298.836 179.754 302.507 182.847C303.249 183.507 303.631 184.332 303.652 185.322C303.672 186.312 303.311 187.178 302.568 187.92C301.867 188.621 301.012 188.993 300.002 189.034C298.991 189.075 298.073 188.766 297.248 188.106C294.237 185.672 290.886 183.775 287.196 182.414C283.503 181.053 279.595 180.372 275.471 180.372C271.346 180.372 267.439 181.053 263.748 182.414C260.056 183.775 256.704 185.672 253.693 188.106C252.869 188.766 251.951 189.075 250.942 189.034C249.93 188.993 249.074 188.621 248.373 187.92ZM275.471 212.543C274.068 212.543 272.893 212.069 271.944 211.12C270.996 210.172 270.521 208.996 270.521 207.594C270.521 206.192 270.996 205.016 271.944 204.067C272.893 203.119 274.068 202.645 275.471 202.645C276.873 202.645 278.048 203.119 278.997 204.067C279.946 205.016 280.42 206.192 280.42 207.594C280.42 208.996 279.946 210.172 278.997 211.12C278.048 212.069 276.873 212.543 275.471 212.543Z" fill="url(#paint11_linear_6681_51769)"/>
<path fill-rule="evenodd" clip-rule="evenodd" d="M188.91 222.442C181.931 222.442 176.274 228.1 176.274 235.079V276.78C176.274 283.759 181.931 289.416 188.91 289.416H290.004C296.983 289.416 302.64 283.759 302.64 276.78V235.079C302.64 228.1 296.983 222.442 290.004 222.442H188.91ZM219.086 245.376L219.147 266.606H214.537L214.507 253.868L208.259 264.362H206.045L199.828 254.141V266.606H195.218V245.376H199.282L207.228 258.569L215.052 245.376H219.086ZM229.349 266.606H224.436V245.376H229.349V266.606ZM258.508 245.376L258.569 266.606H253.959L253.929 253.868L247.681 264.362H245.467L239.25 254.141V266.606H234.64V245.376H238.704L246.65 258.569L254.475 245.376H258.508ZM285.755 255.991C285.755 262.33 280.812 266.97 274.14 266.97C267.437 266.97 262.524 262.299 262.524 255.991C262.524 249.683 267.437 245.012 274.14 245.012C280.812 245.012 285.755 249.652 285.755 255.991ZM267.498 255.991C267.498 260.025 270.349 262.784 274.14 262.784C277.931 262.784 280.782 260.025 280.782 255.991C280.782 251.957 277.931 249.198 274.14 249.198C270.349 249.198 267.498 251.957 267.498 255.991Z" fill="url(#paint12_linear_6681_51769)"/>
</g>
<defs>
<filter id="filter0_diii_6681_51769" x="0.0803986" y="-46.3073" width="486.869" height="534.144" filterUnits="userSpaceOnUse" color-interpolation-filters="sRGB">
<feFlood flood-opacity="0" result="BackgroundImageFix"/>
<feColorMatrix in="SourceAlpha" type="matrix" values="0 0 0 0 0 0 0 0 0 0 0 0 0 0 0 0 0 0 127 0" result="hardAlpha"/>
<feOffset dy="22.3623"/>
<feGaussianBlur stdDeviation="43.4492"/>
<feColorMatrix type="matrix" values="0 0 0 0 0.196078 0 0 0 0 0.380392 0 0 0 0 1 0 0 0 0.3 0"/>
<feBlend mode="normal" in2="BackgroundImageFix" result="effect1_dropShadow_6681_51769"/>
<feBlend mode="normal" in="SourceGraphic" in2="effect1_dropShadow_6681_51769" result="shape"/>
<feColorMatrix in="SourceAlpha" type="matrix" values="0 0 0 0 0 0 0 0 0 0 0 0 0 0 0 0 0 0 127 0" result="hardAlpha"/>
<feOffset dx="11.1811" dy="83.8586"/>
<feGaussianBlur stdDeviation="83.8586"/>
<feComposite in2="hardAlpha" operator="arithmetic" k2="-1" k3="1"/>
<feColorMatrix type="matrix" values="0 0 0 0 0.196078 0 0 0 0 0.380392 0 0 0 0 1 0 0 0 1 0"/>
<feBlend mode="normal" in2="shape" result="effect2_innerShadow_6681_51769"/>
<feColorMatrix in="SourceAlpha" type="matrix" values="0 0 0 0 0 0 0 0 0 0 0 0 0 0 0 0 0 0 127 0" result="hardAlpha"/>
<feOffset dy="-111.811"/>
<feGaussianBlur stdDeviation="139.764"/>
<feComposite in2="hardAlpha" operator="arithmetic" k2="-1" k3="1"/>
<feColorMatrix type="matrix" values="0 0 0 0 1 0 0 0 0 1 0 0 0 0 1 0 0 0 0.53 0"/>
<feBlend mode="normal" in2="effect2_innerShadow_6681_51769" result="effect3_innerShadow_6681_51769"/>
<feColorMatrix in="SourceAlpha" type="matrix" values="0 0 0 0 0 0 0 0 0 0 0 0 0 0 0 0 0 0 127 0" result="hardAlpha"/>
<feOffset dy="11.1811"/>
<feGaussianBlur stdDeviation="27.9529"/>
<feComposite in2="hardAlpha" operator="arithmetic" k2="-1" k3="1"/>
<feColorMatrix type="matrix" values="0 0 0 0 1 0 0 0 0 1 0 0 0 0 1 0 0 0 0.58 0"/>
<feBlend mode="normal" in2="effect3_innerShadow_6681_51769" result="effect4_innerShadow_6681_51769"/>
</filter>
<filter id="filter1_diii_6681_51769" x="107.272" y="48.4988" width="136.003" height="168.645" filterUnits="userSpaceOnUse" color-interpolation-filters="sRGB">
<feFlood flood-opacity="0" result="BackgroundImageFix"/>
<feColorMatrix in="SourceAlpha" type="matrix" values="0 0 0 0 0 0 0 0 0 0 0 0 0 0 0 0 0 0 127 0" result="hardAlpha"/>
<feOffset dy="15.4403"/>
<feGaussianBlur stdDeviation="30"/>
<feColorMatrix type="matrix" values="0 0 0 0 0.196078 0 0 0 0 0.380392 0 0 0 0 1 0 0 0 0.2 0"/>
<feBlend mode="normal" in2="BackgroundImageFix" result="effect1_dropShadow_6681_51769"/>
<feBlend mode="normal" in="SourceGraphic" in2="effect1_dropShadow_6681_51769" result="shape"/>
<feColorMatrix in="SourceAlpha" type="matrix" values="0 0 0 0 0 0 0 0 0 0 0 0 0 0 0 0 0 0 127 0" result="hardAlpha"/>
<feOffset dx="7.72016" dy="57.9012"/>
<feGaussianBlur stdDeviation="57.9012"/>
<feComposite in2="hardAlpha" operator="arithmetic" k2="-1" k3="1"/>
<feColorMatrix type="matrix" values="0 0 0 0 0.196078 0 0 0 0 0.380392 0 0 0 0 1 0 0 0 1 0"/>
<feBlend mode="normal" in2="shape" result="effect2_innerShadow_6681_51769"/>
<feColorMatrix in="SourceAlpha" type="matrix" values="0 0 0 0 0 0 0 0 0 0 0 0 0 0 0 0 0 0 127 0" result="hardAlpha"/>
<feOffset dy="-77.2016"/>
<feGaussianBlur stdDeviation="96.502"/>
<feComposite in2="hardAlpha" operator="arithmetic" k2="-1" k3="1"/>
<feColorMatrix type="matrix" values="0 0 0 0 1 0 0 0 0 1 0 0 0 0 1 0 0 0 0.53 0"/>
<feBlend mode="normal" in2="effect2_innerShadow_6681_51769" result="effect3_innerShadow_6681_51769"/>
<feColorMatrix in="SourceAlpha" type="matrix" values="0 0 0 0 0 0 0 0 0 0 0 0 0 0 0 0 0 0 127 0" result="hardAlpha"/>
<feOffset dy="7.72016"/>
<feGaussianBlur stdDeviation="19.3004"/>
<feComposite in2="hardAlpha" operator="arithmetic" k2="-1" k3="1"/>
<feColorMatrix type="matrix" values="0 0 0 0 1 0 0 0 0 1 0 0 0 0 1 0 0 0 0.58 0"/>
<feBlend mode="normal" in2="effect3_innerShadow_6681_51769" result="effect4_innerShadow_6681_51769"/>
</filter>
<filter id="filter2_diii_6681_51769" x="45.7828" y="210.982" width="200" height="232.642" filterUnits="userSpaceOnUse" color-interpolation-filters="sRGB">
<feFlood flood-opacity="0" result="BackgroundImageFix"/>
<feColorMatrix in="SourceAlpha" type="matrix" values="0 0 0 0 0 0 0 0 0 0 0 0 0 0 0 0 0 0 127 0" result="hardAlpha"/>
<feOffset dy="15.4403"/>
<feGaussianBlur stdDeviation="30"/>
<feColorMatrix type="matrix" values="0 0 0 0 0.196078 0 0 0 0 0.380392 0 0 0 0 1 0 0 0 0.2 0"/>
<feBlend mode="normal" in2="BackgroundImageFix" result="effect1_dropShadow_6681_51769"/>
<feBlend mode="normal" in="SourceGraphic" in2="effect1_dropShadow_6681_51769" result="shape"/>
<feColorMatrix in="SourceAlpha" type="matrix" values="0 0 0 0 0 0 0 0 0 0 0 0 0 0 0 0 0 0 127 0" result="hardAlpha"/>
<feOffset dx="7.72016" dy="57.9012"/>
<feGaussianBlur stdDeviation="57.9012"/>
<feComposite in2="hardAlpha" operator="arithmetic" k2="-1" k3="1"/>
<feColorMatrix type="matrix" values="0 0 0 0 0.196078 0 0 0 0 0.380392 0 0 0 0 1 0 0 0 1 0"/>
<feBlend mode="normal" in2="shape" result="effect2_innerShadow_6681_51769"/>
<feColorMatrix in="SourceAlpha" type="matrix" values="0 0 0 0 0 0 0 0 0 0 0 0 0 0 0 0 0 0 127 0" result="hardAlpha"/>
<feOffset dy="-77.2016"/>
<feGaussianBlur stdDeviation="96.502"/>
<feComposite in2="hardAlpha" operator="arithmetic" k2="-1" k3="1"/>
<feColorMatrix type="matrix" values="0 0 0 0 1 0 0 0 0 1 0 0 0 0 1 0 0 0 0.53 0"/>
<feBlend mode="normal" in2="effect2_innerShadow_6681_51769" result="effect3_innerShadow_6681_51769"/>
<feColorMatrix in="SourceAlpha" type="matrix" values="0 0 0 0 0 0 0 0 0 0 0 0 0 0 0 0 0 0 127 0" result="hardAlpha"/>
<feOffset dy="7.72016"/>
<feGaussianBlur stdDeviation="19.3004"/>
<feComposite in2="hardAlpha" operator="arithmetic" k2="-1" k3="1"/>
<feColorMatrix type="matrix" values="0 0 0 0 1 0 0 0 0 1 0 0 0 0 1 0 0 0 0.58 0"/>
<feBlend mode="normal" in2="effect3_innerShadow_6681_51769" result="effect4_innerShadow_6681_51769"/>
</filter>
<filter id="filter3_diii_6681_51769" x="286.154" y="143.931" width="154.006" height="186.648" filterUnits="userSpaceOnUse" color-interpolation-filters="sRGB">
<feFlood flood-opacity="0" result="BackgroundImageFix"/>
<feColorMatrix in="SourceAlpha" type="matrix" values="0 0 0 0 0 0 0 0 0 0 0 0 0 0 0 0 0 0 127 0" result="hardAlpha"/>
<feOffset dy="15.4403"/>
<feGaussianBlur stdDeviation="30"/>
<feColorMatrix type="matrix" values="0 0 0 0 0.196078 0 0 0 0 0.380392 0 0 0 0 1 0 0 0 0.2 0"/>
<feBlend mode="normal" in2="BackgroundImageFix" result="effect1_dropShadow_6681_51769"/>
<feBlend mode="normal" in="SourceGraphic" in2="effect1_dropShadow_6681_51769" result="shape"/>
<feColorMatrix in="SourceAlpha" type="matrix" values="0 0 0 0 0 0 0 0 0 0 0 0 0 0 0 0 0 0 127 0" result="hardAlpha"/>
<feOffset dx="7.72016" dy="57.9012"/>
<feGaussianBlur stdDeviation="57.9012"/>
<feComposite in2="hardAlpha" operator="arithmetic" k2="-1" k3="1"/>
<feColorMatrix type="matrix" values="0 0 0 0 0.196078 0 0 0 0 0.380392 0 0 0 0 1 0 0 0 1 0"/>
<feBlend mode="normal" in2="shape" result="effect2_innerShadow_6681_51769"/>
<feColorMatrix in="SourceAlpha" type="matrix" values="0 0 0 0 0 0 0 0 0 0 0 0 0 0 0 0 0 0 127 0" result="hardAlpha"/>
<feOffset dy="-77.2016"/>
<feGaussianBlur stdDeviation="96.502"/>
<feComposite in2="hardAlpha" operator="arithmetic" k2="-1" k3="1"/>
<feColorMatrix type="matrix" values="0 0 0 0 1 0 0 0 0 1 0 0 0 0 1 0 0 0 0.53 0"/>
<feBlend mode="normal" in2="effect2_innerShadow_6681_51769" result="effect3_innerShadow_6681_51769"/>
<feColorMatrix in="SourceAlpha" type="matrix" values="0 0 0 0 0 0 0 0 0 0 0 0 0 0 0 0 0 0 127 0" result="hardAlpha"/>
<feOffset dy="7.72016"/>
<feGaussianBlur stdDeviation="19.3004"/>
<feComposite in2="hardAlpha" operator="arithmetic" k2="-1" k3="1"/>
<feColorMatrix type="matrix" values="0 0 0 0 1 0 0 0 0 1 0 0 0 0 1 0 0 0 0.58 0"/>
<feBlend mode="normal" in2="effect3_innerShadow_6681_51769" result="effect4_innerShadow_6681_51769"/>
</filter>
<filter id="filter4_diii_6681_51769" x="220.174" y="188.385" width="171.009" height="203.65" filterUnits="userSpaceOnUse" color-interpolation-filters="sRGB">
<feFlood flood-opacity="0" result="BackgroundImageFix"/>
<feColorMatrix in="SourceAlpha" type="matrix" values="0 0 0 0 0 0 0 0 0 0 0 0 0 0 0 0 0 0 127 0" result="hardAlpha"/>
<feOffset dy="15.4403"/>
<feGaussianBlur stdDeviation="30"/>
<feColorMatrix type="matrix" values="0 0 0 0 0.196078 0 0 0 0 0.380392 0 0 0 0 1 0 0 0 0.2 0"/>
<feBlend mode="normal" in2="BackgroundImageFix" result="effect1_dropShadow_6681_51769"/>
<feBlend mode="normal" in="SourceGraphic" in2="effect1_dropShadow_6681_51769" result="shape"/>
<feColorMatrix in="SourceAlpha" type="matrix" values="0 0 0 0 0 0 0 0 0 0 0 0 0 0 0 0 0 0 127 0" result="hardAlpha"/>
<feOffset dx="7.72016" dy="57.9012"/>
<feGaussianBlur stdDeviation="57.9012"/>
<feComposite in2="hardAlpha" operator="arithmetic" k2="-1" k3="1"/>
<feColorMatrix type="matrix" values="0 0 0 0 0.196078 0 0 0 0 0.380392 0 0 0 0 1 0 0 0 1 0"/>
<feBlend mode="normal" in2="shape" result="effect2_innerShadow_6681_51769"/>
<feColorMatrix in="SourceAlpha" type="matrix" values="0 0 0 0 0 0 0 0 0 0 0 0 0 0 0 0 0 0 127 0" result="hardAlpha"/>
<feOffset dy="-77.2016"/>
<feGaussianBlur stdDeviation="96.502"/>
<feComposite in2="hardAlpha" operator="arithmetic" k2="-1" k3="1"/>
<feColorMatrix type="matrix" values="0 0 0 0 1 0 0 0 0 1 0 0 0 0 1 0 0 0 0.53 0"/>
<feBlend mode="normal" in2="effect2_innerShadow_6681_51769" result="effect3_innerShadow_6681_51769"/>
<feColorMatrix in="SourceAlpha" type="matrix" values="0 0 0 0 0 0 0 0 0 0 0 0 0 0 0 0 0 0 127 0" result="hardAlpha"/>
<feOffset dy="7.72016"/>
<feGaussianBlur stdDeviation="19.3004"/>
<feComposite in2="hardAlpha" operator="arithmetic" k2="-1" k3="1"/>
<feColorMatrix type="matrix" values="0 0 0 0 1 0 0 0 0 1 0 0 0 0 1 0 0 0 0.58 0"/>
<feBlend mode="normal" in2="effect3_innerShadow_6681_51769" result="effect4_innerShadow_6681_51769"/>
</filter>
<filter id="filter5_diii_6681_51769" x="255.159" y="193.658" width="136.003" height="168.645" filterUnits="userSpaceOnUse" color-interpolation-filters="sRGB">
<feFlood flood-opacity="0" result="BackgroundImageFix"/>
<feColorMatrix in="SourceAlpha" type="matrix" values="0 0 0 0 0 0 0 0 0 0 0 0 0 0 0 0 0 0 127 0" result="hardAlpha"/>
<feOffset dy="15.4403"/>
<feGaussianBlur stdDeviation="30"/>
<feColorMatrix type="matrix" values="0 0 0 0 0.196078 0 0 0 0 0.380392 0 0 0 0 1 0 0 0 0.2 0"/>
<feBlend mode="normal" in2="BackgroundImageFix" result="effect1_dropShadow_6681_51769"/>
<feBlend mode="normal" in="SourceGraphic" in2="effect1_dropShadow_6681_51769" result="shape"/>
<feColorMatrix in="SourceAlpha" type="matrix" values="0 0 0 0 0 0 0 0 0 0 0 0 0 0 0 0 0 0 127 0" result="hardAlpha"/>
<feOffset dx="7.72016" dy="57.9012"/>
<feGaussianBlur stdDeviation="57.9012"/>
<feComposite in2="hardAlpha" operator="arithmetic" k2="-1" k3="1"/>
<feColorMatrix type="matrix" values="0 0 0 0 0.196078 0 0 0 0 0.380392 0 0 0 0 1 0 0 0 1 0"/>
<feBlend mode="normal" in2="shape" result="effect2_innerShadow_6681_51769"/>
<feColorMatrix in="SourceAlpha" type="matrix" values="0 0 0 0 0 0 0 0 0 0 0 0 0 0 0 0 0 0 127 0" result="hardAlpha"/>
<feOffset dy="-77.2016"/>
<feGaussianBlur stdDeviation="96.502"/>
<feComposite in2="hardAlpha" operator="arithmetic" k2="-1" k3="1"/>
<feColorMatrix type="matrix" values="0 0 0 0 1 0 0 0 0 1 0 0 0 0 1 0 0 0 0.53 0"/>
<feBlend mode="normal" in2="effect2_innerShadow_6681_51769" result="effect3_innerShadow_6681_51769"/>
<feColorMatrix in="SourceAlpha" type="matrix" values="0 0 0 0 0 0 0 0 0 0 0 0 0 0 0 0 0 0 127 0" result="hardAlpha"/>
<feOffset dy="7.72016"/>
<feGaussianBlur stdDeviation="19.3004"/>
<feComposite in2="hardAlpha" operator="arithmetic" k2="-1" k3="1"/>
<feColorMatrix type="matrix" values="0 0 0 0 1 0 0 0 0 1 0 0 0 0 1 0 0 0 0.58 0"/>
<feBlend mode="normal" in2="effect3_innerShadow_6681_51769" result="effect4_innerShadow_6681_51769"/>
</filter>
<filter id="filter6_diii_6681_51769" x="294.641" y="199.845" width="130.002" height="162.644" filterUnits="userSpaceOnUse" color-interpolation-filters="sRGB">
<feFlood flood-opacity="0" result="BackgroundImageFix"/>
<feColorMatrix in="SourceAlpha" type="matrix" values="0 0 0 0 0 0 0 0 0 0 0 0 0 0 0 0 0 0 127 0" result="hardAlpha"/>
<feOffset dy="15.4403"/>
<feGaussianBlur stdDeviation="30"/>
<feColorMatrix type="matrix" values="0 0 0 0 0.196078 0 0 0 0 0.380392 0 0 0 0 1 0 0 0 0.2 0"/>
<feBlend mode="normal" in2="BackgroundImageFix" result="effect1_dropShadow_6681_51769"/>
<feBlend mode="normal" in="SourceGraphic" in2="effect1_dropShadow_6681_51769" result="shape"/>
<feColorMatrix in="SourceAlpha" type="matrix" values="0 0 0 0 0 0 0 0 0 0 0 0 0 0 0 0 0 0 127 0" result="hardAlpha"/>
<feOffset dx="7.72016" dy="57.9012"/>
<feGaussianBlur stdDeviation="57.9012"/>
<feComposite in2="hardAlpha" operator="arithmetic" k2="-1" k3="1"/>
<feColorMatrix type="matrix" values="0 0 0 0 0.196078 0 0 0 0 0.380392 0 0 0 0 1 0 0 0 1 0"/>
<feBlend mode="normal" in2="shape" result="effect2_innerShadow_6681_51769"/>
<feColorMatrix in="SourceAlpha" type="matrix" values="0 0 0 0 0 0 0 0 0 0 0 0 0 0 0 0 0 0 127 0" result="hardAlpha"/>
<feOffset dy="-77.2016"/>
<feGaussianBlur stdDeviation="96.502"/>
<feComposite in2="hardAlpha" operator="arithmetic" k2="-1" k3="1"/>
<feColorMatrix type="matrix" values="0 0 0 0 1 0 0 0 0 1 0 0 0 0 1 0 0 0 0.53 0"/>
<feBlend mode="normal" in2="effect2_innerShadow_6681_51769" result="effect3_innerShadow_6681_51769"/>
<feColorMatrix in="SourceAlpha" type="matrix" values="0 0 0 0 0 0 0 0 0 0 0 0 0 0 0 0 0 0 127 0" result="hardAlpha"/>
<feOffset dy="7.72016"/>
<feGaussianBlur stdDeviation="19.3004"/>
<feComposite in2="hardAlpha" operator="arithmetic" k2="-1" k3="1"/>
<feColorMatrix type="matrix" values="0 0 0 0 1 0 0 0 0 1 0 0 0 0 1 0 0 0 0.58 0"/>
<feBlend mode="normal" in2="effect3_innerShadow_6681_51769" result="effect4_innerShadow_6681_51769"/>
</filter>
<radialGradient id="paint0_radial_6681_51769" cx="0" cy="0" r="1" gradientUnits="userSpaceOnUse" gradientTransform="translate(307.382 163.183) rotate(110.973) scale(321.875)">
<stop stop-color="#3261FF"/>
<stop offset="1" stop-color="#A7A8AD" stop-opacity="0"/>
</radialGradient>
<radialGradient id="paint1_radial_6681_51769" cx="0" cy="0" r="1" gradientUnits="userSpaceOnUse" gradientTransform="translate(178.538 130.694) rotate(110.973) scale(16.4499)">
<stop stop-color="#3261FF"/>
<stop offset="1" stop-color="#A7A8AD" stop-opacity="0"/>
</radialGradient>
<radialGradient id="paint2_radial_6681_51769" cx="0" cy="0" r="1" gradientUnits="userSpaceOnUse" gradientTransform="translate(162.1 313.147) rotate(110.973) scale(82.2359)">
<stop stop-color="#3261FF"/>
<stop offset="1" stop-color="#A7A8AD" stop-opacity="0"/>
</radialGradient>
<radialGradient id="paint3_radial_6681_51769" cx="0" cy="0" r="1" gradientUnits="userSpaceOnUse" gradientTransform="translate(370.092 231.743) rotate(110.973) scale(34.956)">
<stop stop-color="#3261FF"/>
<stop offset="1" stop-color="#A7A8AD" stop-opacity="0"/>
</radialGradient>
<radialGradient id="paint4_radial_6681_51769" cx="0" cy="0" r="1" gradientUnits="userSpaceOnUse" gradientTransform="translate(316.082 281.502) rotate(110.973) scale(52.434)">
<stop stop-color="#3261FF"/>
<stop offset="1" stop-color="#A7A8AD" stop-opacity="0"/>
</radialGradient>
<radialGradient id="paint5_radial_6681_51769" cx="0" cy="0" r="1" gradientUnits="userSpaceOnUse" gradientTransform="translate(326.425 275.853) rotate(110.973) scale(16.4499)">
<stop stop-color="#3261FF"/>
<stop offset="1" stop-color="#A7A8AD" stop-opacity="0"/>
</radialGradient>
<radialGradient id="paint6_radial_6681_51769" cx="0" cy="0" r="1" gradientUnits="userSpaceOnUse" gradientTransform="translate(361.681 280.167) rotate(110.973) scale(10.2812)">
<stop stop-color="#3261FF"/>
<stop offset="1" stop-color="#A7A8AD" stop-opacity="0"/>
</radialGradient>
<linearGradient id="paint7_linear_6681_51769" x1="207.487" y1="170.131" x2="207.487" y2="209.726" gradientUnits="userSpaceOnUse">
<stop stop-color="#3261FF"/>
<stop offset="1" stop-color="#3261FF" stop-opacity="0"/>
</linearGradient>
<linearGradient id="paint8_linear_6681_51769" x1="279.515" y1="170.131" x2="279.515" y2="209.726" gradientUnits="userSpaceOnUse">
<stop stop-color="#3261FF"/>
<stop offset="1" stop-color="#3261FF" stop-opacity="0"/>
</linearGradient>
<linearGradient id="paint9_linear_6681_51769" x1="243.484" y1="219.625" x2="243.484" y2="286.599" gradientUnits="userSpaceOnUse">
<stop stop-color="#3261FF"/>
<stop offset="1" stop-color="#3261FF" stop-opacity="0"/>
</linearGradient>
<linearGradient id="paint10_linear_6681_51769" x1="191.72" y1="176.892" x2="217.046" y2="212.485" gradientUnits="userSpaceOnUse">
<stop stop-color="#3261FF"/>
<stop offset="1" stop-color="#7A99FF"/>
</linearGradient>
<linearGradient id="paint11_linear_6681_51769" x1="260.853" y1="172.785" x2="290.286" y2="217.961" gradientUnits="userSpaceOnUse">
<stop stop-color="#3261FF"/>
<stop offset="1" stop-color="#7A99FF"/>
</linearGradient>
<linearGradient id="paint12_linear_6681_51769" x1="239.457" y1="222.442" x2="288.233" y2="301.468" gradientUnits="userSpaceOnUse">
<stop stop-color="#3261FF"/>
<stop offset="1" stop-color="#7A99FF"/>
</linearGradient>
<clipPath id="clip0_6681_51769">
<rect width="140" height="140" fill="white" transform="translate(173.747 151.542)"/>
</clipPath>
</defs>
</svg>
