<svg viewBox="0 0 141 141" fill="none" xmlns="http://www.w3.org/2000/svg">
<g clip-path="url(#clip0_6681_51777)">
<g opacity="0.5">
<path d="M17.8901 44.5582C17.1477 43.8158 16.7971 42.929 16.8384 41.8979C16.8796 40.8668 17.2921 40.0625 18.0757 39.4851C20.3442 37.7528 22.8708 36.4016 25.6557 35.4316C28.4388 34.4632 31.3771 33.9789 34.4705 33.9789C37.6051 33.9789 40.5648 34.4739 43.3496 35.4637C46.1328 36.4536 48.6586 37.8353 50.9271 39.6088C51.7107 40.1863 52.1133 40.9806 52.1347 41.992C52.1545 43.0016 51.7932 43.8777 51.0508 44.6201C50.3497 45.3212 49.4942 45.6825 48.4846 45.704C47.4733 45.7238 46.5345 45.445 45.6684 44.8675C44.0598 43.7539 42.3177 42.8985 40.4419 42.3013C38.5644 41.7024 36.5739 41.403 34.4705 41.403C32.367 41.403 30.3773 41.7123 28.5015 42.331C26.6241 42.9497 24.9017 43.7952 23.3344 44.8675C22.427 45.4862 21.4685 45.765 20.4588 45.704C19.4475 45.6413 18.5913 45.2594 17.8901 44.5582ZM7.37272 34.1027C6.67156 33.4015 6.32098 32.5453 6.32098 31.534C6.32098 30.5243 6.69219 29.6895 7.43459 29.0296C11.1054 25.9362 15.2298 23.5127 19.808 21.759C24.3861 20.0069 29.2736 19.1309 34.4705 19.1309C39.6673 19.1309 44.5548 20.0069 49.1329 21.759C53.7111 23.5127 57.8356 25.9362 61.5063 29.0296C62.2487 29.6895 62.6307 30.5144 62.6521 31.5043C62.6719 32.4941 62.3106 33.3603 61.5682 34.1027C60.8671 34.8038 60.0116 35.175 59.002 35.2163C57.9906 35.2575 57.0725 34.9482 56.2476 34.2883C53.2368 31.8548 49.8861 29.9576 46.1955 28.5965C42.5033 27.2354 38.5949 26.5549 34.4705 26.5549C30.346 26.5549 26.4385 27.2354 22.7479 28.5965C19.0557 29.9576 15.7041 31.8548 12.6933 34.2883C11.8684 34.9482 10.9511 35.2575 9.94144 35.2163C8.93012 35.175 8.07388 34.8038 7.37272 34.1027ZM34.4705 58.7257C33.0681 58.7257 31.8927 58.2514 30.944 57.3028C29.9954 56.3542 29.5211 55.1787 29.5211 53.7764C29.5211 52.3741 29.9954 51.1986 30.944 50.25C31.8927 49.3013 33.0681 48.827 34.4705 48.827C35.8728 48.827 37.0483 49.3013 37.9969 50.25C38.9455 51.1986 39.4198 52.3741 39.4198 53.7764C39.4198 55.1787 38.9455 56.3542 37.9969 57.3028C37.0483 58.2514 35.8728 58.7257 34.4705 58.7257Z" fill="url(#paint0_linear_6681_51777)"/>
<path d="M89.918 44.5582C89.1756 43.8158 88.825 42.929 88.8662 41.8979C88.9075 40.8668 89.3199 40.0625 90.1036 39.4851C92.372 37.7528 94.8987 36.4016 97.6835 35.4316C100.467 34.4632 103.405 33.9789 106.498 33.9789C109.633 33.9789 112.593 34.4739 115.377 35.4637C118.161 36.4536 120.686 37.8353 122.955 39.6088C123.739 40.1863 124.141 40.9806 124.163 41.992C124.182 43.0016 123.821 43.8777 123.079 44.6201C122.378 45.3212 121.522 45.6825 120.512 45.704C119.501 45.7238 118.562 45.445 117.696 44.8675C116.088 43.7539 114.346 42.8985 112.47 42.3013C110.592 41.7024 108.602 41.403 106.498 41.403C104.395 41.403 102.405 41.7123 100.529 42.331C98.6519 42.9497 96.9296 43.7952 95.3623 44.8675C94.4549 45.4862 93.4964 45.765 92.4867 45.704C91.4754 45.6413 90.6191 45.2594 89.918 44.5582ZM79.4006 34.1027C78.6994 33.4015 78.3488 32.5453 78.3488 31.534C78.3488 30.5243 78.72 29.6895 79.4625 29.0296C83.1332 25.9362 87.2577 23.5127 91.8359 21.759C96.414 20.0069 101.302 19.1309 106.498 19.1309C111.695 19.1309 116.583 20.0069 121.161 21.759C125.739 23.5127 129.863 25.9362 133.534 29.0296C134.277 29.6895 134.659 30.5144 134.68 31.5043C134.7 32.4941 134.338 33.3603 133.596 34.1027C132.895 34.8038 132.039 35.175 131.03 35.2163C130.019 35.2575 129.1 34.9482 128.276 34.2883C125.265 31.8548 121.914 29.9576 118.223 28.5965C114.531 27.2354 110.623 26.5549 106.498 26.5549C102.374 26.5549 98.4663 27.2354 94.7758 28.5965C91.0835 29.9576 87.732 31.8548 84.7211 34.2883C83.8963 34.9482 82.979 35.2575 81.9693 35.2163C80.958 35.175 80.1017 34.8038 79.4006 34.1027ZM106.498 58.7257C105.096 58.7257 103.921 58.2514 102.972 57.3028C102.023 56.3542 101.549 55.1787 101.549 53.7764C101.549 52.3741 102.023 51.1986 102.972 50.25C103.921 49.3013 105.096 48.827 106.498 48.827C107.901 48.827 109.076 49.3013 110.025 50.25C110.973 51.1986 111.448 52.3741 111.448 53.7764C111.448 55.1787 110.973 56.3542 110.025 57.3028C109.076 58.2514 107.901 58.7257 106.498 58.7257Z" fill="url(#paint1_linear_6681_51777)"/>
<path d="M7.30115 81.2613C7.30115 74.2823 12.9588 68.6246 19.9378 68.6246H121.031C128.01 68.6246 133.668 74.2823 133.668 81.2613V122.962C133.668 129.941 128.01 135.599 121.031 135.599H19.9378C12.9588 135.599 7.30115 129.941 7.30115 122.962V81.2613Z" fill="url(#paint2_linear_6681_51777)"/>
</g>
<path d="M13.862 47.3757C13.1196 46.6333 12.769 45.7465 12.8103 44.7154C12.8515 43.6843 13.264 42.88 14.0476 42.3026C16.3161 40.5703 18.8427 39.2192 21.6275 38.2491C24.4107 37.2807 27.349 36.7964 30.4424 36.7964C33.577 36.7964 36.5367 37.2914 39.3215 38.2813C42.1047 39.2711 44.6305 40.6528 46.899 42.4263C47.6826 43.0038 48.0852 43.7981 48.1066 44.8095C48.1264 45.8191 47.7651 46.6952 47.0227 47.4376C46.3216 48.1387 45.4661 48.5 44.4565 48.5215C43.4452 48.5413 42.5064 48.2625 41.6403 47.685C40.0317 46.5714 38.2896 45.716 36.4138 45.1188C34.5363 44.5199 32.5458 44.2205 30.4424 44.2205C28.3389 44.2205 26.3492 44.5298 24.4734 45.1485C22.596 45.7672 20.8736 46.6127 19.3063 47.685C18.3989 48.3037 17.4404 48.5825 16.4307 48.5215C15.4194 48.4588 14.5632 48.0769 13.862 47.3757ZM3.34462 36.9202C2.64346 36.219 2.29288 35.3628 2.29288 34.3515C2.29288 33.3418 2.66408 32.507 3.40648 31.8471C7.07726 28.7537 11.2017 26.3302 15.7799 24.5765C20.358 22.8244 25.2455 21.9484 30.4424 21.9484C35.6392 21.9484 40.5267 22.8244 45.1048 24.5765C49.683 26.3302 53.8075 28.7537 57.4782 31.8471C58.2206 32.507 58.6026 33.3319 58.624 34.3218C58.6438 35.3116 58.2825 36.1778 57.5401 36.9202C56.8389 37.6213 55.9835 37.9925 54.9739 38.0338C53.9625 38.075 53.0444 37.7657 52.2195 37.1058C49.2087 34.6723 45.858 32.7751 42.1674 31.414C38.4752 30.0529 34.5668 29.3724 30.4424 29.3724C26.3179 29.3724 22.4104 30.0529 18.7198 31.414C15.0276 32.7751 11.676 34.6723 8.66518 37.1058C7.84028 37.7657 6.923 38.075 5.91333 38.0338C4.90201 37.9925 4.04578 37.6213 3.34462 36.9202ZM30.4424 61.5432C29.04 61.5432 27.8646 61.0689 26.9159 60.1203C25.9673 59.1717 25.493 57.9962 25.493 56.5939C25.493 55.1916 25.9673 54.0161 26.9159 53.0675C27.8646 52.1188 29.04 51.6445 30.4424 51.6445C31.8447 51.6445 33.0202 52.1188 33.9688 53.0675C34.9174 54.0161 35.3917 55.1916 35.3917 56.5939C35.3917 57.9962 34.9174 59.1717 33.9688 60.1203C33.0202 61.0689 31.8447 61.5432 30.4424 61.5432Z" fill="url(#paint3_linear_6681_51777)"/>
<path d="M85.8903 47.3757C85.1479 46.6333 84.7973 45.7465 84.8386 44.7154C84.8798 43.6843 85.2922 42.88 86.0759 42.3026C88.3444 40.5703 90.871 39.2192 93.6558 38.2491C96.439 37.2807 99.3773 36.7964 102.471 36.7964C105.605 36.7964 108.565 37.2914 111.35 38.2813C114.133 39.2711 116.659 40.6528 118.927 42.4263C119.711 43.0038 120.113 43.7981 120.135 44.8095C120.155 45.8191 119.793 46.6952 119.051 47.4376C118.35 48.1387 117.494 48.5 116.485 48.5215C115.473 48.5413 114.535 48.2625 113.669 47.685C112.06 46.5714 110.318 45.716 108.442 45.1188C106.565 44.5199 104.574 44.2205 102.471 44.2205C100.367 44.2205 98.3775 44.5298 96.5017 45.1485C94.6243 45.7672 92.9019 46.6127 91.3346 47.685C90.4272 48.3037 89.4687 48.5825 88.459 48.5215C87.4477 48.4588 86.5915 48.0769 85.8903 47.3757ZM75.3729 36.9202C74.6717 36.219 74.3212 35.3628 74.3212 34.3515C74.3212 33.3418 74.6924 32.507 75.4348 31.8471C79.1055 28.7537 83.23 26.3302 87.8082 24.5765C92.3863 22.8244 97.2738 21.9484 102.471 21.9484C107.667 21.9484 112.555 22.8244 117.133 24.5765C121.711 26.3302 125.836 28.7537 129.507 31.8471C130.249 32.507 130.631 33.3319 130.652 34.3218C130.672 35.3116 130.311 36.1778 129.568 36.9202C128.867 37.6213 128.012 37.9925 127.002 38.0338C125.991 38.075 125.073 37.7657 124.248 37.1058C121.237 34.6723 117.886 32.7751 114.196 31.414C110.503 30.0529 106.595 29.3724 102.471 29.3724C98.3462 29.3724 94.4387 30.0529 90.7481 31.414C87.0559 32.7751 83.7043 34.6723 80.6935 37.1058C79.8686 37.7657 78.9513 38.075 77.9416 38.0338C76.9303 37.9925 76.0741 37.6213 75.3729 36.9202ZM102.471 61.5432C101.068 61.5432 99.8929 61.0689 98.9442 60.1203C97.9956 59.1717 97.5213 57.9962 97.5213 56.5939C97.5213 55.1916 97.9956 54.0161 98.9442 53.0675C99.8929 52.1188 101.068 51.6445 102.471 51.6445C103.873 51.6445 105.048 52.1188 105.997 53.0675C106.946 54.0161 107.42 55.1916 107.42 56.5939C107.42 57.9962 106.946 59.1717 105.997 60.1203C105.048 61.0689 103.873 61.5432 102.471 61.5432Z" fill="url(#paint4_linear_6681_51777)"/>
<path fill-rule="evenodd" clip-rule="evenodd" d="M15.9104 71.4419C8.93134 71.4419 3.27371 77.0995 3.27371 84.0786V125.78C3.27371 132.759 8.93133 138.416 15.9104 138.416H117.004C123.983 138.416 129.64 132.759 129.64 125.78V84.0786C129.64 77.0995 123.983 71.4419 117.004 71.4419H15.9104ZM46.086 94.3762L46.1467 115.606H41.5368L41.5065 102.868L35.2589 113.362H33.045L26.8278 103.141V115.606H22.2179V94.3762H26.2819L34.2278 107.569L42.0524 94.3762H46.086ZM56.3494 115.606H51.4362V94.3762H56.3494V115.606ZM85.5085 94.3762L85.5691 115.606H80.9593L80.929 102.868L74.6814 113.362H72.4674L66.2502 103.141V115.606H61.6404V94.3762H65.7043L73.6502 107.569L81.4749 94.3762H85.5085ZM112.755 104.991C112.755 111.33 107.812 115.97 101.14 115.97C94.4374 115.97 89.5242 111.299 89.5242 104.991C89.5242 98.6828 94.4374 94.0123 101.14 94.0123C107.812 94.0123 112.755 98.6525 112.755 104.991ZM94.498 104.991C94.498 109.025 97.3489 111.784 101.14 111.784C104.931 111.784 107.782 109.025 107.782 104.991C107.782 100.957 104.931 98.1975 101.14 98.1975C97.3489 98.1975 94.498 100.957 94.498 104.991Z" fill="url(#paint5_linear_6681_51777)"/>
</g>
<defs>
<linearGradient id="paint0_linear_6681_51777" x1="34.4869" y1="19.1309" x2="34.4869" y2="58.7257" gradientUnits="userSpaceOnUse">
<stop stop-color="#3261FF"/>
<stop offset="1" stop-color="#3261FF" stop-opacity="0"/>
</linearGradient>
<linearGradient id="paint1_linear_6681_51777" x1="106.515" y1="19.1309" x2="106.515" y2="58.7257" gradientUnits="userSpaceOnUse">
<stop stop-color="#3261FF"/>
<stop offset="1" stop-color="#3261FF" stop-opacity="0"/>
</linearGradient>
<linearGradient id="paint2_linear_6681_51777" x1="70.4845" y1="68.6246" x2="70.4845" y2="135.599" gradientUnits="userSpaceOnUse">
<stop stop-color="#3261FF"/>
<stop offset="1" stop-color="#3261FF" stop-opacity="0"/>
</linearGradient>
<linearGradient id="paint3_linear_6681_51777" x1="18.7199" y1="25.8915" x2="44.0458" y2="61.4848" gradientUnits="userSpaceOnUse">
<stop stop-color="#3261FF"/>
<stop offset="1" stop-color="#7A99FF"/>
</linearGradient>
<linearGradient id="paint4_linear_6681_51777" x1="87.8531" y1="21.7846" x2="117.286" y2="66.9607" gradientUnits="userSpaceOnUse">
<stop stop-color="#3261FF"/>
<stop offset="1" stop-color="#7A99FF"/>
</linearGradient>
<linearGradient id="paint5_linear_6681_51777" x1="66.457" y1="71.4419" x2="115.233" y2="150.468" gradientUnits="userSpaceOnUse">
<stop stop-color="#3261FF"/>
<stop offset="1" stop-color="#7A99FF"/>
</linearGradient>
<clipPath id="clip0_6681_51777">
<rect width="140" height="140" fill="white" transform="translate(0.746704 0.54248)"/>
</clipPath>
</defs>
</svg>
