<svg viewBox="0 0 254 223" fill="none" xmlns="http://www.w3.org/2000/svg">
<g filter="url(#filter0_diii_6681_51737)">
<circle cx="90.8407" cy="132.784" r="14" fill="#3261FF"/>
<circle cx="90.8407" cy="132.784" r="14" fill="url(#paint0_radial_6681_51737)"/>
</g>
<g opacity="0.6" filter="url(#filter1_diii_6681_51737)">
<circle cx="130.074" cy="96.5" r="58.9683" fill="#3261FF"/>
<circle cx="130.074" cy="96.5" r="58.9683" fill="url(#paint1_radial_6681_51737)"/>
</g>
<g filter="url(#filter2_diii_6681_51737)">
<circle cx="184.189" cy="80.7845" r="9" fill="#3261FF"/>
<circle cx="184.189" cy="80.7845" r="9" fill="url(#paint2_radial_6681_51737)"/>
</g>
<g filter="url(#filter3_diii_6681_51737)">
<circle cx="86.3407" cy="103.284" r="9.5" fill="#3261FF"/>
<circle cx="86.3407" cy="103.284" r="9.5" fill="url(#paint3_radial_6681_51737)"/>
</g>
<g filter="url(#filter4_diii_6681_51737)">
<circle cx="67.8407" cy="63.7845" r="7" fill="#3261FF"/>
<circle cx="67.8407" cy="63.7845" r="7" fill="url(#paint4_radial_6681_51737)"/>
</g>
<g filter="url(#filter5_diii_6681_51737)">
<circle cx="75.3407" cy="49.2845" r="4.5" fill="#3261FF"/>
<circle cx="75.3407" cy="49.2845" r="4.5" fill="url(#paint5_radial_6681_51737)"/>
</g>
<g filter="url(#filter6_diii_6681_51737)">
<circle cx="187.841" cy="54.7845" r="5" fill="#3261FF"/>
<circle cx="187.841" cy="54.7845" r="5" fill="url(#paint6_radial_6681_51737)"/>
</g>
<path fill-rule="evenodd" clip-rule="evenodd" d="M139.489 80.8154C139.476 81.1271 139.582 81.3951 139.806 81.6195C140.018 81.8314 140.277 81.9469 140.583 81.9658C140.888 81.9843 141.178 81.9 141.452 81.713C141.926 81.3889 142.446 81.1333 143.014 80.9463C143.581 80.7593 144.182 80.6658 144.818 80.6658C145.454 80.6658 146.055 80.7563 146.623 80.9373C147.19 81.1178 147.716 81.3764 148.203 81.713C148.464 81.8875 148.748 81.9718 149.054 81.9658C149.359 81.9593 149.618 81.8501 149.829 81.6382C150.054 81.4138 150.163 81.149 150.157 80.8438C150.151 80.5382 150.029 80.2981 149.792 80.1235C149.106 79.5875 148.343 79.1698 147.502 78.8707C146.66 78.5715 145.765 78.4219 144.818 78.4219C143.883 78.4219 142.995 78.5682 142.154 78.8609C141.312 79.1541 140.548 79.5625 139.863 80.0861C139.626 80.2607 139.501 80.5038 139.489 80.8154ZM136.31 77.6829C136.31 77.9885 136.416 78.2473 136.628 78.4593C136.839 78.6712 137.098 78.7834 137.404 78.7959C137.709 78.8083 137.986 78.7148 138.236 78.5154C139.146 77.7798 140.159 77.2064 141.275 76.795C142.39 76.3836 143.571 76.1779 144.818 76.1779C146.065 76.1779 147.246 76.3836 148.362 76.795C149.477 77.2064 150.49 77.7798 151.4 78.5154C151.65 78.7148 151.927 78.8083 152.233 78.7959C152.538 78.7834 152.796 78.6712 153.008 78.4593C153.233 78.2349 153.342 77.9731 153.336 77.6739C153.33 77.3747 153.214 77.1254 152.99 76.9259C151.88 75.9909 150.634 75.2584 149.25 74.7283C147.866 74.1987 146.389 73.934 144.818 73.934C143.247 73.934 141.77 74.1987 140.386 74.7283C139.002 75.2584 137.756 75.9909 136.646 76.9259C136.422 77.1254 136.31 77.3777 136.31 77.6829ZM143.752 85.4716C144.039 85.7583 144.394 85.9017 144.818 85.9017C145.242 85.9017 145.597 85.7583 145.884 85.4716C146.171 85.1849 146.314 84.8296 146.314 84.4057C146.314 83.9819 146.171 83.6266 145.884 83.3399C145.597 83.0531 145.242 82.9098 144.818 82.9098C144.394 82.9098 144.039 83.0531 143.752 83.3399C143.465 83.6266 143.322 83.9819 143.322 84.4057C143.322 84.8296 143.465 85.1849 143.752 85.4716ZM111.278 94.0654C111.266 94.3771 111.372 94.6451 111.596 94.8695C111.808 95.0815 112.067 95.1969 112.373 95.2158C112.678 95.2343 112.968 95.15 113.242 94.963C113.716 94.6389 114.236 94.3833 114.804 94.1963C115.371 94.0093 115.972 93.9158 116.608 93.9158C117.244 93.9158 117.845 94.0064 118.413 94.1874C118.98 94.3679 119.506 94.6264 119.992 94.963C120.254 95.1376 120.538 95.2218 120.844 95.2158C121.149 95.2094 121.407 95.1002 121.619 94.8882C121.844 94.6638 121.953 94.399 121.947 94.0939C121.94 93.7882 121.819 93.5481 121.582 93.3736C120.896 92.8375 120.133 92.4199 119.292 92.1207C118.45 91.8215 117.555 91.6719 116.608 91.6719C115.673 91.6719 114.785 91.8183 113.944 92.111C113.102 92.4042 112.338 92.8126 111.652 93.3362C111.416 93.5107 111.291 93.7538 111.278 94.0654ZM108.1 90.9329C108.1 91.2386 108.205 91.4974 108.417 91.7093C108.629 91.9212 108.888 92.0334 109.194 92.0459C109.499 92.0584 109.776 91.9649 110.026 91.7654C110.936 91.0299 111.949 90.4564 113.065 90.045C114.18 89.6336 115.361 89.4279 116.608 89.4279C117.854 89.4279 119.036 89.6336 120.152 90.045C121.267 90.4564 122.28 91.0299 123.19 91.7654C123.439 91.9649 123.717 92.0584 124.023 92.0459C124.328 92.0334 124.586 91.9212 124.798 91.7093C125.023 91.4849 125.132 91.2231 125.126 90.9239C125.119 90.6247 125.004 90.3754 124.78 90.1759C123.67 89.241 122.423 88.5084 121.04 87.9784C119.656 87.4488 118.179 87.184 116.608 87.184C115.037 87.184 113.56 87.4488 112.176 87.9784C110.792 88.5084 109.546 89.241 108.436 90.1759C108.212 90.3754 108.1 90.6277 108.1 90.9329ZM115.542 98.7216C115.829 99.0084 116.184 99.1517 116.608 99.1517C117.032 99.1517 117.387 99.0084 117.674 98.7216C117.96 98.4349 118.104 98.0796 118.104 97.6558C118.104 97.2319 117.96 96.8766 117.674 96.5899C117.387 96.3032 117.032 96.1598 116.608 96.1598C116.184 96.1598 115.829 96.3032 115.542 96.5899C115.255 96.8766 115.112 97.2319 115.112 97.6558C115.112 98.0796 115.255 98.4349 115.542 98.7216ZM112.379 103.916C113.501 102.783 115.022 102.146 116.608 102.144C118.195 102.146 119.716 102.783 120.837 103.916C121.959 105.05 122.59 106.586 122.592 108.189C122.592 113.362 117.152 117.27 116.921 117.435C116.828 117.498 116.72 117.531 116.608 117.531C116.497 117.531 116.388 117.498 116.295 117.435C116.064 117.27 110.624 113.362 110.624 108.189C110.626 106.586 111.257 105.05 112.379 103.916ZM117.817 106.361C117.459 106.12 117.039 105.991 116.608 105.991C116.031 105.991 115.478 106.222 115.07 106.634C114.661 107.047 114.432 107.606 114.432 108.189C114.432 108.624 114.56 109.049 114.799 109.41C115.038 109.772 115.378 110.053 115.775 110.22C116.173 110.386 116.611 110.43 117.033 110.345C117.455 110.26 117.843 110.051 118.147 109.743C118.451 109.436 118.658 109.044 118.742 108.618C118.826 108.191 118.783 107.749 118.619 107.348C118.454 106.946 118.175 106.603 117.817 106.361ZM144.818 88.8936C143.231 88.8954 141.71 89.5329 140.589 90.6662C139.467 91.7995 138.836 93.336 138.834 94.9387C138.834 100.111 144.274 104.02 144.505 104.185C144.598 104.247 144.706 104.281 144.818 104.281C144.929 104.281 145.038 104.247 145.131 104.185C145.362 104.02 150.802 100.111 150.802 94.9387C150.8 93.336 150.169 91.7995 149.047 90.6662C147.925 89.5329 146.404 88.8954 144.818 88.8936ZM144.818 92.7405C145.248 92.7405 145.669 92.8694 146.027 93.111C146.385 93.3525 146.663 93.6958 146.828 94.0975C146.993 94.4992 147.036 94.9412 146.952 95.3676C146.868 95.794 146.661 96.1857 146.356 96.4931C146.052 96.8006 145.664 97.0099 145.242 97.0948C144.82 97.1796 144.383 97.136 143.985 96.9697C143.587 96.8033 143.248 96.5215 143.009 96.16C142.769 95.7985 142.642 95.3735 142.642 94.9387C142.642 94.3557 142.871 93.7966 143.279 93.3844C143.687 92.9721 144.241 92.7405 144.818 92.7405Z" fill="url(#paint7_linear_6681_51737)"/>
<path fill-rule="evenodd" clip-rule="evenodd" d="M138.384 81.3675C138.371 81.6791 138.477 81.9472 138.702 82.1716C138.914 82.3835 139.172 82.4989 139.478 82.5179C139.783 82.5363 140.073 82.4521 140.347 82.2651C140.821 81.9409 141.341 81.6854 141.909 81.4984C142.476 81.3114 143.077 81.2179 143.713 81.2179C144.349 81.2179 144.951 81.3084 145.518 81.4894C146.085 81.6699 146.612 81.9285 147.098 82.2651C147.36 82.4396 147.643 82.5239 147.949 82.5179C148.254 82.5114 148.513 82.4022 148.725 82.1903C148.949 81.9659 149.058 81.7011 149.052 81.3959C149.046 81.0902 148.924 80.8501 148.687 80.6756C148.002 80.1395 147.238 79.7219 146.397 79.4227C145.555 79.1235 144.661 78.9739 143.713 78.9739C142.778 78.9739 141.89 79.1203 141.049 79.413C140.207 79.7062 139.443 80.1146 138.758 80.6382C138.521 80.8127 138.396 81.0558 138.384 81.3675ZM135.205 78.2349C135.205 78.5406 135.311 78.7994 135.523 79.0113C135.735 79.2233 135.993 79.3355 136.299 79.3479C136.604 79.3604 136.882 79.2669 137.131 79.0674C138.041 78.3319 139.054 77.7585 140.17 77.3471C141.285 76.9357 142.466 76.73 143.713 76.73C144.96 76.73 146.141 76.9357 147.257 77.3471C148.373 77.7585 149.385 78.3319 150.295 79.0674C150.545 79.2669 150.822 79.3604 151.128 79.3479C151.433 79.3355 151.692 79.2233 151.904 79.0113C152.128 78.7869 152.237 78.5251 152.231 78.2259C152.225 77.9267 152.109 77.6774 151.885 77.478C150.775 76.543 149.529 75.8105 148.145 75.2804C146.761 74.7508 145.284 74.486 143.713 74.486C142.142 74.486 140.665 74.7508 139.281 75.2804C137.898 75.8105 136.651 76.543 135.541 77.478C135.317 77.6774 135.205 77.9297 135.205 78.2349ZM142.647 86.0237C142.934 86.3104 143.289 86.4538 143.713 86.4538C144.137 86.4538 144.492 86.3104 144.779 86.0237C145.066 85.7369 145.209 85.3817 145.209 84.9578C145.209 84.5339 145.066 84.1786 144.779 83.8919C144.492 83.6052 144.137 83.4618 143.713 83.4618C143.289 83.4618 142.934 83.6052 142.647 83.8919C142.36 84.1786 142.217 84.5339 142.217 84.9578C142.217 85.3817 142.36 85.7369 142.647 86.0237ZM110.174 94.6175C110.162 94.9292 110.268 95.1972 110.492 95.4216C110.704 95.6335 110.963 95.749 111.268 95.7679C111.574 95.7864 111.863 95.7021 112.138 95.5151C112.611 95.191 113.132 94.9354 113.699 94.7484C114.266 94.5614 114.868 94.4679 115.503 94.4679C116.139 94.4679 116.741 94.5584 117.308 94.7394C117.875 94.9199 118.402 95.1785 118.888 95.5151C119.15 95.6896 119.434 95.7739 119.739 95.7679C120.044 95.7614 120.303 95.6522 120.515 95.4403C120.739 95.2159 120.849 94.9511 120.843 94.6459C120.836 94.3403 120.714 94.1002 120.478 93.9256C119.792 93.3896 119.028 92.9719 118.187 92.6728C117.345 92.3736 116.451 92.224 115.503 92.224C114.568 92.224 113.68 92.3703 112.839 92.663C111.997 92.9562 111.234 93.3646 110.548 93.8882C110.311 94.0628 110.187 94.3058 110.174 94.6175ZM106.995 91.485C106.995 91.7906 107.101 92.0494 107.313 92.2614C107.525 92.4733 107.784 92.5855 108.089 92.598C108.395 92.6104 108.672 92.5169 108.921 92.3175C109.831 91.5819 110.844 91.0085 111.96 90.5971C113.076 90.1857 114.257 89.98 115.503 89.98C116.75 89.98 117.931 90.1857 119.047 90.5971C120.163 91.0085 121.176 91.5819 122.086 92.3175C122.335 92.5169 122.613 92.6104 122.918 92.598C123.223 92.5855 123.482 92.4733 123.694 92.2614C123.918 92.037 124.027 91.7752 124.021 91.476C124.015 91.1768 123.9 90.9275 123.675 90.728C122.566 89.793 121.319 89.0605 119.935 88.5304C118.551 88.0008 117.074 87.7361 115.503 87.7361C113.933 87.7361 112.455 88.0008 111.072 88.5304C109.688 89.0605 108.441 89.793 107.332 90.728C107.107 90.9275 106.995 91.1798 106.995 91.485ZM114.438 99.2737C114.724 99.5604 115.08 99.7038 115.503 99.7038C115.927 99.7038 116.283 99.5604 116.569 99.2737C116.856 98.987 116.999 98.6317 116.999 98.2078C116.999 97.784 116.856 97.4287 116.569 97.142C116.283 96.8552 115.927 96.7119 115.503 96.7119C115.08 96.7119 114.724 96.8552 114.438 97.142C114.151 97.4287 114.007 97.784 114.007 98.2078C114.007 98.6317 114.151 98.987 114.438 99.2737ZM111.275 104.468C112.396 103.335 113.917 102.698 115.504 102.696C117.09 102.698 118.611 103.335 119.733 104.468C120.855 105.602 121.486 107.138 121.488 108.741C121.488 113.914 116.048 117.822 115.817 117.987C115.724 118.05 115.615 118.083 115.504 118.083C115.393 118.083 115.284 118.05 115.191 117.987C114.96 117.822 109.52 113.914 109.52 108.741C109.522 107.138 110.153 105.602 111.275 104.468ZM116.713 106.913C116.355 106.672 115.934 106.543 115.504 106.543C114.927 106.543 114.373 106.774 113.965 107.187C113.557 107.599 113.328 108.158 113.328 108.741C113.328 109.176 113.455 109.601 113.695 109.962C113.934 110.324 114.274 110.605 114.671 110.772C115.069 110.938 115.506 110.982 115.928 110.897C116.35 110.812 116.738 110.603 117.042 110.295C117.347 109.988 117.554 109.596 117.638 109.17C117.722 108.743 117.679 108.301 117.514 107.9C117.349 107.498 117.071 107.155 116.713 106.913ZM143.713 89.4456C142.126 89.4475 140.605 90.0849 139.484 91.2182C138.362 92.3515 137.731 93.8881 137.729 95.4908C137.729 100.664 143.169 104.572 143.4 104.737C143.493 104.799 143.602 104.833 143.713 104.833C143.824 104.833 143.933 104.799 144.026 104.737C144.257 104.572 149.697 100.664 149.697 95.4908C149.695 93.8881 149.064 92.3515 147.942 91.2182C146.82 90.0849 145.299 89.4475 143.713 89.4456ZM143.713 93.2926C144.143 93.2926 144.564 93.4215 144.922 93.663C145.28 93.9046 145.559 94.2479 145.723 94.6496C145.888 95.0513 145.931 95.4933 145.847 95.9197C145.763 96.3461 145.556 96.7378 145.252 97.0452C144.947 97.3526 144.56 97.562 144.137 97.6468C143.715 97.7316 143.278 97.6881 142.88 97.5217C142.483 97.3553 142.143 97.0736 141.904 96.7121C141.665 96.3506 141.537 95.9256 141.537 95.4908C141.537 94.9078 141.766 94.3487 142.174 93.9364C142.582 93.5242 143.136 93.2926 143.713 93.2926Z" fill="url(#paint8_linear_6681_51737)"/>
<defs>
<filter id="filter0_diii_6681_51737" x="16.8407" y="41.5829" width="148" height="180.642" filterUnits="userSpaceOnUse" color-interpolation-filters="sRGB">
<feFlood flood-opacity="0" result="BackgroundImageFix"/>
<feColorMatrix in="SourceAlpha" type="matrix" values="0 0 0 0 0 0 0 0 0 0 0 0 0 0 0 0 0 0 127 0" result="hardAlpha"/>
<feOffset dy="15.4403"/>
<feGaussianBlur stdDeviation="30"/>
<feColorMatrix type="matrix" values="0 0 0 0 0.196078 0 0 0 0 0.380392 0 0 0 0 1 0 0 0 0.2 0"/>
<feBlend mode="normal" in2="BackgroundImageFix" result="effect1_dropShadow_6681_51737"/>
<feBlend mode="normal" in="SourceGraphic" in2="effect1_dropShadow_6681_51737" result="shape"/>
<feColorMatrix in="SourceAlpha" type="matrix" values="0 0 0 0 0 0 0 0 0 0 0 0 0 0 0 0 0 0 127 0" result="hardAlpha"/>
<feOffset dx="7.72016" dy="57.9012"/>
<feGaussianBlur stdDeviation="57.9012"/>
<feComposite in2="hardAlpha" operator="arithmetic" k2="-1" k3="1"/>
<feColorMatrix type="matrix" values="0 0 0 0 0.196078 0 0 0 0 0.380392 0 0 0 0 1 0 0 0 1 0"/>
<feBlend mode="normal" in2="shape" result="effect2_innerShadow_6681_51737"/>
<feColorMatrix in="SourceAlpha" type="matrix" values="0 0 0 0 0 0 0 0 0 0 0 0 0 0 0 0 0 0 127 0" result="hardAlpha"/>
<feOffset dy="-77.2016"/>
<feGaussianBlur stdDeviation="96.502"/>
<feComposite in2="hardAlpha" operator="arithmetic" k2="-1" k3="1"/>
<feColorMatrix type="matrix" values="0 0 0 0 1 0 0 0 0 1 0 0 0 0 1 0 0 0 0.53 0"/>
<feBlend mode="normal" in2="effect2_innerShadow_6681_51737" result="effect3_innerShadow_6681_51737"/>
<feColorMatrix in="SourceAlpha" type="matrix" values="0 0 0 0 0 0 0 0 0 0 0 0 0 0 0 0 0 0 127 0" result="hardAlpha"/>
<feOffset dy="7.72016"/>
<feGaussianBlur stdDeviation="19.3004"/>
<feComposite in2="hardAlpha" operator="arithmetic" k2="-1" k3="1"/>
<feColorMatrix type="matrix" values="0 0 0 0 1 0 0 0 0 1 0 0 0 0 1 0 0 0 0.58 0"/>
<feBlend mode="normal" in2="effect3_innerShadow_6681_51737" result="effect4_innerShadow_6681_51737"/>
</filter>
<filter id="filter1_diii_6681_51737" x="38.3706" y="-4.58854" width="183.407" height="201.216" filterUnits="userSpaceOnUse" color-interpolation-filters="sRGB">
<feFlood flood-opacity="0" result="BackgroundImageFix"/>
<feColorMatrix in="SourceAlpha" type="matrix" values="0 0 0 0 0 0 0 0 0 0 0 0 0 0 0 0 0 0 127 0" result="hardAlpha"/>
<feOffset dy="8.42404"/>
<feGaussianBlur stdDeviation="16.3676"/>
<feColorMatrix type="matrix" values="0 0 0 0 0.196078 0 0 0 0 0.380392 0 0 0 0 1 0 0 0 0.3 0"/>
<feBlend mode="normal" in2="BackgroundImageFix" result="effect1_dropShadow_6681_51737"/>
<feBlend mode="normal" in="SourceGraphic" in2="effect1_dropShadow_6681_51737" result="shape"/>
<feColorMatrix in="SourceAlpha" type="matrix" values="0 0 0 0 0 0 0 0 0 0 0 0 0 0 0 0 0 0 127 0" result="hardAlpha"/>
<feOffset dx="4.21202" dy="31.5902"/>
<feGaussianBlur stdDeviation="31.5902"/>
<feComposite in2="hardAlpha" operator="arithmetic" k2="-1" k3="1"/>
<feColorMatrix type="matrix" values="0 0 0 0 0.196078 0 0 0 0 0.380392 0 0 0 0 1 0 0 0 1 0"/>
<feBlend mode="normal" in2="shape" result="effect2_innerShadow_6681_51737"/>
<feColorMatrix in="SourceAlpha" type="matrix" values="0 0 0 0 0 0 0 0 0 0 0 0 0 0 0 0 0 0 127 0" result="hardAlpha"/>
<feOffset dy="-42.1202"/>
<feGaussianBlur stdDeviation="52.6503"/>
<feComposite in2="hardAlpha" operator="arithmetic" k2="-1" k3="1"/>
<feColorMatrix type="matrix" values="0 0 0 0 1 0 0 0 0 1 0 0 0 0 1 0 0 0 0.53 0"/>
<feBlend mode="normal" in2="effect2_innerShadow_6681_51737" result="effect3_innerShadow_6681_51737"/>
<feColorMatrix in="SourceAlpha" type="matrix" values="0 0 0 0 0 0 0 0 0 0 0 0 0 0 0 0 0 0 127 0" result="hardAlpha"/>
<feOffset dy="4.21202"/>
<feGaussianBlur stdDeviation="10.5301"/>
<feComposite in2="hardAlpha" operator="arithmetic" k2="-1" k3="1"/>
<feColorMatrix type="matrix" values="0 0 0 0 1 0 0 0 0 1 0 0 0 0 1 0 0 0 0.58 0"/>
<feBlend mode="normal" in2="effect3_innerShadow_6681_51737" result="effect4_innerShadow_6681_51737"/>
</filter>
<filter id="filter2_diii_6681_51737" x="115.189" y="-5.41714" width="138" height="170.642" filterUnits="userSpaceOnUse" color-interpolation-filters="sRGB">
<feFlood flood-opacity="0" result="BackgroundImageFix"/>
<feColorMatrix in="SourceAlpha" type="matrix" values="0 0 0 0 0 0 0 0 0 0 0 0 0 0 0 0 0 0 127 0" result="hardAlpha"/>
<feOffset dy="15.4403"/>
<feGaussianBlur stdDeviation="30"/>
<feColorMatrix type="matrix" values="0 0 0 0 0.196078 0 0 0 0 0.380392 0 0 0 0 1 0 0 0 0.2 0"/>
<feBlend mode="normal" in2="BackgroundImageFix" result="effect1_dropShadow_6681_51737"/>
<feBlend mode="normal" in="SourceGraphic" in2="effect1_dropShadow_6681_51737" result="shape"/>
<feColorMatrix in="SourceAlpha" type="matrix" values="0 0 0 0 0 0 0 0 0 0 0 0 0 0 0 0 0 0 127 0" result="hardAlpha"/>
<feOffset dx="7.72016" dy="57.9012"/>
<feGaussianBlur stdDeviation="57.9012"/>
<feComposite in2="hardAlpha" operator="arithmetic" k2="-1" k3="1"/>
<feColorMatrix type="matrix" values="0 0 0 0 0.196078 0 0 0 0 0.380392 0 0 0 0 1 0 0 0 1 0"/>
<feBlend mode="normal" in2="shape" result="effect2_innerShadow_6681_51737"/>
<feColorMatrix in="SourceAlpha" type="matrix" values="0 0 0 0 0 0 0 0 0 0 0 0 0 0 0 0 0 0 127 0" result="hardAlpha"/>
<feOffset dy="-77.2016"/>
<feGaussianBlur stdDeviation="96.502"/>
<feComposite in2="hardAlpha" operator="arithmetic" k2="-1" k3="1"/>
<feColorMatrix type="matrix" values="0 0 0 0 1 0 0 0 0 1 0 0 0 0 1 0 0 0 0.53 0"/>
<feBlend mode="normal" in2="effect2_innerShadow_6681_51737" result="effect3_innerShadow_6681_51737"/>
<feColorMatrix in="SourceAlpha" type="matrix" values="0 0 0 0 0 0 0 0 0 0 0 0 0 0 0 0 0 0 127 0" result="hardAlpha"/>
<feOffset dy="7.72016"/>
<feGaussianBlur stdDeviation="19.3004"/>
<feComposite in2="hardAlpha" operator="arithmetic" k2="-1" k3="1"/>
<feColorMatrix type="matrix" values="0 0 0 0 1 0 0 0 0 1 0 0 0 0 1 0 0 0 0.58 0"/>
<feBlend mode="normal" in2="effect3_innerShadow_6681_51737" result="effect4_innerShadow_6681_51737"/>
</filter>
<filter id="filter3_diii_6681_51737" x="16.8407" y="16.5829" width="139" height="171.642" filterUnits="userSpaceOnUse" color-interpolation-filters="sRGB">
<feFlood flood-opacity="0" result="BackgroundImageFix"/>
<feColorMatrix in="SourceAlpha" type="matrix" values="0 0 0 0 0 0 0 0 0 0 0 0 0 0 0 0 0 0 127 0" result="hardAlpha"/>
<feOffset dy="15.4403"/>
<feGaussianBlur stdDeviation="30"/>
<feColorMatrix type="matrix" values="0 0 0 0 0.196078 0 0 0 0 0.380392 0 0 0 0 1 0 0 0 0.2 0"/>
<feBlend mode="normal" in2="BackgroundImageFix" result="effect1_dropShadow_6681_51737"/>
<feBlend mode="normal" in="SourceGraphic" in2="effect1_dropShadow_6681_51737" result="shape"/>
<feColorMatrix in="SourceAlpha" type="matrix" values="0 0 0 0 0 0 0 0 0 0 0 0 0 0 0 0 0 0 127 0" result="hardAlpha"/>
<feOffset dx="7.72016" dy="57.9012"/>
<feGaussianBlur stdDeviation="57.9012"/>
<feComposite in2="hardAlpha" operator="arithmetic" k2="-1" k3="1"/>
<feColorMatrix type="matrix" values="0 0 0 0 0.196078 0 0 0 0 0.380392 0 0 0 0 1 0 0 0 1 0"/>
<feBlend mode="normal" in2="shape" result="effect2_innerShadow_6681_51737"/>
<feColorMatrix in="SourceAlpha" type="matrix" values="0 0 0 0 0 0 0 0 0 0 0 0 0 0 0 0 0 0 127 0" result="hardAlpha"/>
<feOffset dy="-77.2016"/>
<feGaussianBlur stdDeviation="96.502"/>
<feComposite in2="hardAlpha" operator="arithmetic" k2="-1" k3="1"/>
<feColorMatrix type="matrix" values="0 0 0 0 1 0 0 0 0 1 0 0 0 0 1 0 0 0 0.53 0"/>
<feBlend mode="normal" in2="effect2_innerShadow_6681_51737" result="effect3_innerShadow_6681_51737"/>
<feColorMatrix in="SourceAlpha" type="matrix" values="0 0 0 0 0 0 0 0 0 0 0 0 0 0 0 0 0 0 127 0" result="hardAlpha"/>
<feOffset dy="7.72016"/>
<feGaussianBlur stdDeviation="19.3004"/>
<feComposite in2="hardAlpha" operator="arithmetic" k2="-1" k3="1"/>
<feColorMatrix type="matrix" values="0 0 0 0 1 0 0 0 0 1 0 0 0 0 1 0 0 0 0.58 0"/>
<feBlend mode="normal" in2="effect3_innerShadow_6681_51737" result="effect4_innerShadow_6681_51737"/>
</filter>
<filter id="filter4_diii_6681_51737" x="0.840729" y="-20.4171" width="134" height="166.642" filterUnits="userSpaceOnUse" color-interpolation-filters="sRGB">
<feFlood flood-opacity="0" result="BackgroundImageFix"/>
<feColorMatrix in="SourceAlpha" type="matrix" values="0 0 0 0 0 0 0 0 0 0 0 0 0 0 0 0 0 0 127 0" result="hardAlpha"/>
<feOffset dy="15.4403"/>
<feGaussianBlur stdDeviation="30"/>
<feColorMatrix type="matrix" values="0 0 0 0 0.196078 0 0 0 0 0.380392 0 0 0 0 1 0 0 0 0.2 0"/>
<feBlend mode="normal" in2="BackgroundImageFix" result="effect1_dropShadow_6681_51737"/>
<feBlend mode="normal" in="SourceGraphic" in2="effect1_dropShadow_6681_51737" result="shape"/>
<feColorMatrix in="SourceAlpha" type="matrix" values="0 0 0 0 0 0 0 0 0 0 0 0 0 0 0 0 0 0 127 0" result="hardAlpha"/>
<feOffset dx="7.72016" dy="57.9012"/>
<feGaussianBlur stdDeviation="57.9012"/>
<feComposite in2="hardAlpha" operator="arithmetic" k2="-1" k3="1"/>
<feColorMatrix type="matrix" values="0 0 0 0 0.196078 0 0 0 0 0.380392 0 0 0 0 1 0 0 0 1 0"/>
<feBlend mode="normal" in2="shape" result="effect2_innerShadow_6681_51737"/>
<feColorMatrix in="SourceAlpha" type="matrix" values="0 0 0 0 0 0 0 0 0 0 0 0 0 0 0 0 0 0 127 0" result="hardAlpha"/>
<feOffset dy="-77.2016"/>
<feGaussianBlur stdDeviation="96.502"/>
<feComposite in2="hardAlpha" operator="arithmetic" k2="-1" k3="1"/>
<feColorMatrix type="matrix" values="0 0 0 0 1 0 0 0 0 1 0 0 0 0 1 0 0 0 0.53 0"/>
<feBlend mode="normal" in2="effect2_innerShadow_6681_51737" result="effect3_innerShadow_6681_51737"/>
<feColorMatrix in="SourceAlpha" type="matrix" values="0 0 0 0 0 0 0 0 0 0 0 0 0 0 0 0 0 0 127 0" result="hardAlpha"/>
<feOffset dy="7.72016"/>
<feGaussianBlur stdDeviation="19.3004"/>
<feComposite in2="hardAlpha" operator="arithmetic" k2="-1" k3="1"/>
<feColorMatrix type="matrix" values="0 0 0 0 1 0 0 0 0 1 0 0 0 0 1 0 0 0 0.58 0"/>
<feBlend mode="normal" in2="effect3_innerShadow_6681_51737" result="effect4_innerShadow_6681_51737"/>
</filter>
<filter id="filter5_diii_6681_51737" x="10.8407" y="-32.4171" width="129" height="161.642" filterUnits="userSpaceOnUse" color-interpolation-filters="sRGB">
<feFlood flood-opacity="0" result="BackgroundImageFix"/>
<feColorMatrix in="SourceAlpha" type="matrix" values="0 0 0 0 0 0 0 0 0 0 0 0 0 0 0 0 0 0 127 0" result="hardAlpha"/>
<feOffset dy="15.4403"/>
<feGaussianBlur stdDeviation="30"/>
<feColorMatrix type="matrix" values="0 0 0 0 0.196078 0 0 0 0 0.380392 0 0 0 0 1 0 0 0 0.2 0"/>
<feBlend mode="normal" in2="BackgroundImageFix" result="effect1_dropShadow_6681_51737"/>
<feBlend mode="normal" in="SourceGraphic" in2="effect1_dropShadow_6681_51737" result="shape"/>
<feColorMatrix in="SourceAlpha" type="matrix" values="0 0 0 0 0 0 0 0 0 0 0 0 0 0 0 0 0 0 127 0" result="hardAlpha"/>
<feOffset dx="7.72016" dy="57.9012"/>
<feGaussianBlur stdDeviation="57.9012"/>
<feComposite in2="hardAlpha" operator="arithmetic" k2="-1" k3="1"/>
<feColorMatrix type="matrix" values="0 0 0 0 0.196078 0 0 0 0 0.380392 0 0 0 0 1 0 0 0 1 0"/>
<feBlend mode="normal" in2="shape" result="effect2_innerShadow_6681_51737"/>
<feColorMatrix in="SourceAlpha" type="matrix" values="0 0 0 0 0 0 0 0 0 0 0 0 0 0 0 0 0 0 127 0" result="hardAlpha"/>
<feOffset dy="-77.2016"/>
<feGaussianBlur stdDeviation="96.502"/>
<feComposite in2="hardAlpha" operator="arithmetic" k2="-1" k3="1"/>
<feColorMatrix type="matrix" values="0 0 0 0 1 0 0 0 0 1 0 0 0 0 1 0 0 0 0.53 0"/>
<feBlend mode="normal" in2="effect2_innerShadow_6681_51737" result="effect3_innerShadow_6681_51737"/>
<feColorMatrix in="SourceAlpha" type="matrix" values="0 0 0 0 0 0 0 0 0 0 0 0 0 0 0 0 0 0 127 0" result="hardAlpha"/>
<feOffset dy="7.72016"/>
<feGaussianBlur stdDeviation="19.3004"/>
<feComposite in2="hardAlpha" operator="arithmetic" k2="-1" k3="1"/>
<feColorMatrix type="matrix" values="0 0 0 0 1 0 0 0 0 1 0 0 0 0 1 0 0 0 0.58 0"/>
<feBlend mode="normal" in2="effect3_innerShadow_6681_51737" result="effect4_innerShadow_6681_51737"/>
</filter>
<filter id="filter6_diii_6681_51737" x="122.841" y="-27.4171" width="130" height="162.642" filterUnits="userSpaceOnUse" color-interpolation-filters="sRGB">
<feFlood flood-opacity="0" result="BackgroundImageFix"/>
<feColorMatrix in="SourceAlpha" type="matrix" values="0 0 0 0 0 0 0 0 0 0 0 0 0 0 0 0 0 0 127 0" result="hardAlpha"/>
<feOffset dy="15.4403"/>
<feGaussianBlur stdDeviation="30"/>
<feColorMatrix type="matrix" values="0 0 0 0 0.196078 0 0 0 0 0.380392 0 0 0 0 1 0 0 0 0.2 0"/>
<feBlend mode="normal" in2="BackgroundImageFix" result="effect1_dropShadow_6681_51737"/>
<feBlend mode="normal" in="SourceGraphic" in2="effect1_dropShadow_6681_51737" result="shape"/>
<feColorMatrix in="SourceAlpha" type="matrix" values="0 0 0 0 0 0 0 0 0 0 0 0 0 0 0 0 0 0 127 0" result="hardAlpha"/>
<feOffset dx="7.72016" dy="57.9012"/>
<feGaussianBlur stdDeviation="57.9012"/>
<feComposite in2="hardAlpha" operator="arithmetic" k2="-1" k3="1"/>
<feColorMatrix type="matrix" values="0 0 0 0 0.196078 0 0 0 0 0.380392 0 0 0 0 1 0 0 0 1 0"/>
<feBlend mode="normal" in2="shape" result="effect2_innerShadow_6681_51737"/>
<feColorMatrix in="SourceAlpha" type="matrix" values="0 0 0 0 0 0 0 0 0 0 0 0 0 0 0 0 0 0 127 0" result="hardAlpha"/>
<feOffset dy="-77.2016"/>
<feGaussianBlur stdDeviation="96.502"/>
<feComposite in2="hardAlpha" operator="arithmetic" k2="-1" k3="1"/>
<feColorMatrix type="matrix" values="0 0 0 0 1 0 0 0 0 1 0 0 0 0 1 0 0 0 0.53 0"/>
<feBlend mode="normal" in2="effect2_innerShadow_6681_51737" result="effect3_innerShadow_6681_51737"/>
<feColorMatrix in="SourceAlpha" type="matrix" values="0 0 0 0 0 0 0 0 0 0 0 0 0 0 0 0 0 0 127 0" result="hardAlpha"/>
<feOffset dy="7.72016"/>
<feGaussianBlur stdDeviation="19.3004"/>
<feComposite in2="hardAlpha" operator="arithmetic" k2="-1" k3="1"/>
<feColorMatrix type="matrix" values="0 0 0 0 1 0 0 0 0 1 0 0 0 0 1 0 0 0 0.58 0"/>
<feBlend mode="normal" in2="effect3_innerShadow_6681_51737" result="effect4_innerShadow_6681_51737"/>
</filter>
<radialGradient id="paint0_radial_6681_51737" cx="0" cy="0" r="1" gradientUnits="userSpaceOnUse" gradientTransform="translate(96.5527 127.52) rotate(110.973) scale(28.7873)">
<stop stop-color="#3261FF"/>
<stop offset="1" stop-color="#A7A8AD" stop-opacity="0"/>
</radialGradient>
<radialGradient id="paint1_radial_6681_51737" cx="0" cy="0" r="1" gradientUnits="userSpaceOnUse" gradientTransform="translate(154.133 74.3279) rotate(110.973) scale(121.253)">
<stop stop-color="#3261FF"/>
<stop offset="1" stop-color="#A7A8AD" stop-opacity="0"/>
</radialGradient>
<radialGradient id="paint2_radial_6681_51737" cx="0" cy="0" r="1" gradientUnits="userSpaceOnUse" gradientTransform="translate(187.861 77.4005) rotate(110.973) scale(18.5061)">
<stop stop-color="#3261FF"/>
<stop offset="1" stop-color="#A7A8AD" stop-opacity="0"/>
</radialGradient>
<radialGradient id="paint3_radial_6681_51737" cx="0" cy="0" r="1" gradientUnits="userSpaceOnUse" gradientTransform="translate(90.2167 99.7125) rotate(110.973) scale(19.5342)">
<stop stop-color="#3261FF"/>
<stop offset="1" stop-color="#A7A8AD" stop-opacity="0"/>
</radialGradient>
<radialGradient id="paint4_radial_6681_51737" cx="0" cy="0" r="1" gradientUnits="userSpaceOnUse" gradientTransform="translate(70.6967 61.1525) rotate(110.973) scale(14.3936)">
<stop stop-color="#3261FF"/>
<stop offset="1" stop-color="#A7A8AD" stop-opacity="0"/>
</radialGradient>
<radialGradient id="paint5_radial_6681_51737" cx="0" cy="0" r="1" gradientUnits="userSpaceOnUse" gradientTransform="translate(77.1767 47.5925) rotate(110.973) scale(9.25305)">
<stop stop-color="#3261FF"/>
<stop offset="1" stop-color="#A7A8AD" stop-opacity="0"/>
</radialGradient>
<radialGradient id="paint6_radial_6681_51737" cx="0" cy="0" r="1" gradientUnits="userSpaceOnUse" gradientTransform="translate(189.881 52.9045) rotate(110.973) scale(10.2812)">
<stop stop-color="#3261FF"/>
<stop offset="1" stop-color="#A7A8AD" stop-opacity="0"/>
</radialGradient>
<linearGradient id="paint7_linear_6681_51737" x1="115.41" y1="77.7896" x2="130.593" y2="114.227" gradientUnits="userSpaceOnUse">
<stop stop-color="#3261FF"/>
<stop offset="1" stop-color="#3261FF" stop-opacity="0"/>
</linearGradient>
<linearGradient id="paint8_linear_6681_51737" x1="115.962" y1="74.7532" x2="143.014" y2="120.3" gradientUnits="userSpaceOnUse">
<stop stop-color="#3261FF"/>
<stop offset="1" stop-color="#7A99FF"/>
</linearGradient>
</defs>
</svg>
