<svg viewBox="0 0 54 54" fill="none" xmlns="http://www.w3.org/2000/svg">
<path fill-rule="evenodd" clip-rule="evenodd" d="M37.4886 11.8154C37.4761 12.1271 37.5821 12.3951 37.8065 12.6195C38.0184 12.8314 38.2772 12.9469 38.5829 12.9658C38.8881 12.9843 39.1778 12.9 39.452 12.713C39.9258 12.3889 40.4464 12.1333 41.0138 11.9463C41.5808 11.7593 42.1822 11.6658 42.818 11.6658C43.4538 11.6658 44.0554 11.7563 44.6229 11.9373C45.1898 12.1178 45.7164 12.3764 46.2026 12.713C46.4644 12.8875 46.7481 12.9718 47.0538 12.9658C47.359 12.9593 47.6175 12.8501 47.8295 12.6382C48.0539 12.4138 48.1631 12.149 48.1571 11.8438C48.1506 11.5382 48.0289 11.2981 47.7921 11.1235C47.1064 10.5875 46.343 10.1698 45.5017 9.87065C44.66 9.57146 43.7654 9.42186 42.818 9.42186C41.883 9.42186 40.9949 9.56822 40.1537 9.86093C39.3119 10.1541 38.5482 10.5625 37.8626 11.0861C37.6257 11.2607 37.5011 11.5038 37.4886 11.8154ZM34.3097 8.68286C34.3097 8.98853 34.4156 9.24733 34.6276 9.45926C34.8395 9.67119 35.0983 9.78339 35.404 9.79586C35.7091 9.80832 35.9864 9.71482 36.2357 9.51536C37.1458 8.77984 38.1588 8.20639 39.2748 7.795C40.3903 7.38361 41.5713 7.17791 42.818 7.17791C44.0646 7.17791 45.2459 7.38361 46.3619 7.795C47.4774 8.20639 48.4902 8.77984 49.4002 9.51536C49.6496 9.71482 49.9271 9.80832 50.2327 9.79586C50.5379 9.78339 50.7965 9.67119 51.0084 9.45926C51.2328 9.23487 51.342 8.97307 51.336 8.67388C51.3295 8.37469 51.2141 8.12536 50.9897 7.9259C49.8802 6.99092 48.6335 6.25839 47.2498 5.72832C45.866 5.19875 44.3887 4.93396 42.818 4.93396C41.2472 4.93396 39.7699 5.19875 38.3862 5.72832C37.0024 6.25839 35.7558 6.99092 34.6463 7.9259C34.4219 8.12536 34.3097 8.37768 34.3097 8.68286ZM41.7521 16.4716C42.0388 16.7583 42.3941 16.9017 42.818 16.9017C43.2418 16.9017 43.5971 16.7583 43.8839 16.4716C44.1706 16.1849 44.3139 15.8296 44.3139 15.4057C44.3139 14.9819 44.1706 14.6266 43.8839 14.3399C43.5971 14.0531 43.2418 13.9098 42.818 13.9098C42.3941 13.9098 42.0388 14.0531 41.7521 14.3399C41.4654 14.6266 41.322 14.9819 41.322 15.4057C41.322 15.8296 41.4654 16.1849 41.7521 16.4716ZM9.27845 25.0654C9.26598 25.3771 9.37195 25.6451 9.59634 25.8695C9.80827 26.0815 10.0671 26.1969 10.3727 26.2158C10.6779 26.2343 10.9676 26.15 11.2419 25.963C11.7156 25.6389 12.2362 25.3833 12.8037 25.1963C13.3707 25.0093 13.972 24.9158 14.6078 24.9158C15.2436 24.9158 15.8452 25.0064 16.4127 25.1874C16.9797 25.3679 17.5063 25.6264 17.9925 25.963C18.2543 26.1376 18.538 26.2218 18.8437 26.2158C19.1488 26.2094 19.4074 26.1002 19.6193 25.8882C19.8437 25.6638 19.9529 25.399 19.9469 25.0939C19.9405 24.7882 19.8188 24.5481 19.5819 24.3736C18.8963 23.8375 18.1328 23.4199 17.2916 23.1207C16.4499 22.8215 15.5553 22.6719 14.6078 22.6719C13.6729 22.6719 12.7847 22.8183 11.9435 23.111C11.1018 23.4042 10.3381 23.8126 9.65244 24.3362C9.41558 24.5107 9.29092 24.7538 9.27845 25.0654ZM6.09952 21.9329C6.09952 22.2386 6.20548 22.4974 6.41741 22.7093C6.62934 22.9212 6.88814 23.0334 7.19382 23.0459C7.499 23.0584 7.77625 22.9649 8.02558 22.7654C8.93562 22.0299 9.94864 21.4564 11.0646 21.045C12.1801 20.6336 13.3612 20.4279 14.6078 20.4279C15.8545 20.4279 17.0358 20.6336 18.1518 21.045C19.2673 21.4564 20.28 22.0299 21.1901 22.7654C21.4394 22.9649 21.7169 23.0584 22.0226 23.0459C22.3278 23.0334 22.5863 22.9212 22.7983 22.7093C23.0227 22.4849 23.1319 22.2231 23.1259 21.9239C23.1194 21.6247 23.004 21.3754 22.7796 21.1759C21.67 20.241 20.4234 19.5084 19.0396 18.9784C17.6559 18.4488 16.1786 18.184 14.6078 18.184C13.0371 18.184 11.5598 18.4488 10.176 18.9784C8.79226 19.5084 7.54562 20.241 6.43611 21.1759C6.21172 21.3754 6.09952 21.6277 6.09952 21.9329ZM13.542 29.7216C13.8287 30.0084 14.184 30.1517 14.6078 30.1517C15.0317 30.1517 15.387 30.0084 15.6737 29.7216C15.9604 29.4349 16.1038 29.0796 16.1038 28.6558C16.1038 28.2319 15.9604 27.8766 15.6737 27.5899C15.387 27.3032 15.0317 27.1598 14.6078 27.1598C14.184 27.1598 13.8287 27.3032 13.542 27.5899C13.2552 27.8766 13.1119 28.2319 13.1119 28.6558C13.1119 29.0796 13.2552 29.4349 13.542 29.7216ZM10.379 34.9163C11.5008 33.783 13.0217 33.1455 14.6082 33.1437C16.1947 33.1455 17.7156 33.783 18.8374 34.9163C19.9593 36.0496 20.5903 37.5861 20.5921 39.1889C20.5921 44.3616 15.1522 48.2703 14.921 48.4352C14.8283 48.4975 14.7195 48.5308 14.6082 48.5308C14.4969 48.5308 14.3881 48.4975 14.2954 48.4352C14.0642 48.2703 8.62433 44.3616 8.62433 39.1889C8.62613 37.5861 9.25715 36.0496 10.379 34.9163ZM15.8171 37.3611C15.4593 37.1195 15.0386 36.9906 14.6082 36.9906C14.0311 36.9906 13.4776 37.2222 13.0696 37.6345C12.6615 38.0467 12.4322 38.6058 12.4322 39.1889C12.4322 39.6236 12.5599 40.0486 12.799 40.4101C13.0381 40.7716 13.3779 41.0534 13.7755 41.2198C14.1731 41.3861 14.6106 41.4297 15.0327 41.3449C15.4548 41.26 15.8425 41.0507 16.1468 40.7432C16.4511 40.4358 16.6584 40.0441 16.7423 39.6177C16.8263 39.1913 16.7832 38.7493 16.6185 38.3476C16.4538 37.9459 16.1749 37.6026 15.8171 37.3611ZM42.8178 19.8936C41.2313 19.8954 39.7104 20.5329 38.5886 21.6662C37.4668 22.7995 36.8357 24.336 36.8339 25.9387C36.8339 31.1115 42.2738 35.0202 42.505 35.1851C42.5977 35.2474 42.7065 35.2807 42.8178 35.2807C42.9291 35.2807 43.0379 35.2474 43.1306 35.1851C43.3618 35.0202 48.8017 31.1115 48.8017 25.9387C48.7999 24.336 48.1689 22.7995 47.0471 21.6662C45.9252 20.5329 44.4043 19.8954 42.8178 19.8936ZM42.8178 23.7405C43.2482 23.7405 43.6689 23.8694 44.0267 24.111C44.3845 24.3525 44.6634 24.6958 44.8281 25.0975C44.9928 25.4992 45.0359 25.9412 44.9519 26.3676C44.868 26.794 44.6607 27.1857 44.3564 27.4931C44.0521 27.8006 43.6644 28.0099 43.2423 28.0948C42.8202 28.1796 42.3827 28.136 41.9851 27.9697C41.5875 27.8033 41.2477 27.5215 41.0086 27.16C40.7695 26.7985 40.6418 26.3735 40.6418 25.9387C40.6418 25.3557 40.8711 24.7966 41.2792 24.3844C41.6872 23.9721 42.2407 23.7405 42.8178 23.7405Z" fill="url(#paint0_linear_6681_51745)"/>
<path fill-rule="evenodd" clip-rule="evenodd" d="M36.3837 12.3675C36.3712 12.6791 36.4772 12.9472 36.7016 13.1716C36.9135 13.3835 37.1723 13.4989 37.478 13.5179C37.7832 13.5363 38.0729 13.4521 38.3472 13.2651C38.8209 12.9409 39.3415 12.6854 39.909 12.4984C40.4759 12.3114 41.0773 12.2179 41.7131 12.2179C42.3489 12.2179 42.9505 12.3084 43.518 12.4894C44.085 12.6699 44.6115 12.9285 45.0977 13.2651C45.3595 13.4396 45.6433 13.5239 45.9489 13.5179C46.2541 13.5114 46.5127 13.4022 46.7246 13.1903C46.949 12.9659 47.0582 12.7011 47.0522 12.3959C47.0457 12.0902 46.924 11.8501 46.6872 11.6756C46.0015 11.1395 45.2381 10.7219 44.3969 10.4227C43.5551 10.1235 42.6605 9.97393 41.7131 9.97393C40.7781 9.97393 39.89 10.1203 39.0488 10.413C38.207 10.7062 37.4434 11.1146 36.7577 11.6382C36.5208 11.8127 36.3962 12.0558 36.3837 12.3675ZM33.2048 9.23492C33.2048 9.54059 33.3107 9.7994 33.5227 10.0113C33.7346 10.2233 33.9934 10.3355 34.2991 10.3479C34.6043 10.3604 34.8815 10.2669 35.1308 10.0674C36.0409 9.33191 37.0539 8.75845 38.1699 8.34706C39.2854 7.93567 40.4665 7.72997 41.7131 7.72997C42.9597 7.72997 44.1411 7.93567 45.257 8.34706C46.3725 8.75845 47.3853 9.33191 48.2954 10.0674C48.5447 10.2669 48.8222 10.3604 49.1279 10.3479C49.433 10.3355 49.6916 10.2233 49.9035 10.0113C50.1279 9.78693 50.2371 9.52514 50.2311 9.22594C50.2247 8.92675 50.1092 8.67742 49.8848 8.47796C48.7753 7.54298 47.5287 6.81045 46.1449 6.28038C44.7611 5.75081 43.2839 5.48602 41.7131 5.48602C40.1423 5.48602 38.6651 5.75081 37.2813 6.28038C35.8975 6.81045 34.6509 7.54298 33.5414 8.47796C33.317 8.67742 33.2048 8.92974 33.2048 9.23492ZM40.6472 17.0237C40.9339 17.3104 41.2892 17.4538 41.7131 17.4538C42.137 17.4538 42.4922 17.3104 42.779 17.0237C43.0657 16.7369 43.2091 16.3817 43.2091 15.9578C43.2091 15.5339 43.0657 15.1786 42.779 14.8919C42.4922 14.6052 42.137 14.4618 41.7131 14.4618C41.2892 14.4618 40.9339 14.6052 40.6472 14.8919C40.3605 15.1786 40.2171 15.5339 40.2171 15.9578C40.2171 16.3817 40.3605 16.7369 40.6472 17.0237ZM8.17406 25.6175C8.1616 25.9292 8.26756 26.1972 8.49196 26.4216C8.70389 26.6335 8.96269 26.749 9.26836 26.7679C9.57354 26.7864 9.86326 26.7021 10.1375 26.5151C10.6112 26.191 11.1318 25.9354 11.6993 25.7484C12.2663 25.5614 12.8677 25.4679 13.5034 25.4679C14.1392 25.4679 14.7409 25.5584 15.3083 25.7394C15.8753 25.9199 16.4019 26.1785 16.8881 26.5151C17.1499 26.6896 17.4336 26.7739 17.7393 26.7679C18.0445 26.7614 18.303 26.6522 18.5149 26.4403C18.7393 26.2159 18.8485 25.9511 18.8426 25.6459C18.8361 25.3403 18.7144 25.1002 18.4775 24.9256C17.7919 24.3896 17.0284 23.9719 16.1872 23.6728C15.3455 23.3736 14.4509 23.224 13.5034 23.224C12.5685 23.224 11.6804 23.3703 10.8391 23.663C9.9974 23.9562 9.23371 24.3646 8.54806 24.8882C8.31119 25.0628 8.18653 25.3058 8.17406 25.6175ZM4.99513 22.485C4.99513 22.7906 5.1011 23.0494 5.31303 23.2614C5.52495 23.4733 5.78376 23.5855 6.08943 23.598C6.39461 23.6104 6.67186 23.5169 6.92119 23.3175C7.83124 22.5819 8.84426 22.0085 9.96025 21.5971C11.0757 21.1857 12.2568 20.98 13.5034 20.98C14.7501 20.98 15.9314 21.1857 17.0474 21.5971C18.1629 22.0085 19.1757 22.5819 20.0857 23.3175C20.335 23.5169 20.6125 23.6104 20.9182 23.598C21.2234 23.5855 21.4819 23.4733 21.6939 23.2614C21.9183 23.037 22.0275 22.7752 22.0215 22.476C22.015 22.1768 21.8996 21.9275 21.6752 21.728C20.5657 20.793 19.319 20.0605 17.9353 19.5304C16.5515 19.0008 15.0742 18.7361 13.5034 18.7361C11.9327 18.7361 10.4554 19.0008 9.07164 19.5304C7.68787 20.0605 6.44123 20.793 5.33173 21.728C5.10733 21.9275 4.99513 22.1798 4.99513 22.485ZM12.4376 30.2737C12.7243 30.5604 13.0796 30.7038 13.5034 30.7038C13.9273 30.7038 14.2826 30.5604 14.5693 30.2737C14.8561 29.987 14.9994 29.6317 14.9994 29.2078C14.9994 28.784 14.8561 28.4287 14.5693 28.142C14.2826 27.8552 13.9273 27.7119 13.5034 27.7119C13.0796 27.7119 12.7243 27.8552 12.4376 28.142C12.1508 28.4287 12.0075 28.784 12.0075 29.2078C12.0075 29.6317 12.1508 29.987 12.4376 30.2737ZM9.27457 35.4683C10.3964 34.335 11.9173 33.6976 13.5038 33.6957C15.0903 33.6976 16.6113 34.335 17.7331 35.4683C18.8549 36.6016 19.4859 38.1382 19.4877 39.7409C19.4877 44.9137 14.0478 48.8224 13.8166 48.9873C13.724 49.0496 13.6151 49.0828 13.5038 49.0828C13.3925 49.0828 13.2837 49.0496 13.191 48.9873C12.9598 48.8224 7.51994 44.9137 7.51994 39.7409C7.52174 38.1382 8.15276 36.6016 9.27457 35.4683ZM14.7127 37.9131C14.3549 37.6716 13.9342 37.5427 13.5038 37.5427C12.9267 37.5427 12.3733 37.7743 11.9652 38.1865C11.5571 38.5988 11.3279 39.1579 11.3279 39.7409C11.3279 40.1757 11.4555 40.6007 11.6946 40.9622C11.9337 41.3237 12.2735 41.6054 12.6711 41.7718C13.0687 41.9382 13.5062 41.9817 13.9283 41.8969C14.3504 41.8121 14.7381 41.6027 15.0424 41.2953C15.3468 40.9879 15.554 40.5962 15.638 40.1698C15.7219 39.7434 15.6788 39.3014 15.5141 38.8997C15.3494 38.498 15.0705 38.1547 14.7127 37.9131ZM41.7129 20.4456C40.1265 20.4475 38.6055 21.0849 37.4837 22.2182C36.3619 23.3515 35.7309 24.8881 35.7291 26.4908C35.7291 31.6636 41.1689 35.5723 41.4001 35.7372C41.4928 35.7995 41.6016 35.8327 41.7129 35.8327C41.8242 35.8327 41.9331 35.7995 42.0257 35.7372C42.2569 35.5723 47.6968 31.6636 47.6968 26.4908C47.695 24.8881 47.064 23.3515 45.9422 22.2182C44.8204 21.0849 43.2994 20.4475 41.7129 20.4456ZM41.7129 24.2926C42.1433 24.2926 42.564 24.4215 42.9218 24.663C43.2797 24.9046 43.5585 25.2479 43.7232 25.6496C43.8879 26.0513 43.931 26.4933 43.8471 26.9197C43.7631 27.3461 43.5559 27.7378 43.2516 28.0452C42.9472 28.3526 42.5595 28.562 42.1374 28.6468C41.7153 28.7316 41.2778 28.6881 40.8802 28.5217C40.4826 28.3553 40.1428 28.0736 39.9037 27.7121C39.6646 27.3506 39.537 26.9256 39.537 26.4908C39.537 25.9078 39.7662 25.3487 40.1743 24.9364C40.5824 24.5242 41.1358 24.2926 41.7129 24.2926Z" fill="url(#paint1_linear_6681_51745)"/>
<defs>
<linearGradient id="paint0_linear_6681_51745" x1="13.4104" y1="8.78965" x2="28.5926" y2="45.2272" gradientUnits="userSpaceOnUse">
<stop stop-color="#3261FF"/>
<stop offset="1" stop-color="#3261FF" stop-opacity="0"/>
</linearGradient>
<linearGradient id="paint1_linear_6681_51745" x1="13.9621" y1="5.75317" x2="41.0143" y2="51.3" gradientUnits="userSpaceOnUse">
<stop stop-color="#3261FF"/>
<stop offset="1" stop-color="#7A99FF"/>
</linearGradient>
</defs>
</svg>
