<svg viewBox="0 0 272 272" fill="none" xmlns="http://www.w3.org/2000/svg">
<g opacity="0.6" filter="url(#filter0_diii_6681_51832)">
<circle cx="135.53" cy="123.623" r="87.1283" fill="#3261FF"/>
<circle cx="135.53" cy="123.623" r="87.1283" fill="url(#paint0_radial_6681_51832)"/>
</g>
<g filter="url(#filter1_diii_6681_51832)">
<circle cx="89.7371" cy="137.614" r="10.3515" transform="rotate(153.551 89.7371 137.614)" fill="#3261FF"/>
<circle cx="89.7371" cy="137.614" r="10.3515" transform="rotate(153.551 89.7371 137.614)" fill="url(#paint1_radial_6681_51832)"/>
</g>
<g filter="url(#filter2_diii_6681_51832)">
<circle cx="178.219" cy="190.312" r="15.5272" transform="rotate(153.551 178.219 190.312)" fill="#3261FF"/>
<circle cx="178.219" cy="190.312" r="15.5272" transform="rotate(153.551 178.219 190.312)" fill="url(#paint2_radial_6681_51832)"/>
</g>
<g filter="url(#filter3_diii_6681_51832)">
<circle cx="190.818" cy="78.2611" r="7.61139" transform="rotate(153.551 190.818 78.2611)" fill="#3261FF"/>
<circle cx="190.818" cy="78.2611" r="7.61139" transform="rotate(153.551 190.818 78.2611)" fill="url(#paint3_radial_6681_51832)"/>
</g>
<g filter="url(#filter4_diii_6681_51832)">
<circle cx="78.4948" cy="101.772" r="4.87129" transform="rotate(153.551 78.4948 101.772)" fill="#3261FF"/>
<circle cx="78.4948" cy="101.772" r="4.87129" transform="rotate(153.551 78.4948 101.772)" fill="url(#paint4_radial_6681_51832)"/>
</g>
<g filter="url(#filter5_diii_6681_51832)">
<circle cx="95.1822" cy="79.8222" r="3.04455" transform="rotate(153.551 95.1822 79.8222)" fill="#3261FF"/>
<circle cx="95.1822" cy="79.8222" r="3.04455" transform="rotate(153.551 95.1822 79.8222)" fill="url(#paint5_radial_6681_51832)"/>
</g>
<path fill-rule="evenodd" clip-rule="evenodd" d="M164.056 115.025C164.478 117.595 164.542 120.408 164.034 123.355C163.83 124.539 164.625 125.664 165.809 125.868C166.993 126.072 168.118 125.277 168.322 124.093C168.919 120.626 168.843 117.323 168.35 114.32C168.155 113.135 167.036 112.331 165.851 112.526C164.665 112.721 163.862 113.84 164.056 115.025ZM161.398 107.112C161.964 108.172 163.282 108.573 164.342 108.007C165.402 107.441 165.803 106.124 165.237 105.064C164.356 103.411 163.386 101.998 162.43 100.896C161.642 99.9885 160.268 99.8912 159.361 100.679C158.453 101.466 158.356 102.84 159.143 103.748C159.859 104.572 160.65 105.708 161.398 107.112ZM165.125 133.306C165.691 132.246 165.291 130.928 164.231 130.362C163.171 129.796 161.853 130.196 161.287 131.256C160.652 132.445 159.903 133.646 159.027 134.851C158.32 135.823 158.535 137.184 159.507 137.89C160.479 138.597 161.84 138.381 162.546 137.41C163.538 136.046 164.393 134.675 165.125 133.306ZM108.194 115.098C107.686 118.044 107.75 120.858 108.172 123.427C108.366 124.613 107.563 125.732 106.377 125.927C105.192 126.121 104.073 125.318 103.878 124.132C103.385 121.13 103.309 117.827 103.906 114.359C104.11 113.175 105.235 112.381 106.419 112.585C107.603 112.789 108.398 113.914 108.194 115.098ZM107.886 130.445C108.946 129.88 110.264 130.281 110.83 131.341C111.578 132.744 112.37 133.88 113.085 134.705C113.872 135.612 113.775 136.986 112.867 137.774C111.96 138.561 110.586 138.464 109.799 137.556C108.843 136.455 107.872 135.041 106.991 133.389C106.425 132.329 106.826 131.011 107.886 130.445ZM107.997 108.091C106.937 107.524 106.537 106.206 107.103 105.147C107.835 103.777 108.691 102.407 109.682 101.043C110.388 100.071 111.749 99.8558 112.721 100.562C113.693 101.269 113.908 102.629 113.202 103.601C112.325 104.807 111.576 106.008 110.941 107.197C110.375 108.257 109.057 108.657 107.997 108.091ZM120.615 103.695L120.805 103.885C121.518 104.598 121.494 105.691 120.876 106.452C117.858 110.112 116.361 114.722 116.361 119.167C116.361 123.611 117.858 128.221 120.876 131.881C121.494 132.642 121.518 133.735 120.805 134.448L120.615 134.638C119.831 135.446 118.524 135.327 117.811 134.448C114.198 129.98 112.321 124.68 112.321 119.167C112.321 113.653 114.198 108.353 117.811 103.885C118.524 103.006 119.831 102.911 120.615 103.695ZM148.754 128.625C148.017 129.6 146.615 129.695 145.759 128.839C145.046 128.126 144.951 127.009 145.569 126.249C147.161 124.229 147.969 121.71 147.969 119.167C147.969 116.766 147.114 114.2 145.45 112.013C144.88 111.3 144.999 110.255 145.64 109.613L145.83 109.423C146.023 109.232 146.254 109.085 146.509 108.991C146.763 108.897 147.035 108.859 147.305 108.88C147.575 108.9 147.838 108.978 148.076 109.108C148.313 109.239 148.52 109.419 148.682 109.637C150.797 112.441 151.819 115.816 152.009 119.167C152.009 122.494 150.892 125.821 148.754 128.625ZM134.47 113.439C138.439 112.393 142.028 115.364 142.028 119.167C142.028 120.973 141.22 122.541 139.96 123.635L146.995 144.715C147.097 144.998 147.142 145.299 147.127 145.599C147.111 145.9 147.036 146.195 146.904 146.466C146.773 146.737 146.589 146.979 146.363 147.177C146.137 147.376 145.873 147.527 145.588 147.623C145.302 147.718 145 147.755 144.7 147.732C144.4 147.708 144.107 147.625 143.84 147.487C143.572 147.349 143.335 147.159 143.142 146.927C142.949 146.696 142.805 146.429 142.717 146.141L141.648 142.932H130.549L129.48 146.141C129.171 147.068 128.315 147.686 127.341 147.686C125.796 147.686 124.703 146.188 125.202 144.715L132.236 123.635C130.573 122.209 129.67 119.88 130.43 117.36C131.001 115.459 132.569 113.938 134.47 113.439ZM136.086 126.296L132.118 138.179H140.055L136.086 126.296ZM126.556 128.697L126.343 128.911C125.534 129.719 124.204 129.624 123.491 128.72C121.328 125.916 120.163 122.541 120.163 119.167C120.163 115.792 121.328 112.417 123.491 109.613C124.204 108.71 125.534 108.615 126.343 109.423L126.509 109.589C127.174 110.231 127.269 111.3 126.675 112.013C125.035 114.033 124.204 116.6 124.204 119.167C124.204 121.567 125.059 124.134 126.747 126.296C127.317 127.009 127.198 128.055 126.556 128.697ZM151.368 103.885L151.558 103.695C152.342 102.911 153.649 103.006 154.362 103.885C157.975 108.353 159.852 113.653 159.852 119.167C159.852 124.657 158.165 129.956 154.434 134.424C153.697 135.327 152.318 135.422 151.487 134.591C150.75 133.854 150.631 132.666 151.297 131.881C154.315 128.221 155.812 123.611 155.812 119.167C155.812 114.722 154.291 110.088 151.297 106.452C150.679 105.691 150.655 104.598 151.368 103.885Z" fill="url(#paint6_linear_6681_51832)"/>
<path fill-rule="evenodd" clip-rule="evenodd" d="M162.68 115.713C163.102 118.283 163.166 121.096 162.658 124.043C162.454 125.227 163.249 126.352 164.433 126.556C165.617 126.76 166.742 125.965 166.946 124.781C167.543 121.314 167.467 118.011 166.974 115.008C166.779 113.823 165.66 113.019 164.475 113.214C163.289 113.409 162.486 114.528 162.68 115.713ZM160.022 107.8C160.588 108.86 161.906 109.261 162.966 108.695C164.026 108.13 164.427 106.812 163.861 105.752C162.98 104.099 162.01 102.686 161.054 101.584C160.266 100.677 158.892 100.579 157.985 101.367C157.077 102.154 156.98 103.528 157.767 104.436C158.483 105.26 159.274 106.396 160.022 107.8ZM163.749 133.994C164.315 132.934 163.915 131.616 162.855 131.05C161.795 130.484 160.477 130.884 159.911 131.944C159.276 133.133 158.527 134.334 157.651 135.54C156.944 136.511 157.159 137.872 158.131 138.578C159.103 139.285 160.464 139.07 161.17 138.098C162.162 136.734 163.017 135.364 163.749 133.994ZM106.818 115.786C106.31 118.733 106.373 121.546 106.795 124.116C106.99 125.301 106.187 126.42 105.001 126.615C103.815 126.81 102.696 126.006 102.502 124.821C102.009 121.818 101.932 118.515 102.53 115.047C102.734 113.863 103.859 113.069 105.043 113.273C106.227 113.477 107.022 114.602 106.818 115.786ZM106.51 131.134C107.57 130.568 108.888 130.969 109.453 132.029C110.202 133.433 110.993 134.569 111.709 135.393C112.496 136.301 112.399 137.675 111.491 138.462C110.584 139.25 109.21 139.152 108.422 138.245C107.466 137.143 106.496 135.73 105.614 134.077C105.049 133.017 105.45 131.699 106.51 131.134ZM106.621 108.779C105.561 108.213 105.161 106.894 105.727 105.835C106.458 104.465 107.314 103.095 108.305 101.731C109.012 100.759 110.372 100.544 111.344 101.25C112.316 101.957 112.532 103.317 111.825 104.289C110.949 105.495 110.2 106.696 109.565 107.885C108.998 108.945 107.68 109.345 106.621 108.779ZM119.239 104.383L119.429 104.573C120.142 105.286 120.118 106.38 119.5 107.14C116.482 110.8 114.985 115.411 114.985 119.855C114.985 124.299 116.482 128.91 119.5 132.569C120.118 133.33 120.142 134.423 119.429 135.136L119.239 135.326C118.455 136.134 117.148 136.015 116.435 135.136C112.822 130.668 110.945 125.368 110.945 119.855C110.945 114.341 112.822 109.041 116.435 104.573C117.148 103.694 118.455 103.599 119.239 104.383ZM147.378 129.314C146.641 130.288 145.239 130.383 144.383 129.527C143.67 128.814 143.575 127.697 144.193 126.937C145.785 124.917 146.593 122.398 146.593 119.855C146.593 117.454 145.738 114.888 144.074 112.701C143.504 111.988 143.623 110.943 144.264 110.301L144.454 110.111C144.647 109.92 144.878 109.773 145.133 109.679C145.387 109.585 145.659 109.547 145.929 109.568C146.199 109.588 146.462 109.666 146.7 109.797C146.937 109.927 147.144 110.107 147.306 110.325C149.421 113.129 150.443 116.504 150.633 119.855C150.633 123.182 149.516 126.509 147.378 129.314ZM133.094 114.127C137.063 113.082 140.652 116.052 140.652 119.855C140.652 121.661 139.844 123.229 138.584 124.323L145.619 145.403C145.721 145.686 145.766 145.987 145.751 146.287C145.735 146.588 145.66 146.883 145.529 147.154C145.397 147.425 145.213 147.667 144.987 147.865C144.761 148.064 144.497 148.216 144.212 148.311C143.926 148.406 143.624 148.443 143.324 148.42C143.024 148.396 142.731 148.313 142.464 148.175C142.196 148.037 141.959 147.847 141.766 147.616C141.573 147.384 141.429 147.117 141.341 146.829L140.272 143.62H129.173L128.104 146.829C127.795 147.756 126.939 148.374 125.965 148.374C124.42 148.374 123.327 146.876 123.826 145.403L130.86 124.323C129.197 122.897 128.294 120.568 129.054 118.049C129.625 116.147 131.193 114.626 133.094 114.127ZM134.71 126.984L130.742 138.867H138.679L134.71 126.984ZM125.18 129.385L124.967 129.599C124.159 130.407 122.828 130.312 122.115 129.409C119.952 126.604 118.787 123.229 118.787 119.855C118.787 116.48 119.952 113.105 122.115 110.301C122.828 109.398 124.159 109.303 124.967 110.111L125.133 110.277C125.798 110.919 125.893 111.988 125.299 112.701C123.659 114.721 122.828 117.288 122.828 119.855C122.828 122.255 123.683 124.822 125.371 126.984C125.941 127.697 125.822 128.743 125.18 129.385ZM149.992 104.573L150.182 104.383C150.966 103.599 152.273 103.694 152.986 104.573C156.599 109.041 158.476 114.341 158.476 119.855C158.476 125.345 156.789 130.644 153.058 135.112C152.321 136.015 150.942 136.111 150.111 135.279C149.374 134.542 149.255 133.354 149.921 132.569C152.939 128.91 154.436 124.299 154.436 119.855C154.436 115.411 152.915 110.776 149.921 107.14C149.303 106.38 149.279 105.286 149.992 104.573Z" fill="url(#paint7_linear_6681_51832)"/>
<defs>
<filter id="filter0_diii_6681_51832" x="0.0335922" y="-25.74" width="270.992" height="297.306" filterUnits="userSpaceOnUse" color-interpolation-filters="sRGB">
<feFlood flood-opacity="0" result="BackgroundImageFix"/>
<feColorMatrix in="SourceAlpha" type="matrix" values="0 0 0 0 0 0 0 0 0 0 0 0 0 0 0 0 0 0 127 0" result="hardAlpha"/>
<feOffset dy="12.4469"/>
<feGaussianBlur stdDeviation="24.1839"/>
<feColorMatrix type="matrix" values="0 0 0 0 0.196078 0 0 0 0 0.380392 0 0 0 0 1 0 0 0 0.3 0"/>
<feBlend mode="normal" in2="BackgroundImageFix" result="effect1_dropShadow_6681_51832"/>
<feBlend mode="normal" in="SourceGraphic" in2="effect1_dropShadow_6681_51832" result="shape"/>
<feColorMatrix in="SourceAlpha" type="matrix" values="0 0 0 0 0 0 0 0 0 0 0 0 0 0 0 0 0 0 127 0" result="hardAlpha"/>
<feOffset dx="6.22345" dy="46.6759"/>
<feGaussianBlur stdDeviation="46.6759"/>
<feComposite in2="hardAlpha" operator="arithmetic" k2="-1" k3="1"/>
<feColorMatrix type="matrix" values="0 0 0 0 0.196078 0 0 0 0 0.380392 0 0 0 0 1 0 0 0 1 0"/>
<feBlend mode="normal" in2="shape" result="effect2_innerShadow_6681_51832"/>
<feColorMatrix in="SourceAlpha" type="matrix" values="0 0 0 0 0 0 0 0 0 0 0 0 0 0 0 0 0 0 127 0" result="hardAlpha"/>
<feOffset dy="-62.2345"/>
<feGaussianBlur stdDeviation="77.7931"/>
<feComposite in2="hardAlpha" operator="arithmetic" k2="-1" k3="1"/>
<feColorMatrix type="matrix" values="0 0 0 0 1 0 0 0 0 1 0 0 0 0 1 0 0 0 0.53 0"/>
<feBlend mode="normal" in2="effect2_innerShadow_6681_51832" result="effect3_innerShadow_6681_51832"/>
<feColorMatrix in="SourceAlpha" type="matrix" values="0 0 0 0 0 0 0 0 0 0 0 0 0 0 0 0 0 0 127 0" result="hardAlpha"/>
<feOffset dy="6.22345"/>
<feGaussianBlur stdDeviation="15.5586"/>
<feComposite in2="hardAlpha" operator="arithmetic" k2="-1" k3="1"/>
<feColorMatrix type="matrix" values="0 0 0 0 1 0 0 0 0 1 0 0 0 0 1 0 0 0 0.58 0"/>
<feBlend mode="normal" in2="effect3_innerShadow_6681_51832" result="effect4_innerShadow_6681_51832"/>
</filter>
<filter id="filter1_diii_6681_51832" x="42.8487" y="80.2517" width="93.7769" height="113.653" filterUnits="userSpaceOnUse" color-interpolation-filters="sRGB">
<feFlood flood-opacity="0" result="BackgroundImageFix"/>
<feColorMatrix in="SourceAlpha" type="matrix" values="0 0 0 0 0 0 0 0 0 0 0 0 0 0 0 0 0 0 127 0" result="hardAlpha"/>
<feOffset dy="9.40178"/>
<feGaussianBlur stdDeviation="18.2673"/>
<feColorMatrix type="matrix" values="0 0 0 0 0.196078 0 0 0 0 0.380392 0 0 0 0 1 0 0 0 0.2 0"/>
<feBlend mode="normal" in2="BackgroundImageFix" result="effect1_dropShadow_6681_51832"/>
<feBlend mode="normal" in="SourceGraphic" in2="effect1_dropShadow_6681_51832" result="shape"/>
<feColorMatrix in="SourceAlpha" type="matrix" values="0 0 0 0 0 0 0 0 0 0 0 0 0 0 0 0 0 0 127 0" result="hardAlpha"/>
<feOffset dx="4.70089" dy="35.2567"/>
<feGaussianBlur stdDeviation="35.2567"/>
<feComposite in2="hardAlpha" operator="arithmetic" k2="-1" k3="1"/>
<feColorMatrix type="matrix" values="0 0 0 0 0.196078 0 0 0 0 0.380392 0 0 0 0 1 0 0 0 1 0"/>
<feBlend mode="normal" in2="shape" result="effect2_innerShadow_6681_51832"/>
<feColorMatrix in="SourceAlpha" type="matrix" values="0 0 0 0 0 0 0 0 0 0 0 0 0 0 0 0 0 0 127 0" result="hardAlpha"/>
<feOffset dy="-47.0089"/>
<feGaussianBlur stdDeviation="58.7611"/>
<feComposite in2="hardAlpha" operator="arithmetic" k2="-1" k3="1"/>
<feColorMatrix type="matrix" values="0 0 0 0 1 0 0 0 0 1 0 0 0 0 1 0 0 0 0.53 0"/>
<feBlend mode="normal" in2="effect2_innerShadow_6681_51832" result="effect3_innerShadow_6681_51832"/>
<feColorMatrix in="SourceAlpha" type="matrix" values="0 0 0 0 0 0 0 0 0 0 0 0 0 0 0 0 0 0 127 0" result="hardAlpha"/>
<feOffset dy="4.70089"/>
<feGaussianBlur stdDeviation="11.7522"/>
<feComposite in2="hardAlpha" operator="arithmetic" k2="-1" k3="1"/>
<feColorMatrix type="matrix" values="0 0 0 0 1 0 0 0 0 1 0 0 0 0 1 0 0 0 0.58 0"/>
<feBlend mode="normal" in2="effect3_innerShadow_6681_51832" result="effect4_innerShadow_6681_51832"/>
</filter>
<filter id="filter2_diii_6681_51832" x="126.154" y="127.773" width="104.131" height="124.007" filterUnits="userSpaceOnUse" color-interpolation-filters="sRGB">
<feFlood flood-opacity="0" result="BackgroundImageFix"/>
<feColorMatrix in="SourceAlpha" type="matrix" values="0 0 0 0 0 0 0 0 0 0 0 0 0 0 0 0 0 0 127 0" result="hardAlpha"/>
<feOffset dy="9.40178"/>
<feGaussianBlur stdDeviation="18.2673"/>
<feColorMatrix type="matrix" values="0 0 0 0 0.196078 0 0 0 0 0.380392 0 0 0 0 1 0 0 0 0.2 0"/>
<feBlend mode="normal" in2="BackgroundImageFix" result="effect1_dropShadow_6681_51832"/>
<feBlend mode="normal" in="SourceGraphic" in2="effect1_dropShadow_6681_51832" result="shape"/>
<feColorMatrix in="SourceAlpha" type="matrix" values="0 0 0 0 0 0 0 0 0 0 0 0 0 0 0 0 0 0 127 0" result="hardAlpha"/>
<feOffset dx="4.70089" dy="35.2567"/>
<feGaussianBlur stdDeviation="35.2567"/>
<feComposite in2="hardAlpha" operator="arithmetic" k2="-1" k3="1"/>
<feColorMatrix type="matrix" values="0 0 0 0 0.196078 0 0 0 0 0.380392 0 0 0 0 1 0 0 0 1 0"/>
<feBlend mode="normal" in2="shape" result="effect2_innerShadow_6681_51832"/>
<feColorMatrix in="SourceAlpha" type="matrix" values="0 0 0 0 0 0 0 0 0 0 0 0 0 0 0 0 0 0 127 0" result="hardAlpha"/>
<feOffset dy="-47.0089"/>
<feGaussianBlur stdDeviation="58.7611"/>
<feComposite in2="hardAlpha" operator="arithmetic" k2="-1" k3="1"/>
<feColorMatrix type="matrix" values="0 0 0 0 1 0 0 0 0 1 0 0 0 0 1 0 0 0 0.53 0"/>
<feBlend mode="normal" in2="effect2_innerShadow_6681_51832" result="effect3_innerShadow_6681_51832"/>
<feColorMatrix in="SourceAlpha" type="matrix" values="0 0 0 0 0 0 0 0 0 0 0 0 0 0 0 0 0 0 127 0" result="hardAlpha"/>
<feOffset dy="4.70089"/>
<feGaussianBlur stdDeviation="11.7522"/>
<feComposite in2="hardAlpha" operator="arithmetic" k2="-1" k3="1"/>
<feColorMatrix type="matrix" values="0 0 0 0 1 0 0 0 0 1 0 0 0 0 1 0 0 0 0.58 0"/>
<feBlend mode="normal" in2="effect3_innerShadow_6681_51832" result="effect4_innerShadow_6681_51832"/>
</filter>
<filter id="filter3_diii_6681_51832" x="146.67" y="23.6392" width="88.2954" height="108.171" filterUnits="userSpaceOnUse" color-interpolation-filters="sRGB">
<feFlood flood-opacity="0" result="BackgroundImageFix"/>
<feColorMatrix in="SourceAlpha" type="matrix" values="0 0 0 0 0 0 0 0 0 0 0 0 0 0 0 0 0 0 127 0" result="hardAlpha"/>
<feOffset dy="9.40178"/>
<feGaussianBlur stdDeviation="18.2673"/>
<feColorMatrix type="matrix" values="0 0 0 0 0.196078 0 0 0 0 0.380392 0 0 0 0 1 0 0 0 0.2 0"/>
<feBlend mode="normal" in2="BackgroundImageFix" result="effect1_dropShadow_6681_51832"/>
<feBlend mode="normal" in="SourceGraphic" in2="effect1_dropShadow_6681_51832" result="shape"/>
<feColorMatrix in="SourceAlpha" type="matrix" values="0 0 0 0 0 0 0 0 0 0 0 0 0 0 0 0 0 0 127 0" result="hardAlpha"/>
<feOffset dx="4.70089" dy="35.2567"/>
<feGaussianBlur stdDeviation="35.2567"/>
<feComposite in2="hardAlpha" operator="arithmetic" k2="-1" k3="1"/>
<feColorMatrix type="matrix" values="0 0 0 0 0.196078 0 0 0 0 0.380392 0 0 0 0 1 0 0 0 1 0"/>
<feBlend mode="normal" in2="shape" result="effect2_innerShadow_6681_51832"/>
<feColorMatrix in="SourceAlpha" type="matrix" values="0 0 0 0 0 0 0 0 0 0 0 0 0 0 0 0 0 0 127 0" result="hardAlpha"/>
<feOffset dy="-47.0089"/>
<feGaussianBlur stdDeviation="58.7611"/>
<feComposite in2="hardAlpha" operator="arithmetic" k2="-1" k3="1"/>
<feColorMatrix type="matrix" values="0 0 0 0 1 0 0 0 0 1 0 0 0 0 1 0 0 0 0.53 0"/>
<feBlend mode="normal" in2="effect2_innerShadow_6681_51832" result="effect3_innerShadow_6681_51832"/>
<feColorMatrix in="SourceAlpha" type="matrix" values="0 0 0 0 0 0 0 0 0 0 0 0 0 0 0 0 0 0 127 0" result="hardAlpha"/>
<feOffset dy="4.70089"/>
<feGaussianBlur stdDeviation="11.7522"/>
<feComposite in2="hardAlpha" operator="arithmetic" k2="-1" k3="1"/>
<feColorMatrix type="matrix" values="0 0 0 0 1 0 0 0 0 1 0 0 0 0 1 0 0 0 0.58 0"/>
<feBlend mode="normal" in2="effect3_innerShadow_6681_51832" result="effect4_innerShadow_6681_51832"/>
</filter>
<filter id="filter4_diii_6681_51832" x="37.0877" y="49.8903" width="82.814" height="102.69" filterUnits="userSpaceOnUse" color-interpolation-filters="sRGB">
<feFlood flood-opacity="0" result="BackgroundImageFix"/>
<feColorMatrix in="SourceAlpha" type="matrix" values="0 0 0 0 0 0 0 0 0 0 0 0 0 0 0 0 0 0 127 0" result="hardAlpha"/>
<feOffset dy="9.40178"/>
<feGaussianBlur stdDeviation="18.2673"/>
<feColorMatrix type="matrix" values="0 0 0 0 0.196078 0 0 0 0 0.380392 0 0 0 0 1 0 0 0 0.2 0"/>
<feBlend mode="normal" in2="BackgroundImageFix" result="effect1_dropShadow_6681_51832"/>
<feBlend mode="normal" in="SourceGraphic" in2="effect1_dropShadow_6681_51832" result="shape"/>
<feColorMatrix in="SourceAlpha" type="matrix" values="0 0 0 0 0 0 0 0 0 0 0 0 0 0 0 0 0 0 127 0" result="hardAlpha"/>
<feOffset dx="4.70089" dy="35.2567"/>
<feGaussianBlur stdDeviation="35.2567"/>
<feComposite in2="hardAlpha" operator="arithmetic" k2="-1" k3="1"/>
<feColorMatrix type="matrix" values="0 0 0 0 0.196078 0 0 0 0 0.380392 0 0 0 0 1 0 0 0 1 0"/>
<feBlend mode="normal" in2="shape" result="effect2_innerShadow_6681_51832"/>
<feColorMatrix in="SourceAlpha" type="matrix" values="0 0 0 0 0 0 0 0 0 0 0 0 0 0 0 0 0 0 127 0" result="hardAlpha"/>
<feOffset dy="-47.0089"/>
<feGaussianBlur stdDeviation="58.7611"/>
<feComposite in2="hardAlpha" operator="arithmetic" k2="-1" k3="1"/>
<feColorMatrix type="matrix" values="0 0 0 0 1 0 0 0 0 1 0 0 0 0 1 0 0 0 0.53 0"/>
<feBlend mode="normal" in2="effect2_innerShadow_6681_51832" result="effect3_innerShadow_6681_51832"/>
<feColorMatrix in="SourceAlpha" type="matrix" values="0 0 0 0 0 0 0 0 0 0 0 0 0 0 0 0 0 0 127 0" result="hardAlpha"/>
<feOffset dy="4.70089"/>
<feGaussianBlur stdDeviation="11.7522"/>
<feComposite in2="hardAlpha" operator="arithmetic" k2="-1" k3="1"/>
<feColorMatrix type="matrix" values="0 0 0 0 1 0 0 0 0 1 0 0 0 0 1 0 0 0 0.58 0"/>
<feBlend mode="normal" in2="effect3_innerShadow_6681_51832" result="effect4_innerShadow_6681_51832"/>
</filter>
<filter id="filter5_diii_6681_51832" x="55.6023" y="29.7681" width="79.1598" height="99.0358" filterUnits="userSpaceOnUse" color-interpolation-filters="sRGB">
<feFlood flood-opacity="0" result="BackgroundImageFix"/>
<feColorMatrix in="SourceAlpha" type="matrix" values="0 0 0 0 0 0 0 0 0 0 0 0 0 0 0 0 0 0 127 0" result="hardAlpha"/>
<feOffset dy="9.40178"/>
<feGaussianBlur stdDeviation="18.2673"/>
<feColorMatrix type="matrix" values="0 0 0 0 0.196078 0 0 0 0 0.380392 0 0 0 0 1 0 0 0 0.2 0"/>
<feBlend mode="normal" in2="BackgroundImageFix" result="effect1_dropShadow_6681_51832"/>
<feBlend mode="normal" in="SourceGraphic" in2="effect1_dropShadow_6681_51832" result="shape"/>
<feColorMatrix in="SourceAlpha" type="matrix" values="0 0 0 0 0 0 0 0 0 0 0 0 0 0 0 0 0 0 127 0" result="hardAlpha"/>
<feOffset dx="4.70089" dy="35.2567"/>
<feGaussianBlur stdDeviation="35.2567"/>
<feComposite in2="hardAlpha" operator="arithmetic" k2="-1" k3="1"/>
<feColorMatrix type="matrix" values="0 0 0 0 0.196078 0 0 0 0 0.380392 0 0 0 0 1 0 0 0 1 0"/>
<feBlend mode="normal" in2="shape" result="effect2_innerShadow_6681_51832"/>
<feColorMatrix in="SourceAlpha" type="matrix" values="0 0 0 0 0 0 0 0 0 0 0 0 0 0 0 0 0 0 127 0" result="hardAlpha"/>
<feOffset dy="-47.0089"/>
<feGaussianBlur stdDeviation="58.7611"/>
<feComposite in2="hardAlpha" operator="arithmetic" k2="-1" k3="1"/>
<feColorMatrix type="matrix" values="0 0 0 0 1 0 0 0 0 1 0 0 0 0 1 0 0 0 0.53 0"/>
<feBlend mode="normal" in2="effect2_innerShadow_6681_51832" result="effect3_innerShadow_6681_51832"/>
<feColorMatrix in="SourceAlpha" type="matrix" values="0 0 0 0 0 0 0 0 0 0 0 0 0 0 0 0 0 0 127 0" result="hardAlpha"/>
<feOffset dy="4.70089"/>
<feGaussianBlur stdDeviation="11.7522"/>
<feComposite in2="hardAlpha" operator="arithmetic" k2="-1" k3="1"/>
<feColorMatrix type="matrix" values="0 0 0 0 1 0 0 0 0 1 0 0 0 0 1 0 0 0 0.58 0"/>
<feBlend mode="normal" in2="effect3_innerShadow_6681_51832" result="effect4_innerShadow_6681_51832"/>
</filter>
<radialGradient id="paint0_radial_6681_51832" cx="0" cy="0" r="1" gradientUnits="userSpaceOnUse" gradientTransform="translate(171.078 90.8626) rotate(110.973) scale(179.156)">
<stop stop-color="#3261FF"/>
<stop offset="1" stop-color="#A7A8AD" stop-opacity="0"/>
</radialGradient>
<radialGradient id="paint1_radial_6681_51832" cx="0" cy="0" r="1" gradientUnits="userSpaceOnUse" gradientTransform="translate(93.9605 133.722) rotate(110.973) scale(21.2851)">
<stop stop-color="#3261FF"/>
<stop offset="1" stop-color="#A7A8AD" stop-opacity="0"/>
</radialGradient>
<radialGradient id="paint2_radial_6681_51832" cx="0" cy="0" r="1" gradientUnits="userSpaceOnUse" gradientTransform="translate(184.554 184.474) rotate(110.973) scale(31.9276)">
<stop stop-color="#3261FF"/>
<stop offset="1" stop-color="#A7A8AD" stop-opacity="0"/>
</radialGradient>
<radialGradient id="paint3_radial_6681_51832" cx="0" cy="0" r="1" gradientUnits="userSpaceOnUse" gradientTransform="translate(193.924 75.3992) rotate(110.973) scale(15.6508)">
<stop stop-color="#3261FF"/>
<stop offset="1" stop-color="#A7A8AD" stop-opacity="0"/>
</radialGradient>
<radialGradient id="paint4_radial_6681_51832" cx="0" cy="0" r="1" gradientUnits="userSpaceOnUse" gradientTransform="translate(80.4822 99.9399) rotate(110.973) scale(10.0165)">
<stop stop-color="#3261FF"/>
<stop offset="1" stop-color="#A7A8AD" stop-opacity="0"/>
</radialGradient>
<radialGradient id="paint5_radial_6681_51832" cx="0" cy="0" r="1" gradientUnits="userSpaceOnUse" gradientTransform="translate(96.4244 78.6774) rotate(110.973) scale(6.26031)">
<stop stop-color="#3261FF"/>
<stop offset="1" stop-color="#A7A8AD" stop-opacity="0"/>
</radialGradient>
<linearGradient id="paint6_linear_6681_51832" x1="107.101" y1="95.0904" x2="161.974" y2="154.533" gradientUnits="userSpaceOnUse">
<stop stop-color="#3261FF"/>
<stop offset="1" stop-color="#3261FF" stop-opacity="0"/>
</linearGradient>
<linearGradient id="paint7_linear_6681_51832" x1="110.564" y1="100.611" x2="151.277" y2="153.129" gradientUnits="userSpaceOnUse">
<stop stop-color="#3261FF"/>
<stop offset="1" stop-color="#7A99FF"/>
</linearGradient>
</defs>
</svg>
