<svg viewBox="0 0 72 72" fill="none" xmlns="http://www.w3.org/2000/svg">
<path fill-rule="evenodd" clip-rule="evenodd" d="M64.0564 27.0252C64.4784 29.5949 64.5417 32.408 64.0341 35.3546C63.8301 36.5387 64.6247 37.6639 65.8088 37.8679C66.9928 38.0719 68.1181 37.2774 68.3221 36.0933C68.9194 32.626 68.8431 29.3228 68.35 26.3202C68.1554 25.1345 67.0364 24.3312 65.8507 24.5259C64.6651 24.7205 63.8618 25.8395 64.0564 27.0252ZM61.3983 19.1115C61.9639 20.1716 63.2817 20.5725 64.3418 20.007C65.4019 19.4415 65.8028 18.1236 65.2373 17.0635C64.3557 15.411 63.3856 13.9979 62.4296 12.8961C61.6422 11.9885 60.2681 11.8912 59.3606 12.6786C58.4531 13.466 58.3557 14.84 59.1431 15.7476C59.8585 16.5721 60.6496 17.7081 61.3983 19.1115ZM65.1248 45.306C65.691 44.2462 65.2909 42.9281 64.2312 42.3619C63.1714 41.7958 61.8533 42.1959 61.2871 43.2556C60.6517 44.4449 59.9029 45.6457 59.0265 46.8514C58.3201 47.8234 58.5354 49.1839 59.5073 49.8903C60.4793 50.5967 61.8398 50.3815 62.5462 49.4095C63.5375 48.0456 64.3932 46.6754 65.1248 45.306ZM8.19397 27.0979C7.68635 30.0445 7.74973 32.8576 8.17167 35.4273C8.36635 36.613 7.56301 37.7319 6.37737 37.9266C5.19172 38.1213 4.07275 37.318 3.87807 36.1323C3.38504 33.1297 3.30871 29.8265 3.90604 26.3592C4.11003 25.1751 5.23527 24.3806 6.41935 24.5846C7.60343 24.7886 8.39795 25.9138 8.19397 27.0979ZM7.8863 42.4455C8.94641 41.88 10.2643 42.2809 10.8298 43.341C11.5785 44.7444 12.3696 45.8804 13.085 46.7049C13.8724 47.6125 13.775 48.9865 12.8675 49.7739C11.96 50.5613 10.5859 50.464 9.79851 49.5564C8.84255 48.4546 7.87237 47.0415 6.9908 45.389C6.42527 44.3289 6.8262 43.011 7.8863 42.4455ZM7.99693 20.0906C6.93718 19.5244 6.53707 18.2063 7.10326 17.1465C7.83491 15.7771 8.69058 14.4069 9.68189 13.043C10.3883 12.071 11.7488 11.8558 12.7208 12.5622C13.6927 13.2686 13.908 14.6291 13.2016 15.6011C12.3252 16.8068 11.5764 18.0076 10.941 19.1969C10.3748 20.2566 9.05669 20.6567 7.99693 20.0906ZM20.6149 15.6952L20.805 15.8853C21.518 16.5983 21.4942 17.6915 20.8763 18.452C17.8581 22.1119 16.3608 26.7225 16.3608 31.1667C16.3608 35.6108 17.8581 40.2214 20.8763 43.8813C21.4942 44.6418 21.518 45.735 20.805 46.448L20.6149 46.6381C19.8306 47.4462 18.5235 47.3273 17.8105 46.448C14.1982 41.9801 12.3207 36.6803 12.3207 31.1667C12.3207 25.653 14.1982 20.3532 17.8105 15.8853C18.5235 15.006 19.8306 14.9109 20.6149 15.6952ZM48.7535 40.6254C48.0168 41.5998 46.6146 41.6949 45.759 40.8393C45.0461 40.1263 44.951 39.0093 45.5689 38.2488C47.1612 36.2288 47.9693 33.7096 47.9693 31.1667C47.9693 28.7663 47.1137 26.1996 45.4501 24.0132C44.8797 23.3002 44.9985 22.2545 45.6402 21.6128L45.8303 21.4227C46.023 21.2319 46.2543 21.0847 46.5087 20.9909C46.7631 20.8972 47.0347 20.8592 47.305 20.8795C47.5754 20.8998 47.8383 20.9779 48.0759 21.1085C48.3134 21.2391 48.5202 21.4192 48.6822 21.6366C50.7974 24.4409 51.8193 27.8157 52.0094 31.1667C52.0094 34.4939 50.8924 37.8211 48.7535 40.6254ZM34.4703 25.4391C38.4392 24.3934 42.0278 27.3641 42.0278 31.1667C42.0278 32.9728 41.2198 34.5414 39.9602 35.6346L46.9949 56.7148C47.0974 56.9979 47.1423 57.2986 47.1267 57.5993C47.1112 57.9 47.0356 58.1945 46.9045 58.4655C46.7733 58.7366 46.5892 58.9786 46.3631 59.1773C46.1369 59.376 45.8732 59.5275 45.5876 59.6227C45.3019 59.7179 45.0001 59.7549 44.7 59.7317C44.3998 59.7084 44.1073 59.6252 43.8398 59.4871C43.5722 59.349 43.3351 59.1587 43.1422 58.9275C42.9494 58.6963 42.8048 58.4287 42.717 58.1408L41.6476 54.9324H30.549L29.4795 58.1408C29.1706 59.0676 28.315 59.6855 27.3406 59.6855C25.7958 59.6855 24.7026 58.1883 25.2017 56.7148L32.2363 35.6346C30.5727 34.2087 29.6696 31.8796 30.4301 29.3605C31.0005 27.4592 32.5691 25.9382 34.4703 25.4391ZM36.0864 38.2964L32.1175 50.1792H40.0553L36.0864 38.2964ZM26.5564 40.6967L26.3425 40.9106C25.5345 41.7186 24.2036 41.6236 23.4906 40.7205C21.3279 37.9161 20.1634 34.5414 20.1634 31.1666C20.1634 27.7919 21.3279 24.4172 23.4906 21.6128C24.2036 20.7097 25.5345 20.6147 26.3425 21.4227L26.5089 21.5891C27.1743 22.2307 27.2694 23.3002 26.6752 24.0132C25.0354 26.0333 24.2036 28.6 24.2036 31.1666C24.2036 33.567 25.0592 36.1337 26.7465 38.2964C27.3169 39.0093 27.1981 40.055 26.5564 40.6967ZM51.3678 15.8853L51.558 15.6952C52.3422 14.9109 53.6493 15.006 54.3623 15.8853C57.9747 20.3532 59.8522 25.653 59.8522 31.1666C59.8522 36.6565 58.1648 41.9563 54.4336 46.4242C53.6969 47.3273 52.3185 47.4224 51.4867 46.5906C50.7499 45.8539 50.6311 44.6656 51.2965 43.8813C54.3148 40.2214 55.812 35.6108 55.812 31.1666C55.812 26.7225 54.291 22.0881 51.2965 18.452C50.6786 17.6915 50.6549 16.5983 51.3678 15.8853Z" fill="url(#paint0_linear_6681_51839)"/>
<path fill-rule="evenodd" clip-rule="evenodd" d="M62.6805 27.7133C63.1024 30.283 63.1658 33.0961 62.6582 36.0427C62.4542 37.2268 63.2487 38.352 64.4328 38.556C65.6169 38.76 66.7421 37.9655 66.9461 36.7814C67.5434 33.3141 67.4671 30.0109 66.9741 27.0083C66.7794 25.8226 65.6604 25.0193 64.4748 25.214C63.2891 25.4087 62.4858 26.5276 62.6805 27.7133ZM60.0223 19.7996C60.5879 20.8597 61.9057 21.2606 62.9658 20.6951C64.0259 20.1296 64.4269 18.8117 63.8613 17.7516C62.9798 16.0991 62.0096 14.686 61.0536 13.5842C60.2662 12.6766 58.8922 12.5793 57.9846 13.3667C57.0771 14.1541 56.9797 15.5281 57.7671 16.4357C58.4825 17.2602 59.2737 18.3962 60.0223 19.7996ZM63.7489 45.9941C64.3151 44.9343 63.9149 43.6162 62.8552 43.0501C61.7954 42.4839 60.4773 42.884 59.9112 43.9437C59.2758 45.133 58.5269 46.3338 57.6506 47.5395C56.9442 48.5115 57.1594 49.872 58.1313 50.5784C59.1033 51.2848 60.4638 51.0696 61.1702 50.0976C62.1616 48.7337 63.0172 47.3635 63.7489 45.9941ZM6.81755 27.7861C6.30993 30.7327 6.37331 33.5459 6.79525 36.1155C6.98993 37.3012 6.18659 38.4202 5.00095 38.6148C3.81531 38.8095 2.69633 38.0062 2.50165 36.8205C2.00862 33.8179 1.9323 30.5147 2.52962 27.0474C2.73361 25.8633 3.85885 25.0688 5.04293 25.2728C6.22701 25.4768 7.02153 26.602 6.81755 27.7861ZM6.50988 43.1337C7.56999 42.5682 8.88783 42.9691 9.45336 44.0292C10.202 45.4326 10.9932 46.5686 11.7086 47.3931C12.496 48.3007 12.3986 49.6747 11.4911 50.4621C10.5835 51.2496 9.20951 51.1522 8.42209 50.2446C7.46613 49.1429 6.49595 47.7297 5.61438 46.0772C5.04885 45.0171 5.44978 43.6992 6.50988 43.1337ZM6.62052 20.7788C5.56076 20.2126 5.16065 18.8945 5.72684 17.8347C6.45849 16.4653 7.31416 15.0951 8.30547 13.7312C9.01187 12.7592 10.3724 12.544 11.3444 13.2504C12.3163 13.9568 12.5316 15.3173 11.8252 16.2893C10.9488 17.495 10.1999 18.6958 9.56455 19.8851C8.99836 20.9448 7.68027 21.345 6.62052 20.7788ZM19.2389 16.3833L19.4291 16.5734C20.142 17.2864 20.1183 18.3796 19.5004 19.1401C16.4821 22.8 14.9849 27.4106 14.9849 31.8548C14.9849 36.299 16.4821 40.9095 19.5004 44.5694C20.1183 45.3299 20.142 46.4232 19.4291 47.1361L19.2389 47.3263C18.4547 48.1343 17.1475 48.0155 16.4346 47.1361C12.8222 42.6682 10.9447 37.3684 10.9447 31.8548C10.9447 26.3411 12.8222 21.0414 16.4346 16.5734C17.1475 15.6941 18.4547 15.599 19.2389 16.3833ZM47.3775 41.3135C46.6408 42.2879 45.2386 42.383 44.3831 41.5274C43.6701 40.8144 43.575 39.6975 44.1929 38.9369C45.7852 36.9169 46.5933 34.3977 46.5933 31.8548C46.5933 29.4544 45.7377 26.8877 44.0741 24.7013C43.5037 23.9883 43.6226 22.9426 44.2642 22.3009L44.4544 22.1108C44.647 21.92 44.8783 21.7728 45.1327 21.6791C45.3871 21.5853 45.6587 21.5473 45.9291 21.5676C46.1994 21.5879 46.4623 21.666 46.6999 21.7966C46.9375 21.9272 47.1443 22.1073 47.3063 22.3247C49.4214 25.1291 50.4433 28.5038 50.6335 31.8548C50.6335 35.182 49.5165 38.5092 47.3775 41.3135ZM33.0943 26.1272C37.0632 25.0815 40.6518 28.0522 40.6518 31.8548C40.6518 33.661 39.8438 35.2295 38.5842 36.3227L45.6189 57.4029C45.7214 57.686 45.7663 57.9867 45.7508 58.2874C45.7352 58.5881 45.6597 58.8826 45.5285 59.1537C45.3974 59.4247 45.2133 59.6667 44.9871 59.8654C44.7609 60.0641 44.4972 60.2156 44.2116 60.3108C43.926 60.406 43.6242 60.4431 43.324 60.4198C43.0238 60.3965 42.7313 60.3133 42.4638 60.1752C42.1963 60.0371 41.9591 59.8468 41.7663 59.6156C41.5734 59.3844 41.4289 59.1169 41.3411 58.8289L40.2716 55.6205H29.173L28.1035 58.8289C27.7946 59.7557 26.939 60.3736 25.9646 60.3736C24.4199 60.3736 23.3266 58.8764 23.8257 57.4029L30.8604 36.3227C29.1968 34.8968 28.2937 32.5677 29.0542 30.0486C29.6246 28.1473 31.1931 26.6263 33.0943 26.1272ZM34.7104 38.9845L30.7415 50.8673H38.6793L34.7104 38.9845ZM25.1804 41.3848L24.9665 41.5987C24.1585 42.4067 22.8276 42.3117 22.1147 41.4086C19.952 38.6042 18.7875 35.2295 18.7875 31.8548C18.7875 28.48 19.952 25.1053 22.1147 22.3009C22.8276 21.3978 24.1585 21.3028 24.9665 22.1108L25.1329 22.2772C25.7983 22.9188 25.8934 23.9883 25.2993 24.7013C23.6594 26.7214 22.8276 29.2881 22.8276 31.8548C22.8276 34.2551 23.6832 36.8218 25.3706 38.9845C25.9409 39.6974 25.8221 40.7431 25.1804 41.3848ZM49.9919 16.5734L50.182 16.3833C50.9663 15.599 52.2734 15.6941 52.9863 16.5734C56.5987 21.0414 58.4762 26.3411 58.4762 31.8548C58.4762 37.3446 56.7889 42.6444 53.0576 47.1124C52.3209 48.0155 50.9425 48.1105 50.1107 47.2787C49.3739 46.542 49.2551 45.3537 49.9206 44.5694C52.9388 40.9095 54.436 36.299 54.436 31.8548C54.436 27.4106 52.915 22.7763 49.9206 19.1401C49.3027 18.3796 49.2789 17.2864 49.9919 16.5734Z" fill="url(#paint1_linear_6681_51839)"/>
<defs>
<linearGradient id="paint0_linear_6681_51839" x1="7.10133" y1="7.09038" x2="61.9736" y2="66.5329" gradientUnits="userSpaceOnUse">
<stop stop-color="#3261FF"/>
<stop offset="1" stop-color="#3261FF" stop-opacity="0"/>
</linearGradient>
<linearGradient id="paint1_linear_6681_51839" x1="10.5639" y1="12.6105" x2="51.2768" y2="65.1289" gradientUnits="userSpaceOnUse">
<stop stop-color="#3261FF"/>
<stop offset="1" stop-color="#7A99FF"/>
</linearGradient>
</defs>
</svg>
