<svg width="361" height="327" viewBox="0 0 361 327" fill="none" xmlns="http://www.w3.org/2000/svg">
<g filter="url(#filter0_diii_11428_1313)">
<circle cx="117.599" cy="222.336" r="28.5" fill="#3261FF"/>
<circle cx="117.599" cy="222.336" r="28.5" fill="url(#paint0_radial_11428_1313)"/>
</g>
<g opacity="0.8" filter="url(#filter1_diii_11428_1313)">
<circle cx="179.082" cy="142.959" r="108.082" fill="#3261FF"/>
<circle cx="179.082" cy="142.959" r="108.082" fill="url(#paint1_radial_11428_1313)"/>
</g>
<path opacity="0.5" d="M154.5 167.5C152.644 167.5 151.055 166.84 149.735 165.519C148.414 164.198 147.752 162.609 147.75 160.75V120.25C147.75 118.394 148.412 116.805 149.735 115.484C151.058 114.164 152.646 113.502 154.5 113.5H174.75L181.5 120.25H208.5C210.356 120.25 211.946 120.911 213.269 122.234C214.592 123.557 215.252 125.146 215.25 127H191.625C187.912 127 184.734 128.322 182.091 130.966C179.447 133.609 178.125 136.788 178.125 140.5C178.125 142.244 178.421 143.875 179.013 145.394C179.604 146.912 180.433 148.262 181.5 149.444V161.931C180.769 162.719 180.165 163.576 179.688 164.503C179.211 165.43 178.83 166.429 178.547 167.5H154.5ZM191.625 177.625C189.769 177.625 188.18 176.965 186.86 175.644C185.539 174.323 184.877 172.734 184.875 170.875C184.875 169.581 185.184 168.428 185.803 167.416C186.422 166.403 187.237 165.588 188.25 164.969V146.322C187.237 145.703 186.422 144.902 185.803 143.919C185.184 142.936 184.875 141.796 184.875 140.5C184.875 138.644 185.537 137.055 186.86 135.735C188.183 134.414 189.771 133.752 191.625 133.75C193.481 133.75 195.071 134.412 196.394 135.735C197.717 137.058 198.377 138.646 198.375 140.5C198.375 141.794 198.066 142.933 197.447 143.919C196.828 144.904 196.013 145.705 195 146.322V156.025L208.5 151.553V146.322C207.487 145.703 206.672 144.902 206.053 143.919C205.434 142.936 205.125 141.796 205.125 140.5C205.125 138.644 205.786 137.055 207.109 135.735C208.432 134.414 210.021 133.752 211.875 133.75C213.731 133.75 215.321 134.412 216.644 135.735C217.967 137.058 218.627 138.646 218.625 140.5C218.625 141.794 218.316 142.933 217.697 143.919C217.078 144.904 216.262 145.705 215.25 146.322V156.363L195 163.113V164.969C196.013 165.588 196.828 166.403 197.447 167.416C198.066 168.428 198.375 169.581 198.375 170.875C198.375 172.731 197.715 174.321 196.394 175.644C195.073 176.967 193.484 177.627 191.625 177.625Z" fill="url(#paint2_linear_11428_1313)"/>
<path d="M152.5 169.5C150.644 169.5 149.055 168.84 147.735 167.519C146.414 166.198 145.752 164.609 145.75 162.75V122.25C145.75 120.394 146.412 118.805 147.735 117.484C149.058 116.164 150.646 115.502 152.5 115.5H172.75L179.5 122.25H206.5C208.356 122.25 209.946 122.911 211.269 124.234C212.592 125.557 213.252 127.146 213.25 129H189.625C185.912 129 182.734 130.322 180.091 132.966C177.447 135.609 176.125 138.788 176.125 142.5C176.125 144.244 176.421 145.875 177.013 147.394C177.604 148.912 178.433 150.262 179.5 151.444V163.931C178.769 164.719 178.165 165.576 177.688 166.503C177.211 167.43 176.83 168.429 176.547 169.5H152.5ZM189.625 179.625C187.769 179.625 186.18 178.965 184.86 177.644C183.539 176.323 182.877 174.734 182.875 172.875C182.875 171.581 183.184 170.428 183.803 169.416C184.422 168.403 185.237 167.588 186.25 166.969V148.322C185.237 147.703 184.422 146.902 183.803 145.919C183.184 144.936 182.875 143.796 182.875 142.5C182.875 140.644 183.537 139.055 184.86 137.735C186.183 136.414 187.771 135.752 189.625 135.75C191.481 135.75 193.071 136.412 194.394 137.735C195.717 139.058 196.377 140.646 196.375 142.5C196.375 143.794 196.066 144.933 195.447 145.919C194.828 146.904 194.013 147.705 193 148.322V158.025L206.5 153.553V148.322C205.487 147.703 204.672 146.902 204.053 145.919C203.434 144.936 203.125 143.796 203.125 142.5C203.125 140.644 203.786 139.055 205.109 137.735C206.432 136.414 208.021 135.752 209.875 135.75C211.731 135.75 213.321 136.412 214.644 137.735C215.967 139.058 216.627 140.646 216.625 142.5C216.625 143.794 216.316 144.933 215.697 145.919C215.078 146.904 214.262 147.705 213.25 148.322V158.363L193 165.113V166.969C194.013 167.588 194.828 168.403 195.447 169.416C196.066 170.428 196.375 171.581 196.375 172.875C196.375 174.731 195.715 176.321 194.394 177.644C193.073 178.967 191.484 179.627 189.625 179.625Z" fill="url(#paint3_linear_11428_1313)"/>
<g filter="url(#filter2_diii_11428_1313)">
<circle cx="85.553" cy="193.336" r="25.5" fill="#3261FF"/>
<circle cx="85.553" cy="193.336" r="25.5" fill="url(#paint4_radial_11428_1313)"/>
</g>
<g filter="url(#filter3_diii_11428_1313)">
<circle cx="94.053" cy="57.8358" r="8" fill="#3261FF"/>
<circle cx="94.053" cy="57.8358" r="8" fill="url(#paint5_radial_11428_1313)"/>
</g>
<g filter="url(#filter4_diii_11428_1313)">
<circle cx="274.947" cy="120.836" r="8" fill="#3261FF"/>
<circle cx="274.947" cy="120.836" r="8" fill="url(#paint6_radial_11428_1313)"/>
</g>
<g filter="url(#filter5_diii_11428_1313)">
<circle cx="295.947" cy="90.8358" r="5" fill="#3261FF"/>
<circle cx="295.947" cy="90.8358" r="5" fill="url(#paint7_radial_11428_1313)"/>
</g>
<g filter="url(#filter6_diii_11428_1313)">
<circle cx="274.807" cy="210.336" r="25.5" fill="#3261FF"/>
<circle cx="274.807" cy="210.336" r="25.5" fill="url(#paint8_radial_11428_1313)"/>
</g>
<defs>
<filter id="filter0_diii_11428_1313" x="29.0994" y="116.634" width="177" height="209.642" filterUnits="userSpaceOnUse" color-interpolation-filters="sRGB">
<feFlood flood-opacity="0" result="BackgroundImageFix"/>
<feColorMatrix in="SourceAlpha" type="matrix" values="0 0 0 0 0 0 0 0 0 0 0 0 0 0 0 0 0 0 127 0" result="hardAlpha"/>
<feOffset dy="15.4403"/>
<feGaussianBlur stdDeviation="30"/>
<feColorMatrix type="matrix" values="0 0 0 0 0.196078 0 0 0 0 0.380392 0 0 0 0 1 0 0 0 0.2 0"/>
<feBlend mode="normal" in2="BackgroundImageFix" result="effect1_dropShadow_11428_1313"/>
<feBlend mode="normal" in="SourceGraphic" in2="effect1_dropShadow_11428_1313" result="shape"/>
<feColorMatrix in="SourceAlpha" type="matrix" values="0 0 0 0 0 0 0 0 0 0 0 0 0 0 0 0 0 0 127 0" result="hardAlpha"/>
<feOffset dx="7.72016" dy="57.9012"/>
<feGaussianBlur stdDeviation="57.9012"/>
<feComposite in2="hardAlpha" operator="arithmetic" k2="-1" k3="1"/>
<feColorMatrix type="matrix" values="0 0 0 0 0.196078 0 0 0 0 0.380392 0 0 0 0 1 0 0 0 1 0"/>
<feBlend mode="normal" in2="shape" result="effect2_innerShadow_11428_1313"/>
<feColorMatrix in="SourceAlpha" type="matrix" values="0 0 0 0 0 0 0 0 0 0 0 0 0 0 0 0 0 0 127 0" result="hardAlpha"/>
<feOffset dy="-77.2016"/>
<feGaussianBlur stdDeviation="96.502"/>
<feComposite in2="hardAlpha" operator="arithmetic" k2="-1" k3="1"/>
<feColorMatrix type="matrix" values="0 0 0 0 1 0 0 0 0 1 0 0 0 0 1 0 0 0 0.53 0"/>
<feBlend mode="normal" in2="effect2_innerShadow_11428_1313" result="effect3_innerShadow_11428_1313"/>
<feColorMatrix in="SourceAlpha" type="matrix" values="0 0 0 0 0 0 0 0 0 0 0 0 0 0 0 0 0 0 127 0" result="hardAlpha"/>
<feOffset dy="7.72016"/>
<feGaussianBlur stdDeviation="19.3004"/>
<feComposite in2="hardAlpha" operator="arithmetic" k2="-1" k3="1"/>
<feColorMatrix type="matrix" values="0 0 0 0 1 0 0 0 0 1 0 0 0 0 1 0 0 0 0.58 0"/>
<feBlend mode="normal" in2="effect3_innerShadow_11428_1313" result="effect4_innerShadow_11428_1313"/>
</filter>
<filter id="filter1_diii_11428_1313" x="21" y="-42.3249" width="316.165" height="358.806" filterUnits="userSpaceOnUse" color-interpolation-filters="sRGB">
<feFlood flood-opacity="0" result="BackgroundImageFix"/>
<feColorMatrix in="SourceAlpha" type="matrix" values="0 0 0 0 0 0 0 0 0 0 0 0 0 0 0 0 0 0 127 0" result="hardAlpha"/>
<feOffset dy="15.4403"/>
<feGaussianBlur stdDeviation="25"/>
<feColorMatrix type="matrix" values="0 0 0 0 0.196078 0 0 0 0 0.380392 0 0 0 0 1 0 0 0 0.3 0"/>
<feBlend mode="normal" in2="BackgroundImageFix" result="effect1_dropShadow_11428_1313"/>
<feBlend mode="normal" in="SourceGraphic" in2="effect1_dropShadow_11428_1313" result="shape"/>
<feColorMatrix in="SourceAlpha" type="matrix" values="0 0 0 0 0 0 0 0 0 0 0 0 0 0 0 0 0 0 127 0" result="hardAlpha"/>
<feOffset dx="7.72016" dy="57.9012"/>
<feGaussianBlur stdDeviation="57.9012"/>
<feComposite in2="hardAlpha" operator="arithmetic" k2="-1" k3="1"/>
<feColorMatrix type="matrix" values="0 0 0 0 0.196078 0 0 0 0 0.380392 0 0 0 0 1 0 0 0 1 0"/>
<feBlend mode="normal" in2="shape" result="effect2_innerShadow_11428_1313"/>
<feColorMatrix in="SourceAlpha" type="matrix" values="0 0 0 0 0 0 0 0 0 0 0 0 0 0 0 0 0 0 127 0" result="hardAlpha"/>
<feOffset dy="-77.2016"/>
<feGaussianBlur stdDeviation="96.502"/>
<feComposite in2="hardAlpha" operator="arithmetic" k2="-1" k3="1"/>
<feColorMatrix type="matrix" values="0 0 0 0 1 0 0 0 0 1 0 0 0 0 1 0 0 0 0.53 0"/>
<feBlend mode="normal" in2="effect2_innerShadow_11428_1313" result="effect3_innerShadow_11428_1313"/>
<feColorMatrix in="SourceAlpha" type="matrix" values="0 0 0 0 0 0 0 0 0 0 0 0 0 0 0 0 0 0 127 0" result="hardAlpha"/>
<feOffset dy="7.72016"/>
<feGaussianBlur stdDeviation="19.3004"/>
<feComposite in2="hardAlpha" operator="arithmetic" k2="-1" k3="1"/>
<feColorMatrix type="matrix" values="0 0 0 0 1 0 0 0 0 1 0 0 0 0 1 0 0 0 0.58 0"/>
<feBlend mode="normal" in2="effect3_innerShadow_11428_1313" result="effect4_innerShadow_11428_1313"/>
</filter>
<filter id="filter2_diii_11428_1313" x="0.0529785" y="90.6341" width="171" height="203.642" filterUnits="userSpaceOnUse" color-interpolation-filters="sRGB">
<feFlood flood-opacity="0" result="BackgroundImageFix"/>
<feColorMatrix in="SourceAlpha" type="matrix" values="0 0 0 0 0 0 0 0 0 0 0 0 0 0 0 0 0 0 127 0" result="hardAlpha"/>
<feOffset dy="15.4403"/>
<feGaussianBlur stdDeviation="30"/>
<feColorMatrix type="matrix" values="0 0 0 0 0.196078 0 0 0 0 0.380392 0 0 0 0 1 0 0 0 0.2 0"/>
<feBlend mode="normal" in2="BackgroundImageFix" result="effect1_dropShadow_11428_1313"/>
<feBlend mode="normal" in="SourceGraphic" in2="effect1_dropShadow_11428_1313" result="shape"/>
<feColorMatrix in="SourceAlpha" type="matrix" values="0 0 0 0 0 0 0 0 0 0 0 0 0 0 0 0 0 0 127 0" result="hardAlpha"/>
<feOffset dx="7.72016" dy="57.9012"/>
<feGaussianBlur stdDeviation="57.9012"/>
<feComposite in2="hardAlpha" operator="arithmetic" k2="-1" k3="1"/>
<feColorMatrix type="matrix" values="0 0 0 0 0.196078 0 0 0 0 0.380392 0 0 0 0 1 0 0 0 1 0"/>
<feBlend mode="normal" in2="shape" result="effect2_innerShadow_11428_1313"/>
<feColorMatrix in="SourceAlpha" type="matrix" values="0 0 0 0 0 0 0 0 0 0 0 0 0 0 0 0 0 0 127 0" result="hardAlpha"/>
<feOffset dy="-77.2016"/>
<feGaussianBlur stdDeviation="96.502"/>
<feComposite in2="hardAlpha" operator="arithmetic" k2="-1" k3="1"/>
<feColorMatrix type="matrix" values="0 0 0 0 1 0 0 0 0 1 0 0 0 0 1 0 0 0 0.53 0"/>
<feBlend mode="normal" in2="effect2_innerShadow_11428_1313" result="effect3_innerShadow_11428_1313"/>
<feColorMatrix in="SourceAlpha" type="matrix" values="0 0 0 0 0 0 0 0 0 0 0 0 0 0 0 0 0 0 127 0" result="hardAlpha"/>
<feOffset dy="7.72016"/>
<feGaussianBlur stdDeviation="19.3004"/>
<feComposite in2="hardAlpha" operator="arithmetic" k2="-1" k3="1"/>
<feColorMatrix type="matrix" values="0 0 0 0 1 0 0 0 0 1 0 0 0 0 1 0 0 0 0.58 0"/>
<feBlend mode="normal" in2="effect3_innerShadow_11428_1313" result="effect4_innerShadow_11428_1313"/>
</filter>
<filter id="filter3_diii_11428_1313" x="26.053" y="-27.3659" width="136" height="168.642" filterUnits="userSpaceOnUse" color-interpolation-filters="sRGB">
<feFlood flood-opacity="0" result="BackgroundImageFix"/>
<feColorMatrix in="SourceAlpha" type="matrix" values="0 0 0 0 0 0 0 0 0 0 0 0 0 0 0 0 0 0 127 0" result="hardAlpha"/>
<feOffset dy="15.4403"/>
<feGaussianBlur stdDeviation="30"/>
<feColorMatrix type="matrix" values="0 0 0 0 0.196078 0 0 0 0 0.380392 0 0 0 0 1 0 0 0 0.2 0"/>
<feBlend mode="normal" in2="BackgroundImageFix" result="effect1_dropShadow_11428_1313"/>
<feBlend mode="normal" in="SourceGraphic" in2="effect1_dropShadow_11428_1313" result="shape"/>
<feColorMatrix in="SourceAlpha" type="matrix" values="0 0 0 0 0 0 0 0 0 0 0 0 0 0 0 0 0 0 127 0" result="hardAlpha"/>
<feOffset dx="7.72016" dy="57.9012"/>
<feGaussianBlur stdDeviation="57.9012"/>
<feComposite in2="hardAlpha" operator="arithmetic" k2="-1" k3="1"/>
<feColorMatrix type="matrix" values="0 0 0 0 0.196078 0 0 0 0 0.380392 0 0 0 0 1 0 0 0 1 0"/>
<feBlend mode="normal" in2="shape" result="effect2_innerShadow_11428_1313"/>
<feColorMatrix in="SourceAlpha" type="matrix" values="0 0 0 0 0 0 0 0 0 0 0 0 0 0 0 0 0 0 127 0" result="hardAlpha"/>
<feOffset dy="-77.2016"/>
<feGaussianBlur stdDeviation="96.502"/>
<feComposite in2="hardAlpha" operator="arithmetic" k2="-1" k3="1"/>
<feColorMatrix type="matrix" values="0 0 0 0 1 0 0 0 0 1 0 0 0 0 1 0 0 0 0.53 0"/>
<feBlend mode="normal" in2="effect2_innerShadow_11428_1313" result="effect3_innerShadow_11428_1313"/>
<feColorMatrix in="SourceAlpha" type="matrix" values="0 0 0 0 0 0 0 0 0 0 0 0 0 0 0 0 0 0 127 0" result="hardAlpha"/>
<feOffset dy="7.72016"/>
<feGaussianBlur stdDeviation="19.3004"/>
<feComposite in2="hardAlpha" operator="arithmetic" k2="-1" k3="1"/>
<feColorMatrix type="matrix" values="0 0 0 0 1 0 0 0 0 1 0 0 0 0 1 0 0 0 0.58 0"/>
<feBlend mode="normal" in2="effect3_innerShadow_11428_1313" result="effect4_innerShadow_11428_1313"/>
</filter>
<filter id="filter4_diii_11428_1313" x="206.947" y="35.6341" width="136" height="168.642" filterUnits="userSpaceOnUse" color-interpolation-filters="sRGB">
<feFlood flood-opacity="0" result="BackgroundImageFix"/>
<feColorMatrix in="SourceAlpha" type="matrix" values="0 0 0 0 0 0 0 0 0 0 0 0 0 0 0 0 0 0 127 0" result="hardAlpha"/>
<feOffset dy="15.4403"/>
<feGaussianBlur stdDeviation="30"/>
<feColorMatrix type="matrix" values="0 0 0 0 0.196078 0 0 0 0 0.380392 0 0 0 0 1 0 0 0 0.2 0"/>
<feBlend mode="normal" in2="BackgroundImageFix" result="effect1_dropShadow_11428_1313"/>
<feBlend mode="normal" in="SourceGraphic" in2="effect1_dropShadow_11428_1313" result="shape"/>
<feColorMatrix in="SourceAlpha" type="matrix" values="0 0 0 0 0 0 0 0 0 0 0 0 0 0 0 0 0 0 127 0" result="hardAlpha"/>
<feOffset dx="7.72016" dy="57.9012"/>
<feGaussianBlur stdDeviation="57.9012"/>
<feComposite in2="hardAlpha" operator="arithmetic" k2="-1" k3="1"/>
<feColorMatrix type="matrix" values="0 0 0 0 0.196078 0 0 0 0 0.380392 0 0 0 0 1 0 0 0 1 0"/>
<feBlend mode="normal" in2="shape" result="effect2_innerShadow_11428_1313"/>
<feColorMatrix in="SourceAlpha" type="matrix" values="0 0 0 0 0 0 0 0 0 0 0 0 0 0 0 0 0 0 127 0" result="hardAlpha"/>
<feOffset dy="-77.2016"/>
<feGaussianBlur stdDeviation="96.502"/>
<feComposite in2="hardAlpha" operator="arithmetic" k2="-1" k3="1"/>
<feColorMatrix type="matrix" values="0 0 0 0 1 0 0 0 0 1 0 0 0 0 1 0 0 0 0.53 0"/>
<feBlend mode="normal" in2="effect2_innerShadow_11428_1313" result="effect3_innerShadow_11428_1313"/>
<feColorMatrix in="SourceAlpha" type="matrix" values="0 0 0 0 0 0 0 0 0 0 0 0 0 0 0 0 0 0 127 0" result="hardAlpha"/>
<feOffset dy="7.72016"/>
<feGaussianBlur stdDeviation="19.3004"/>
<feComposite in2="hardAlpha" operator="arithmetic" k2="-1" k3="1"/>
<feColorMatrix type="matrix" values="0 0 0 0 1 0 0 0 0 1 0 0 0 0 1 0 0 0 0.58 0"/>
<feBlend mode="normal" in2="effect3_innerShadow_11428_1313" result="effect4_innerShadow_11428_1313"/>
</filter>
<filter id="filter5_diii_11428_1313" x="230.947" y="8.63413" width="130" height="162.642" filterUnits="userSpaceOnUse" color-interpolation-filters="sRGB">
<feFlood flood-opacity="0" result="BackgroundImageFix"/>
<feColorMatrix in="SourceAlpha" type="matrix" values="0 0 0 0 0 0 0 0 0 0 0 0 0 0 0 0 0 0 127 0" result="hardAlpha"/>
<feOffset dy="15.4403"/>
<feGaussianBlur stdDeviation="30"/>
<feColorMatrix type="matrix" values="0 0 0 0 0.196078 0 0 0 0 0.380392 0 0 0 0 1 0 0 0 0.2 0"/>
<feBlend mode="normal" in2="BackgroundImageFix" result="effect1_dropShadow_11428_1313"/>
<feBlend mode="normal" in="SourceGraphic" in2="effect1_dropShadow_11428_1313" result="shape"/>
<feColorMatrix in="SourceAlpha" type="matrix" values="0 0 0 0 0 0 0 0 0 0 0 0 0 0 0 0 0 0 127 0" result="hardAlpha"/>
<feOffset dx="7.72016" dy="57.9012"/>
<feGaussianBlur stdDeviation="57.9012"/>
<feComposite in2="hardAlpha" operator="arithmetic" k2="-1" k3="1"/>
<feColorMatrix type="matrix" values="0 0 0 0 0.196078 0 0 0 0 0.380392 0 0 0 0 1 0 0 0 1 0"/>
<feBlend mode="normal" in2="shape" result="effect2_innerShadow_11428_1313"/>
<feColorMatrix in="SourceAlpha" type="matrix" values="0 0 0 0 0 0 0 0 0 0 0 0 0 0 0 0 0 0 127 0" result="hardAlpha"/>
<feOffset dy="-77.2016"/>
<feGaussianBlur stdDeviation="96.502"/>
<feComposite in2="hardAlpha" operator="arithmetic" k2="-1" k3="1"/>
<feColorMatrix type="matrix" values="0 0 0 0 1 0 0 0 0 1 0 0 0 0 1 0 0 0 0.53 0"/>
<feBlend mode="normal" in2="effect2_innerShadow_11428_1313" result="effect3_innerShadow_11428_1313"/>
<feColorMatrix in="SourceAlpha" type="matrix" values="0 0 0 0 0 0 0 0 0 0 0 0 0 0 0 0 0 0 127 0" result="hardAlpha"/>
<feOffset dy="7.72016"/>
<feGaussianBlur stdDeviation="19.3004"/>
<feComposite in2="hardAlpha" operator="arithmetic" k2="-1" k3="1"/>
<feColorMatrix type="matrix" values="0 0 0 0 1 0 0 0 0 1 0 0 0 0 1 0 0 0 0.58 0"/>
<feBlend mode="normal" in2="effect3_innerShadow_11428_1313" result="effect4_innerShadow_11428_1313"/>
</filter>
<filter id="filter6_diii_11428_1313" x="189.307" y="107.634" width="171" height="203.642" filterUnits="userSpaceOnUse" color-interpolation-filters="sRGB">
<feFlood flood-opacity="0" result="BackgroundImageFix"/>
<feColorMatrix in="SourceAlpha" type="matrix" values="0 0 0 0 0 0 0 0 0 0 0 0 0 0 0 0 0 0 127 0" result="hardAlpha"/>
<feOffset dy="15.4403"/>
<feGaussianBlur stdDeviation="30"/>
<feColorMatrix type="matrix" values="0 0 0 0 0.196078 0 0 0 0 0.380392 0 0 0 0 1 0 0 0 0.2 0"/>
<feBlend mode="normal" in2="BackgroundImageFix" result="effect1_dropShadow_11428_1313"/>
<feBlend mode="normal" in="SourceGraphic" in2="effect1_dropShadow_11428_1313" result="shape"/>
<feColorMatrix in="SourceAlpha" type="matrix" values="0 0 0 0 0 0 0 0 0 0 0 0 0 0 0 0 0 0 127 0" result="hardAlpha"/>
<feOffset dx="7.72016" dy="57.9012"/>
<feGaussianBlur stdDeviation="57.9012"/>
<feComposite in2="hardAlpha" operator="arithmetic" k2="-1" k3="1"/>
<feColorMatrix type="matrix" values="0 0 0 0 0.196078 0 0 0 0 0.380392 0 0 0 0 1 0 0 0 1 0"/>
<feBlend mode="normal" in2="shape" result="effect2_innerShadow_11428_1313"/>
<feColorMatrix in="SourceAlpha" type="matrix" values="0 0 0 0 0 0 0 0 0 0 0 0 0 0 0 0 0 0 127 0" result="hardAlpha"/>
<feOffset dy="-77.2016"/>
<feGaussianBlur stdDeviation="96.502"/>
<feComposite in2="hardAlpha" operator="arithmetic" k2="-1" k3="1"/>
<feColorMatrix type="matrix" values="0 0 0 0 1 0 0 0 0 1 0 0 0 0 1 0 0 0 0.53 0"/>
<feBlend mode="normal" in2="effect2_innerShadow_11428_1313" result="effect3_innerShadow_11428_1313"/>
<feColorMatrix in="SourceAlpha" type="matrix" values="0 0 0 0 0 0 0 0 0 0 0 0 0 0 0 0 0 0 127 0" result="hardAlpha"/>
<feOffset dy="7.72016"/>
<feGaussianBlur stdDeviation="19.3004"/>
<feComposite in2="hardAlpha" operator="arithmetic" k2="-1" k3="1"/>
<feColorMatrix type="matrix" values="0 0 0 0 1 0 0 0 0 1 0 0 0 0 1 0 0 0 0.58 0"/>
<feBlend mode="normal" in2="effect3_innerShadow_11428_1313" result="effect4_innerShadow_11428_1313"/>
</filter>
<radialGradient id="paint0_radial_11428_1313" cx="0" cy="0" r="1" gradientUnits="userSpaceOnUse" gradientTransform="translate(129.227 211.62) rotate(110.973) scale(58.6027)">
<stop stop-color="#3261FF"/>
<stop offset="1" stop-color="#A7A8AD" stop-opacity="0"/>
</radialGradient>
<radialGradient id="paint1_radial_11428_1313" cx="0" cy="0" r="1" gradientUnits="userSpaceOnUse" gradientTransform="translate(223.18 102.32) rotate(110.973) scale(222.242)">
<stop stop-color="#3261FF"/>
<stop offset="1" stop-color="#A7A8AD" stop-opacity="0"/>
</radialGradient>
<linearGradient id="paint2_linear_11428_1313" x1="157.127" y1="103.911" x2="227.465" y2="168.455" gradientUnits="userSpaceOnUse">
<stop stop-color="#3261FF"/>
<stop offset="1" stop-color="#3261FF" stop-opacity="0"/>
</linearGradient>
<linearGradient id="paint3_linear_11428_1313" x1="197.578" y1="117.351" x2="222.923" y2="175.34" gradientUnits="userSpaceOnUse">
<stop stop-color="#3261FF"/>
<stop offset="1" stop-color="#7A99FF"/>
</linearGradient>
<radialGradient id="paint4_radial_11428_1313" cx="0" cy="0" r="1" gradientUnits="userSpaceOnUse" gradientTransform="translate(95.957 183.748) rotate(110.973) scale(52.434)">
<stop stop-color="#3261FF"/>
<stop offset="1" stop-color="#A7A8AD" stop-opacity="0"/>
</radialGradient>
<radialGradient id="paint5_radial_11428_1313" cx="0" cy="0" r="1" gradientUnits="userSpaceOnUse" gradientTransform="translate(97.317 54.8278) rotate(110.973) scale(16.4499)">
<stop stop-color="#3261FF"/>
<stop offset="1" stop-color="#A7A8AD" stop-opacity="0"/>
</radialGradient>
<radialGradient id="paint6_radial_11428_1313" cx="0" cy="0" r="1" gradientUnits="userSpaceOnUse" gradientTransform="translate(278.211 117.828) rotate(110.973) scale(16.4499)">
<stop stop-color="#3261FF"/>
<stop offset="1" stop-color="#A7A8AD" stop-opacity="0"/>
</radialGradient>
<radialGradient id="paint7_radial_11428_1313" cx="0" cy="0" r="1" gradientUnits="userSpaceOnUse" gradientTransform="translate(297.987 88.9558) rotate(110.973) scale(10.2812)">
<stop stop-color="#3261FF"/>
<stop offset="1" stop-color="#A7A8AD" stop-opacity="0"/>
</radialGradient>
<radialGradient id="paint8_radial_11428_1313" cx="0" cy="0" r="1" gradientUnits="userSpaceOnUse" gradientTransform="translate(285.211 200.748) rotate(110.973) scale(52.434)">
<stop stop-color="#3261FF"/>
<stop offset="1" stop-color="#A7A8AD" stop-opacity="0"/>
</radialGradient>
</defs>
</svg>
