<svg width="272" height="272" viewBox="0 0 272 272" fill="none" xmlns="http://www.w3.org/2000/svg">
<g opacity="0.6" filter="url(#filter0_diii_11428_1379)">
<circle cx="135.53" cy="123.252" r="87.1283" fill="#3261FF"/>
<circle cx="135.53" cy="123.252" r="87.1283" fill="url(#paint0_radial_11428_1379)"/>
</g>
<path opacity="0.5" fill-rule="evenodd" clip-rule="evenodd" d="M142.812 90.9044C141.625 90.4167 140.117 90.4167 137.104 90.4167C134.091 90.4167 132.587 90.4167 131.396 90.9044C129.816 91.5531 128.558 92.8029 127.899 94.379C127.598 95.0944 127.482 95.9318 127.434 97.1478C127.413 98.0288 127.167 98.8898 126.72 99.6494C126.273 100.409 125.64 101.042 124.88 101.489C124.106 101.919 123.236 102.147 122.351 102.151C121.465 102.156 120.593 101.937 119.814 101.514C118.73 100.943 117.944 100.629 117.167 100.526C115.469 100.303 113.751 100.76 112.387 101.797C111.367 102.573 110.613 103.869 109.108 106.458C107.6 109.047 106.849 110.34 106.679 111.608C106.455 113.295 106.917 115.002 107.963 116.353C108.438 116.969 109.108 117.485 110.144 118.133C111.675 119.086 112.657 120.71 112.657 122.5C112.657 124.29 111.675 125.914 110.148 126.863C109.108 127.515 108.438 128.031 107.96 128.647C107.443 129.314 107.064 130.077 106.845 130.892C106.625 131.706 106.569 132.556 106.679 133.392C106.849 134.656 107.6 135.953 109.108 138.542C110.616 141.131 111.367 142.424 112.387 143.203C113.747 144.24 115.467 144.695 117.167 144.474C117.944 144.371 118.73 144.057 119.814 143.486C120.593 143.063 121.466 142.843 122.352 142.848C123.238 142.852 124.109 143.081 124.884 143.511C126.443 144.41 127.367 146.062 127.434 147.852C127.482 149.071 127.598 149.906 127.899 150.621C128.554 152.193 129.812 153.444 131.396 154.096C132.584 154.583 134.091 154.583 137.104 154.583C140.117 154.583 141.625 154.583 142.812 154.096C144.392 153.447 145.65 152.197 146.309 150.621C146.61 149.906 146.726 149.071 146.774 147.852C146.838 146.062 147.765 144.407 149.328 143.511C150.102 143.081 150.972 142.853 151.858 142.849C152.743 142.844 153.615 143.063 154.394 143.486C155.478 144.057 156.264 144.371 157.041 144.474C158.741 144.698 160.461 144.24 161.821 143.203C162.841 142.427 163.595 141.131 165.1 138.542C166.608 135.953 167.359 134.66 167.529 133.392C167.639 132.556 167.582 131.706 167.362 130.891C167.142 130.077 166.762 129.314 166.245 128.647C165.771 128.031 165.1 127.515 164.064 126.867C162.533 125.914 161.552 124.29 161.552 122.5C161.552 120.71 162.533 119.086 164.06 118.137C165.1 117.485 165.771 116.969 166.249 116.353C166.765 115.686 167.144 114.923 167.364 114.108C167.583 113.294 167.639 112.444 167.529 111.608C167.359 110.344 166.608 109.047 165.1 106.458C163.592 103.869 162.841 102.576 161.821 101.797C160.457 100.76 158.739 100.303 157.041 100.526C156.264 100.629 155.478 100.943 154.394 101.514C153.615 101.937 152.742 102.157 151.856 102.152C150.97 102.148 150.099 101.919 149.325 101.489C148.566 101.042 147.933 100.408 147.487 99.6488C147.04 98.8893 146.795 98.0285 146.774 97.1478C146.726 95.9286 146.61 95.0944 146.309 94.379C145.983 93.5985 145.506 92.8899 144.906 92.2937C144.306 91.6976 143.594 91.2254 142.812 90.9044ZM137.104 132.125C142.462 132.125 146.803 127.816 146.803 122.5C146.803 117.184 142.459 112.875 137.104 112.875C131.746 112.875 127.405 117.184 127.405 122.5C127.405 127.816 131.749 132.125 137.104 132.125Z" fill="url(#paint1_linear_11428_1379)"/>
<path fill-rule="evenodd" clip-rule="evenodd" d="M140.812 92.9044C139.625 92.4167 138.117 92.4167 135.104 92.4167C132.091 92.4167 130.587 92.4167 129.396 92.9044C127.816 93.5531 126.558 94.8029 125.899 96.379C125.598 97.0944 125.482 97.9318 125.434 99.1478C125.413 100.029 125.167 100.89 124.72 101.649C124.273 102.409 123.64 103.042 122.88 103.489C122.106 103.919 121.236 104.147 120.351 104.151C119.465 104.156 118.593 103.937 117.814 103.514C116.73 102.943 115.944 102.629 115.167 102.526C113.469 102.303 111.751 102.76 110.387 103.797C109.367 104.573 108.613 105.869 107.108 108.458C105.6 111.047 104.849 112.34 104.679 113.608C104.455 115.295 104.917 117.002 105.963 118.353C106.438 118.969 107.108 119.485 108.144 120.133C109.675 121.086 110.657 122.71 110.657 124.5C110.657 126.29 109.675 127.914 108.148 128.863C107.108 129.515 106.438 130.031 105.96 130.647C105.443 131.314 105.064 132.077 104.845 132.892C104.625 133.706 104.569 134.556 104.679 135.392C104.849 136.656 105.6 137.953 107.108 140.542C108.616 143.131 109.367 144.424 110.387 145.203C111.747 146.24 113.467 146.695 115.167 146.474C115.944 146.371 116.73 146.057 117.814 145.486C118.593 145.063 119.466 144.843 120.352 144.848C121.238 144.852 122.109 145.081 122.884 145.511C124.443 146.41 125.367 148.062 125.434 149.852C125.482 151.071 125.598 151.906 125.899 152.621C126.554 154.193 127.812 155.444 129.396 156.096C130.584 156.583 132.091 156.583 135.104 156.583C138.117 156.583 139.625 156.583 140.812 156.096C142.392 155.447 143.65 154.197 144.309 152.621C144.61 151.906 144.726 151.071 144.774 149.852C144.838 148.062 145.765 146.407 147.328 145.511C148.102 145.081 148.972 144.853 149.858 144.849C150.743 144.844 151.615 145.063 152.394 145.486C153.478 146.057 154.264 146.371 155.041 146.474C156.741 146.698 158.461 146.24 159.821 145.203C160.841 144.427 161.595 143.131 163.1 140.542C164.608 137.953 165.359 136.66 165.529 135.392C165.639 134.556 165.582 133.706 165.362 132.891C165.142 132.077 164.762 131.314 164.245 130.647C163.771 130.031 163.1 129.515 162.064 128.867C160.533 127.914 159.552 126.29 159.552 124.5C159.552 122.71 160.533 121.086 162.06 120.137C163.1 119.485 163.771 118.969 164.249 118.353C164.765 117.686 165.144 116.923 165.364 116.108C165.583 115.294 165.639 114.444 165.529 113.608C165.359 112.344 164.608 111.047 163.1 108.458C161.592 105.869 160.841 104.576 159.821 103.797C158.457 102.76 156.739 102.303 155.041 102.526C154.264 102.629 153.478 102.943 152.394 103.514C151.615 103.937 150.742 104.157 149.856 104.152C148.97 104.148 148.099 103.919 147.325 103.489C146.566 103.042 145.933 102.408 145.487 101.649C145.04 100.889 144.795 100.028 144.774 99.1478C144.726 97.9286 144.61 97.0944 144.309 96.379C143.983 95.5985 143.506 94.8899 142.906 94.2937C142.306 93.6976 141.594 93.2254 140.812 92.9044ZM135.104 134.125C140.462 134.125 144.803 129.816 144.803 124.5C144.803 119.184 140.459 114.875 135.104 114.875C129.746 114.875 125.405 119.184 125.405 124.5C125.405 129.816 129.749 134.125 135.104 134.125Z" fill="url(#paint2_linear_11428_1379)"/>
<g filter="url(#filter1_diii_11428_1379)">
<circle cx="90.5396" cy="137.985" r="10.3515" transform="rotate(153.551 90.5396 137.985)" fill="#3261FF"/>
<circle cx="90.5396" cy="137.985" r="10.3515" transform="rotate(153.551 90.5396 137.985)" fill="url(#paint3_radial_11428_1379)"/>
</g>
<g filter="url(#filter2_diii_11428_1379)">
<circle cx="179.022" cy="190.683" r="15.5272" transform="rotate(153.551 179.022 190.683)" fill="#3261FF"/>
<circle cx="179.022" cy="190.683" r="15.5272" transform="rotate(153.551 179.022 190.683)" fill="url(#paint4_radial_11428_1379)"/>
</g>
<g filter="url(#filter3_diii_11428_1379)">
<circle cx="191.621" cy="78.6321" r="7.61139" transform="rotate(153.551 191.621 78.6321)" fill="#3261FF"/>
<circle cx="191.621" cy="78.6321" r="7.61139" transform="rotate(153.551 191.621 78.6321)" fill="url(#paint5_radial_11428_1379)"/>
</g>
<g filter="url(#filter4_diii_11428_1379)">
<circle cx="79.2973" cy="102.143" r="4.87129" transform="rotate(153.551 79.2973 102.143)" fill="#3261FF"/>
<circle cx="79.2973" cy="102.143" r="4.87129" transform="rotate(153.551 79.2973 102.143)" fill="url(#paint6_radial_11428_1379)"/>
</g>
<g filter="url(#filter5_diii_11428_1379)">
<circle cx="95.9847" cy="80.1932" r="3.04455" transform="rotate(153.551 95.9847 80.1932)" fill="#3261FF"/>
<circle cx="95.9847" cy="80.1932" r="3.04455" transform="rotate(153.551 95.9847 80.1932)" fill="url(#paint7_radial_11428_1379)"/>
</g>
<defs>
<filter id="filter0_diii_11428_1379" x="0.0335007" y="-26.1109" width="270.992" height="297.306" filterUnits="userSpaceOnUse" color-interpolation-filters="sRGB">
<feFlood flood-opacity="0" result="BackgroundImageFix"/>
<feColorMatrix in="SourceAlpha" type="matrix" values="0 0 0 0 0 0 0 0 0 0 0 0 0 0 0 0 0 0 127 0" result="hardAlpha"/>
<feOffset dy="12.4469"/>
<feGaussianBlur stdDeviation="24.1839"/>
<feColorMatrix type="matrix" values="0 0 0 0 0.196078 0 0 0 0 0.380392 0 0 0 0 1 0 0 0 0.3 0"/>
<feBlend mode="normal" in2="BackgroundImageFix" result="effect1_dropShadow_11428_1379"/>
<feBlend mode="normal" in="SourceGraphic" in2="effect1_dropShadow_11428_1379" result="shape"/>
<feColorMatrix in="SourceAlpha" type="matrix" values="0 0 0 0 0 0 0 0 0 0 0 0 0 0 0 0 0 0 127 0" result="hardAlpha"/>
<feOffset dx="6.22345" dy="46.6759"/>
<feGaussianBlur stdDeviation="46.6759"/>
<feComposite in2="hardAlpha" operator="arithmetic" k2="-1" k3="1"/>
<feColorMatrix type="matrix" values="0 0 0 0 0.196078 0 0 0 0 0.380392 0 0 0 0 1 0 0 0 1 0"/>
<feBlend mode="normal" in2="shape" result="effect2_innerShadow_11428_1379"/>
<feColorMatrix in="SourceAlpha" type="matrix" values="0 0 0 0 0 0 0 0 0 0 0 0 0 0 0 0 0 0 127 0" result="hardAlpha"/>
<feOffset dy="-62.2345"/>
<feGaussianBlur stdDeviation="77.7931"/>
<feComposite in2="hardAlpha" operator="arithmetic" k2="-1" k3="1"/>
<feColorMatrix type="matrix" values="0 0 0 0 1 0 0 0 0 1 0 0 0 0 1 0 0 0 0.53 0"/>
<feBlend mode="normal" in2="effect2_innerShadow_11428_1379" result="effect3_innerShadow_11428_1379"/>
<feColorMatrix in="SourceAlpha" type="matrix" values="0 0 0 0 0 0 0 0 0 0 0 0 0 0 0 0 0 0 127 0" result="hardAlpha"/>
<feOffset dy="6.22345"/>
<feGaussianBlur stdDeviation="15.5586"/>
<feComposite in2="hardAlpha" operator="arithmetic" k2="-1" k3="1"/>
<feColorMatrix type="matrix" values="0 0 0 0 1 0 0 0 0 1 0 0 0 0 1 0 0 0 0.58 0"/>
<feBlend mode="normal" in2="effect3_innerShadow_11428_1379" result="effect4_innerShadow_11428_1379"/>
</filter>
<filter id="filter1_diii_11428_1379" x="43.6513" y="80.6226" width="93.7768" height="113.653" filterUnits="userSpaceOnUse" color-interpolation-filters="sRGB">
<feFlood flood-opacity="0" result="BackgroundImageFix"/>
<feColorMatrix in="SourceAlpha" type="matrix" values="0 0 0 0 0 0 0 0 0 0 0 0 0 0 0 0 0 0 127 0" result="hardAlpha"/>
<feOffset dy="9.40178"/>
<feGaussianBlur stdDeviation="18.2673"/>
<feColorMatrix type="matrix" values="0 0 0 0 0.196078 0 0 0 0 0.380392 0 0 0 0 1 0 0 0 0.2 0"/>
<feBlend mode="normal" in2="BackgroundImageFix" result="effect1_dropShadow_11428_1379"/>
<feBlend mode="normal" in="SourceGraphic" in2="effect1_dropShadow_11428_1379" result="shape"/>
<feColorMatrix in="SourceAlpha" type="matrix" values="0 0 0 0 0 0 0 0 0 0 0 0 0 0 0 0 0 0 127 0" result="hardAlpha"/>
<feOffset dx="4.70089" dy="35.2567"/>
<feGaussianBlur stdDeviation="35.2567"/>
<feComposite in2="hardAlpha" operator="arithmetic" k2="-1" k3="1"/>
<feColorMatrix type="matrix" values="0 0 0 0 0.196078 0 0 0 0 0.380392 0 0 0 0 1 0 0 0 1 0"/>
<feBlend mode="normal" in2="shape" result="effect2_innerShadow_11428_1379"/>
<feColorMatrix in="SourceAlpha" type="matrix" values="0 0 0 0 0 0 0 0 0 0 0 0 0 0 0 0 0 0 127 0" result="hardAlpha"/>
<feOffset dy="-47.0089"/>
<feGaussianBlur stdDeviation="58.7611"/>
<feComposite in2="hardAlpha" operator="arithmetic" k2="-1" k3="1"/>
<feColorMatrix type="matrix" values="0 0 0 0 1 0 0 0 0 1 0 0 0 0 1 0 0 0 0.53 0"/>
<feBlend mode="normal" in2="effect2_innerShadow_11428_1379" result="effect3_innerShadow_11428_1379"/>
<feColorMatrix in="SourceAlpha" type="matrix" values="0 0 0 0 0 0 0 0 0 0 0 0 0 0 0 0 0 0 127 0" result="hardAlpha"/>
<feOffset dy="4.70089"/>
<feGaussianBlur stdDeviation="11.7522"/>
<feComposite in2="hardAlpha" operator="arithmetic" k2="-1" k3="1"/>
<feColorMatrix type="matrix" values="0 0 0 0 1 0 0 0 0 1 0 0 0 0 1 0 0 0 0.58 0"/>
<feBlend mode="normal" in2="effect3_innerShadow_11428_1379" result="effect4_innerShadow_11428_1379"/>
</filter>
<filter id="filter2_diii_11428_1379" x="126.956" y="128.144" width="104.131" height="124.007" filterUnits="userSpaceOnUse" color-interpolation-filters="sRGB">
<feFlood flood-opacity="0" result="BackgroundImageFix"/>
<feColorMatrix in="SourceAlpha" type="matrix" values="0 0 0 0 0 0 0 0 0 0 0 0 0 0 0 0 0 0 127 0" result="hardAlpha"/>
<feOffset dy="9.40178"/>
<feGaussianBlur stdDeviation="18.2673"/>
<feColorMatrix type="matrix" values="0 0 0 0 0.196078 0 0 0 0 0.380392 0 0 0 0 1 0 0 0 0.2 0"/>
<feBlend mode="normal" in2="BackgroundImageFix" result="effect1_dropShadow_11428_1379"/>
<feBlend mode="normal" in="SourceGraphic" in2="effect1_dropShadow_11428_1379" result="shape"/>
<feColorMatrix in="SourceAlpha" type="matrix" values="0 0 0 0 0 0 0 0 0 0 0 0 0 0 0 0 0 0 127 0" result="hardAlpha"/>
<feOffset dx="4.70089" dy="35.2567"/>
<feGaussianBlur stdDeviation="35.2567"/>
<feComposite in2="hardAlpha" operator="arithmetic" k2="-1" k3="1"/>
<feColorMatrix type="matrix" values="0 0 0 0 0.196078 0 0 0 0 0.380392 0 0 0 0 1 0 0 0 1 0"/>
<feBlend mode="normal" in2="shape" result="effect2_innerShadow_11428_1379"/>
<feColorMatrix in="SourceAlpha" type="matrix" values="0 0 0 0 0 0 0 0 0 0 0 0 0 0 0 0 0 0 127 0" result="hardAlpha"/>
<feOffset dy="-47.0089"/>
<feGaussianBlur stdDeviation="58.7611"/>
<feComposite in2="hardAlpha" operator="arithmetic" k2="-1" k3="1"/>
<feColorMatrix type="matrix" values="0 0 0 0 1 0 0 0 0 1 0 0 0 0 1 0 0 0 0.53 0"/>
<feBlend mode="normal" in2="effect2_innerShadow_11428_1379" result="effect3_innerShadow_11428_1379"/>
<feColorMatrix in="SourceAlpha" type="matrix" values="0 0 0 0 0 0 0 0 0 0 0 0 0 0 0 0 0 0 127 0" result="hardAlpha"/>
<feOffset dy="4.70089"/>
<feGaussianBlur stdDeviation="11.7522"/>
<feComposite in2="hardAlpha" operator="arithmetic" k2="-1" k3="1"/>
<feColorMatrix type="matrix" values="0 0 0 0 1 0 0 0 0 1 0 0 0 0 1 0 0 0 0.58 0"/>
<feBlend mode="normal" in2="effect3_innerShadow_11428_1379" result="effect4_innerShadow_11428_1379"/>
</filter>
<filter id="filter3_diii_11428_1379" x="147.473" y="24.0101" width="88.2954" height="108.171" filterUnits="userSpaceOnUse" color-interpolation-filters="sRGB">
<feFlood flood-opacity="0" result="BackgroundImageFix"/>
<feColorMatrix in="SourceAlpha" type="matrix" values="0 0 0 0 0 0 0 0 0 0 0 0 0 0 0 0 0 0 127 0" result="hardAlpha"/>
<feOffset dy="9.40178"/>
<feGaussianBlur stdDeviation="18.2673"/>
<feColorMatrix type="matrix" values="0 0 0 0 0.196078 0 0 0 0 0.380392 0 0 0 0 1 0 0 0 0.2 0"/>
<feBlend mode="normal" in2="BackgroundImageFix" result="effect1_dropShadow_11428_1379"/>
<feBlend mode="normal" in="SourceGraphic" in2="effect1_dropShadow_11428_1379" result="shape"/>
<feColorMatrix in="SourceAlpha" type="matrix" values="0 0 0 0 0 0 0 0 0 0 0 0 0 0 0 0 0 0 127 0" result="hardAlpha"/>
<feOffset dx="4.70089" dy="35.2567"/>
<feGaussianBlur stdDeviation="35.2567"/>
<feComposite in2="hardAlpha" operator="arithmetic" k2="-1" k3="1"/>
<feColorMatrix type="matrix" values="0 0 0 0 0.196078 0 0 0 0 0.380392 0 0 0 0 1 0 0 0 1 0"/>
<feBlend mode="normal" in2="shape" result="effect2_innerShadow_11428_1379"/>
<feColorMatrix in="SourceAlpha" type="matrix" values="0 0 0 0 0 0 0 0 0 0 0 0 0 0 0 0 0 0 127 0" result="hardAlpha"/>
<feOffset dy="-47.0089"/>
<feGaussianBlur stdDeviation="58.7611"/>
<feComposite in2="hardAlpha" operator="arithmetic" k2="-1" k3="1"/>
<feColorMatrix type="matrix" values="0 0 0 0 1 0 0 0 0 1 0 0 0 0 1 0 0 0 0.53 0"/>
<feBlend mode="normal" in2="effect2_innerShadow_11428_1379" result="effect3_innerShadow_11428_1379"/>
<feColorMatrix in="SourceAlpha" type="matrix" values="0 0 0 0 0 0 0 0 0 0 0 0 0 0 0 0 0 0 127 0" result="hardAlpha"/>
<feOffset dy="4.70089"/>
<feGaussianBlur stdDeviation="11.7522"/>
<feComposite in2="hardAlpha" operator="arithmetic" k2="-1" k3="1"/>
<feColorMatrix type="matrix" values="0 0 0 0 1 0 0 0 0 1 0 0 0 0 1 0 0 0 0.58 0"/>
<feBlend mode="normal" in2="effect3_innerShadow_11428_1379" result="effect4_innerShadow_11428_1379"/>
</filter>
<filter id="filter4_diii_11428_1379" x="37.8903" y="50.2612" width="82.8141" height="102.69" filterUnits="userSpaceOnUse" color-interpolation-filters="sRGB">
<feFlood flood-opacity="0" result="BackgroundImageFix"/>
<feColorMatrix in="SourceAlpha" type="matrix" values="0 0 0 0 0 0 0 0 0 0 0 0 0 0 0 0 0 0 127 0" result="hardAlpha"/>
<feOffset dy="9.40178"/>
<feGaussianBlur stdDeviation="18.2673"/>
<feColorMatrix type="matrix" values="0 0 0 0 0.196078 0 0 0 0 0.380392 0 0 0 0 1 0 0 0 0.2 0"/>
<feBlend mode="normal" in2="BackgroundImageFix" result="effect1_dropShadow_11428_1379"/>
<feBlend mode="normal" in="SourceGraphic" in2="effect1_dropShadow_11428_1379" result="shape"/>
<feColorMatrix in="SourceAlpha" type="matrix" values="0 0 0 0 0 0 0 0 0 0 0 0 0 0 0 0 0 0 127 0" result="hardAlpha"/>
<feOffset dx="4.70089" dy="35.2567"/>
<feGaussianBlur stdDeviation="35.2567"/>
<feComposite in2="hardAlpha" operator="arithmetic" k2="-1" k3="1"/>
<feColorMatrix type="matrix" values="0 0 0 0 0.196078 0 0 0 0 0.380392 0 0 0 0 1 0 0 0 1 0"/>
<feBlend mode="normal" in2="shape" result="effect2_innerShadow_11428_1379"/>
<feColorMatrix in="SourceAlpha" type="matrix" values="0 0 0 0 0 0 0 0 0 0 0 0 0 0 0 0 0 0 127 0" result="hardAlpha"/>
<feOffset dy="-47.0089"/>
<feGaussianBlur stdDeviation="58.7611"/>
<feComposite in2="hardAlpha" operator="arithmetic" k2="-1" k3="1"/>
<feColorMatrix type="matrix" values="0 0 0 0 1 0 0 0 0 1 0 0 0 0 1 0 0 0 0.53 0"/>
<feBlend mode="normal" in2="effect2_innerShadow_11428_1379" result="effect3_innerShadow_11428_1379"/>
<feColorMatrix in="SourceAlpha" type="matrix" values="0 0 0 0 0 0 0 0 0 0 0 0 0 0 0 0 0 0 127 0" result="hardAlpha"/>
<feOffset dy="4.70089"/>
<feGaussianBlur stdDeviation="11.7522"/>
<feComposite in2="hardAlpha" operator="arithmetic" k2="-1" k3="1"/>
<feColorMatrix type="matrix" values="0 0 0 0 1 0 0 0 0 1 0 0 0 0 1 0 0 0 0.58 0"/>
<feBlend mode="normal" in2="effect3_innerShadow_11428_1379" result="effect4_innerShadow_11428_1379"/>
</filter>
<filter id="filter5_diii_11428_1379" x="56.4048" y="30.139" width="79.1598" height="99.0358" filterUnits="userSpaceOnUse" color-interpolation-filters="sRGB">
<feFlood flood-opacity="0" result="BackgroundImageFix"/>
<feColorMatrix in="SourceAlpha" type="matrix" values="0 0 0 0 0 0 0 0 0 0 0 0 0 0 0 0 0 0 127 0" result="hardAlpha"/>
<feOffset dy="9.40178"/>
<feGaussianBlur stdDeviation="18.2673"/>
<feColorMatrix type="matrix" values="0 0 0 0 0.196078 0 0 0 0 0.380392 0 0 0 0 1 0 0 0 0.2 0"/>
<feBlend mode="normal" in2="BackgroundImageFix" result="effect1_dropShadow_11428_1379"/>
<feBlend mode="normal" in="SourceGraphic" in2="effect1_dropShadow_11428_1379" result="shape"/>
<feColorMatrix in="SourceAlpha" type="matrix" values="0 0 0 0 0 0 0 0 0 0 0 0 0 0 0 0 0 0 127 0" result="hardAlpha"/>
<feOffset dx="4.70089" dy="35.2567"/>
<feGaussianBlur stdDeviation="35.2567"/>
<feComposite in2="hardAlpha" operator="arithmetic" k2="-1" k3="1"/>
<feColorMatrix type="matrix" values="0 0 0 0 0.196078 0 0 0 0 0.380392 0 0 0 0 1 0 0 0 1 0"/>
<feBlend mode="normal" in2="shape" result="effect2_innerShadow_11428_1379"/>
<feColorMatrix in="SourceAlpha" type="matrix" values="0 0 0 0 0 0 0 0 0 0 0 0 0 0 0 0 0 0 127 0" result="hardAlpha"/>
<feOffset dy="-47.0089"/>
<feGaussianBlur stdDeviation="58.7611"/>
<feComposite in2="hardAlpha" operator="arithmetic" k2="-1" k3="1"/>
<feColorMatrix type="matrix" values="0 0 0 0 1 0 0 0 0 1 0 0 0 0 1 0 0 0 0.53 0"/>
<feBlend mode="normal" in2="effect2_innerShadow_11428_1379" result="effect3_innerShadow_11428_1379"/>
<feColorMatrix in="SourceAlpha" type="matrix" values="0 0 0 0 0 0 0 0 0 0 0 0 0 0 0 0 0 0 127 0" result="hardAlpha"/>
<feOffset dy="4.70089"/>
<feGaussianBlur stdDeviation="11.7522"/>
<feComposite in2="hardAlpha" operator="arithmetic" k2="-1" k3="1"/>
<feColorMatrix type="matrix" values="0 0 0 0 1 0 0 0 0 1 0 0 0 0 1 0 0 0 0.58 0"/>
<feBlend mode="normal" in2="effect3_innerShadow_11428_1379" result="effect4_innerShadow_11428_1379"/>
</filter>
<radialGradient id="paint0_radial_11428_1379" cx="0" cy="0" r="1" gradientUnits="userSpaceOnUse" gradientTransform="translate(171.078 90.4916) rotate(110.973) scale(179.156)">
<stop stop-color="#3261FF"/>
<stop offset="1" stop-color="#A7A8AD" stop-opacity="0"/>
</radialGradient>
<linearGradient id="paint1_linear_11428_1379" x1="114.689" y1="80.8211" x2="183.39" y2="135.008" gradientUnits="userSpaceOnUse">
<stop stop-color="#3261FF"/>
<stop offset="1" stop-color="#3261FF" stop-opacity="0"/>
</linearGradient>
<linearGradient id="paint2_linear_11428_1379" x1="149.202" y1="94.2687" x2="177.124" y2="149.182" gradientUnits="userSpaceOnUse">
<stop stop-color="#3261FF"/>
<stop offset="1" stop-color="#7A99FF"/>
</linearGradient>
<radialGradient id="paint3_radial_11428_1379" cx="0" cy="0" r="1" gradientUnits="userSpaceOnUse" gradientTransform="translate(94.763 134.093) rotate(110.973) scale(21.2851)">
<stop stop-color="#3261FF"/>
<stop offset="1" stop-color="#A7A8AD" stop-opacity="0"/>
</radialGradient>
<radialGradient id="paint4_radial_11428_1379" cx="0" cy="0" r="1" gradientUnits="userSpaceOnUse" gradientTransform="translate(185.357 184.845) rotate(110.973) scale(31.9276)">
<stop stop-color="#3261FF"/>
<stop offset="1" stop-color="#A7A8AD" stop-opacity="0"/>
</radialGradient>
<radialGradient id="paint5_radial_11428_1379" cx="0" cy="0" r="1" gradientUnits="userSpaceOnUse" gradientTransform="translate(194.726 75.7702) rotate(110.973) scale(15.6508)">
<stop stop-color="#3261FF"/>
<stop offset="1" stop-color="#A7A8AD" stop-opacity="0"/>
</radialGradient>
<radialGradient id="paint6_radial_11428_1379" cx="0" cy="0" r="1" gradientUnits="userSpaceOnUse" gradientTransform="translate(81.2848 100.311) rotate(110.973) scale(10.0165)">
<stop stop-color="#3261FF"/>
<stop offset="1" stop-color="#A7A8AD" stop-opacity="0"/>
</radialGradient>
<radialGradient id="paint7_radial_11428_1379" cx="0" cy="0" r="1" gradientUnits="userSpaceOnUse" gradientTransform="translate(97.2269 79.0484) rotate(110.973) scale(6.26031)">
<stop stop-color="#3261FF"/>
<stop offset="1" stop-color="#A7A8AD" stop-opacity="0"/>
</radialGradient>
</defs>
</svg>
