<svg width="38" height="38" viewBox="0 0 38 38" fill="none" xmlns="http://www.w3.org/2000/svg">
<path d="M19.3629 13.7612C22.4363 13.7612 24.9283 16.2532 24.9283 19.3266C24.9283 22.3999 22.4363 24.8906 19.3629 24.8906C16.2896 24.8906 13.7976 22.3999 13.7976 19.3266C13.7976 16.2532 16.2896 13.7612 19.3629 13.7612Z" fill="#0484F9"/>
<path d="M21.96 33.8688C21.2186 34.0168 20.4013 34.0915 19.5853 34.0915C11.7946 34.1661 5.11729 27.9328 4.67195 20.1421C4.22662 11.6101 10.9786 4.56079 19.4373 4.56079C24.78 4.56079 29.38 7.38079 31.976 11.5355C33.3866 13.7608 34.0546 16.4328 34.0546 19.0288V32.8301" stroke="url(#paint0_linear_657_9256)" stroke-width="7.42" stroke-linecap="round" stroke-linejoin="round"/>
<defs>
<linearGradient id="paint0_linear_657_9256" x1="5.00012" y1="12.9627" x2="34.0001" y2="13.9627" gradientUnits="userSpaceOnUse">
<stop stop-color="#1F7CD1"/>
<stop offset="1" stop-color="#098AFD"/>
</linearGradient>
</defs>
</svg>
