<svg width="81" height="82" viewBox="0 0 81 82" fill="none" xmlns="http://www.w3.org/2000/svg">
<path d="M26.0427 75.086C16.248 70.9313 8.60668 62.6206 5.41602 52.382" stroke="#247ACA" stroke-width="7.42" stroke-linecap="round" stroke-linejoin="round"/>
<path d="M6.67725 26.8575C10.9066 17.1375 19.1426 9.5695 29.3812 6.37883" stroke="#0085FF" stroke-width="7.42" stroke-linecap="round" stroke-linejoin="round"/>
<path d="M74.0485 55.7946C69.8191 65.5146 61.5831 73.0826 51.3445 76.348" stroke="#46C6EF" stroke-width="7.42" stroke-linecap="round" stroke-linejoin="round"/>
<path d="M54.8315 7.64038C64.5515 11.795 72.1195 20.1057 75.3102 30.3444" stroke="#2197F7" stroke-width="7.42" stroke-linecap="round" stroke-linejoin="round"/>
<path d="M40.3629 0.962644C42.4122 0.962644 44.0722 2.62398 44.0722 4.67198C44.0722 6.72131 42.4122 8.38264 40.3629 8.38264C38.3136 8.38264 36.6536 6.72131 36.6536 4.67198C36.6536 2.62398 38.3136 0.962644 40.3629 0.962644Z" fill="#0085FF"/>
<path d="M3.70933 37.6162C5.75867 37.6162 7.41867 39.2775 7.41867 41.3255C7.41867 43.3749 5.75867 45.0362 3.70933 45.0362C1.66 45.0362 0 43.3749 0 41.3255C0 39.2775 1.66 37.6162 3.70933 37.6162Z" fill="#247ACA"/>
<path d="M77.0165 37.6162C79.0658 37.6162 80.7258 39.2775 80.7258 41.3255C80.7258 43.3749 79.0658 45.0362 77.0165 45.0362C74.9671 45.0362 73.3071 43.3749 73.3071 41.3255C73.3071 39.2775 74.9671 37.6162 77.0165 37.6162Z" fill="#2197F7"/>
<path d="M40.3629 74.2698C42.4122 74.2698 44.0722 75.9311 44.0722 77.9791C44.0722 80.0284 42.4122 81.6898 40.3629 81.6898C38.3136 81.6898 36.6536 80.0284 36.6536 77.9791C36.6536 75.9311 38.3136 74.2698 40.3629 74.2698Z" fill="#46C6EF"/>
</svg>
