<svg width="36" height="36" viewBox="0 0 36 36" fill="none" xmlns="http://www.w3.org/2000/svg">
<path d="M17.0244 0.0453911C12.2804 0.0533911 7.93643 1.79335 4.7311 4.99868C1.66576 8.17335 -0.0115809 12.452 0.00841913 17.0494L0.00575393 17.2187C-0.142246 23.7481 2.59375 27.884 4.87642 30.168C8.90975 34.3174 14.0644 35.2774 17.4324 35.2774C18.6898 35.2774 19.6991 35.1441 20.3098 34.9934C22.4538 34.4574 23.7564 32.2867 23.2231 30.144C22.6978 28.0414 20.5964 26.7387 18.4938 27.2027C18.1404 27.2587 13.7724 27.8413 10.5711 24.5507C8.80043 22.7773 7.93643 20.3734 8.00443 17.4L8.00842 17.0134C7.99775 14.4801 8.85508 12.2467 10.4364 10.6067C12.5498 8.49467 15.1978 8.04401 17.1564 8.04401C17.3204 8.04534 17.4884 8.03867 17.6524 8.02C17.6858 8.01467 20.5511 7.72003 23.4618 9.55337C26.0524 11.2 27.1084 14.528 27.2124 15.4573C27.2098 15.5187 27.2084 15.5814 27.2084 15.644V29.6547C27.2084 31.8654 28.9991 33.6547 31.2084 33.6547C33.4178 33.6547 35.2084 31.8654 35.2084 29.6547V15.7614C35.3404 12.728 33.0924 6.19872 27.7391 2.79206C23.9311 0.394724 20.1818 6.48499e-05 18.1538 6.48499e-05C17.6738 6.48499e-05 17.2898 0.0227244 17.0244 0.0453911ZM12.0778 17.7667C12.0778 20.8627 14.5964 23.3787 17.6911 23.3787C20.7844 23.3787 23.3004 20.8627 23.3004 17.7667C23.3004 14.672 20.7844 12.1561 17.6911 12.1561C14.5964 12.1561 12.0778 14.672 12.0778 17.7667Z" fill="#002E9B" />
</svg>
