<svg width="20" height="40" viewBox="0 0 20 40" fill="none" xmlns="http://www.w3.org/2000/svg">
<path d="M0 4.00143V27.9894C0 28.4187 0.0693223 28.8454 0.205322 29.2534C0.602656 30.4494 2.23733 34.5561 6.56266 37.2561C9.43066 39.0334 12.268 39.3934 14.088 39.3934C14.852 39.3934 15.436 39.3308 15.7693 39.2828C17.956 38.9681 19.4747 36.9414 19.1613 34.7534C18.8467 32.5667 16.8093 31.0588 14.632 31.3628C14.5533 31.3761 12.6653 31.6281 10.7867 30.4641C9.18799 29.4641 8.35468 28.008 8.00134 27.2334V18.6681H10.6667C12.876 18.6681 14.6667 16.8774 14.6667 14.6667C14.6667 12.4574 12.876 10.6667 10.6667 10.6667H8.00134V4.00143C8.00134 1.79076 6.21067 4.19617e-05 4 4.19617e-05C1.79067 4.19617e-05 0 1.79076 0 4.00143Z" fill="white"/>
</svg>
