<svg width="36" height="36" viewBox="0 0 36 36" fill="none" xmlns="http://www.w3.org/2000/svg">
<path d="M17.0285 0.0440903C12.2832 0.0534236 7.93653 1.79343 4.7312 4.99876C1.66586 8.17343 -0.0114586 12.4534 0.00854141 17.0481L0.00585586 17.2174C-0.143477 23.7481 2.59253 27.8854 4.8752 30.1667C8.91119 34.3161 14.0512 35.2801 17.4219 35.2801C18.6899 35.2801 19.7059 35.1441 20.3179 34.9894C22.4605 34.4507 23.7592 32.276 23.2205 30.1334C22.6912 28.0334 20.5925 26.74 18.4925 27.2027C18.1605 27.2507 13.7312 27.8001 10.5712 24.5481C8.80054 22.7787 7.93518 20.3734 8.00451 17.4L8.00854 17.0147C7.99654 14.4787 8.85519 12.2454 10.4365 10.6068C12.5512 8.49342 15.1992 8.04409 17.1565 8.04409C17.3365 8.04276 17.4872 8.04003 17.6499 8.0187C17.6499 8.0187 17.6992 8.01606 17.7832 8.01072C18.3832 7.98006 20.9138 7.94943 23.4592 9.55076C26.0525 11.2014 27.1085 14.5294 27.2125 15.4574C27.2099 15.5188 27.2085 15.5814 27.2085 15.6441V30.8547C27.2085 33.0654 28.9992 34.8561 31.2099 34.8561C33.4192 34.8561 35.2085 33.0654 35.2085 30.8547V15.7628C35.3392 12.7294 33.0939 6.19872 27.7392 2.79206C23.9245 0.390724 20.1659 6.48499e-05 18.1419 6.48499e-05C17.6686 6.48499e-05 17.2898 0.0214236 17.0285 0.0440903Z" fill="white"/>
</svg>

