<svg width="79" height="82" viewBox="0 0 79 82" fill="none" xmlns="http://www.w3.org/2000/svg">
<path d="M26.9887 74.5895C17.1941 70.4348 9.55273 62.1241 6.36206 51.8855" stroke="#4077BB" stroke-width="7.42" stroke-linecap="round" stroke-linejoin="round"/>
<path d="M7.62329 26.3611C11.8526 16.6411 20.0886 9.07308 30.3273 5.88242" stroke="#E52D34" stroke-width="7.42" stroke-linecap="round" stroke-linejoin="round"/>
<path d="M74.9945 55.2982C70.7652 65.0182 62.5292 72.5862 52.2905 75.8515" stroke="#FAB500" stroke-width="7.42" stroke-linecap="round" stroke-linejoin="round"/>
<path d="M41.3089 0.466139C43.3583 0.466139 45.0183 2.12747 45.0183 4.17547C45.0183 6.22481 43.3583 7.88614 41.3089 7.88614C39.2596 7.88614 37.5996 6.22481 37.5996 4.17547C37.5996 2.12747 39.2596 0.466139 41.3089 0.466139Z" fill="#E52D34"/>
<path d="M4.65538 37.1197C6.70471 37.1197 8.36471 38.7811 8.36471 40.8291C8.36471 42.8784 6.70471 44.5397 4.65538 44.5397C2.60605 44.5397 0.946045 42.8784 0.946045 40.8291C0.946045 38.7811 2.60605 37.1197 4.65538 37.1197Z" fill="#4077BB"/>
<path d="M41.3089 73.7734C43.3583 73.7734 45.0183 75.4347 45.0183 77.4827C45.0183 79.5321 43.3583 81.1934 41.3089 81.1934C39.2596 81.1934 37.5996 79.5321 37.5996 77.4827C37.5996 75.4347 39.2596 73.7734 41.3089 73.7734Z" fill="#FAB500"/>
</svg>
