<svg width="30" height="30" viewBox="0 0 30 30" fill="none" xmlns="http://www.w3.org/2000/svg">
<path fill-rule="evenodd" clip-rule="evenodd" d="M11 8.96739V16V24.3454H16.7858C22.0697 24.2645 22.7036 24.2136 24.0931 23.7563C26.0501 23.1122 27.6747 21.5786 28.3708 19.7179C29.5 16 29.3544 10.3983 27.1369 7.60393C25.1559 5.41129 23.481 5.00771 16.345 5.00331L11 5V8.96739ZM21.1191 9.20411C23.4898 9.7126 24.2174 10.9795 24.2101 14.5879C24.2008 19.302 24.4337 20.2537 19.6374 20.4968H15.849V16H11V8.96739H15.849H17.9321C19.0778 8.96739 20.5118 9.07385 21.1191 9.20411Z" fill="#EB333D"/>
<path fill-rule="evenodd" clip-rule="evenodd" d="M0.543988 19.5L0.543945 24.3281H1.5H2.50009V22.5L0.543988 19.5L1.95621 18.4929L3.49348 21.5173L5.00009 24.3281H6.50009H7.31719L6.04528 22.1026L7.31719 22V16.0051H6.34158H5.36597L5.36597 18.4929L7.31719 22L6.04528 22.1026L4.50128 19.0782L2.92694 16H1.46353L0.68304 16.0051L1.95621 18.4929L0.543988 19.5Z" fill="#EB333D"/>
<path d="M0 6.5H3V13.5H5V6.5H8V5H7.5H0V6.5Z" fill="#EB333D"/>
</svg>
