<svg id="img" width="38" height="38" viewBox="0 0 38 38" fill="none" xmlns="http://www.w3.org/2000/svg">
<path d="M19.309 13.2648C22.3823 13.2648 24.8743 15.7568 24.8743 18.8301C24.8743 21.9035 22.3823 24.3941 19.309 24.3941C16.2357 24.3941 13.7437 21.9035 13.7437 18.8301C13.7437 15.7568 16.2357 13.2648 19.309 13.2648Z" fill="#002E9B"/>
<path d="M21.9058 33.3724C21.1644 33.5204 20.3471 33.5951 19.5311 33.5951C11.7404 33.6698 5.06309 27.4364 4.61776 19.6458C4.17242 11.1138 10.9244 4.06443 19.3831 4.06443C24.7258 4.06443 29.3258 6.88444 31.9218 11.0391C33.3324 13.2644 34.0004 15.9364 34.0004 18.5324V32.3338" stroke="#002E9B" stroke-width="7.42" stroke-linecap="round" stroke-linejoin="round"/>
</svg>
