<svg viewBox="0 0 11 11" fill="none" xmlns="http://www.w3.org/2000/svg">
    <path d="M10.5 1.125C10.5 0.95924 10.4342 0.800269 10.3169 0.683058C10.1997 0.565848 10.0408 0.5 9.875 0.5H6.75C6.58424 0.5 6.42527 0.565848 6.30806 0.683058C6.19085 0.800269 6.125 0.95924 6.125 1.125C6.125 1.29076 6.19085 1.44973 6.30806 1.56694C6.42527 1.68415 6.58424 1.75 6.75 1.75H8.35625L6.30625 3.80625C6.24767 3.86435 6.20117 3.93348 6.16944 4.00964C6.13771 4.0858 6.12138 4.16749 6.12138 4.25C6.12138 4.33251 6.13771 4.4142 6.16944 4.49036C6.20117 4.56652 6.24767 4.63565 6.30625 4.69375C6.36435 4.75233 6.43348 4.79883 6.50964 4.83056C6.5858 4.86229 6.66749 4.87862 6.75 4.87862C6.83251 4.87862 6.9142 4.86229 6.99036 4.83056C7.06652 4.79883 7.13565 4.75233 7.19375 4.69375L9.25 2.6375V4.25C9.25 4.41576 9.31585 4.57473 9.43306 4.69194C9.55027 4.80915 9.70924 4.875 9.875 4.875C10.0408 4.875 10.1997 4.80915 10.3169 4.69194C10.4342 4.57473 10.5 4.41576 10.5 4.25V1.125ZM4.69375 6.30625C4.63565 6.24767 4.56652 6.20117 4.49036 6.16944C4.4142 6.13771 4.33251 6.12138 4.25 6.12138C4.16749 6.12138 4.0858 6.13771 4.00964 6.16944C3.93348 6.20117 3.86435 6.24767 3.80625 6.30625L1.75 8.35625V6.75C1.75 6.58424 1.68415 6.42527 1.56694 6.30806C1.44973 6.19085 1.29076 6.125 1.125 6.125C0.95924 6.125 0.800269 6.19085 0.683058 6.30806C0.565848 6.42527 0.5 6.58424 0.5 6.75V9.875C0.5 10.0408 0.565848 10.1997 0.683058 10.3169C0.800269 10.4342 0.95924 10.5 1.125 10.5H4.25C4.41576 10.5 4.57473 10.4342 4.69194 10.3169C4.80915 10.1997 4.875 10.0408 4.875 9.875C4.875 9.70924 4.80915 9.55027 4.69194 9.43306C4.57473 9.31585 4.41576 9.25 4.25 9.25H2.6375L4.69375 7.19375C4.75233 7.13565 4.79883 7.06652 4.83056 6.99036C4.86229 6.9142 4.87862 6.83251 4.87862 6.75C4.87862 6.66749 4.86229 6.5858 4.83056 6.50964C4.79883 6.43348 4.75233 6.36435 4.69375 6.30625Z" fill="#fff"/>
</svg>
